<svg width="15" height="18" viewBox="0 0 15 18" fill="none" xmlns="http://www.w3.org/2000/svg">
<path d="M11.1244 0.25V2H10.2494V4.835C10.2494 5.86167 10.4652 6.84167 10.8969 7.775L14.6419 15.895C14.7935 16.2217 14.8052 16.5542 14.6769 16.8925C14.5485 17.2308 14.321 17.4758 13.9944 17.6275C13.8194 17.7092 13.6385 17.75 13.4519 17.75H1.79688C1.43521 17.75 1.12604 17.6217 0.869375 17.365C0.612708 17.1083 0.484375 16.7992 0.484375 16.4375C0.484375 16.2508 0.525208 16.07 0.606875 15.895L4.35188 7.775C4.78354 6.84167 4.99938 5.86167 4.99938 4.835V2H4.12438V0.25H11.1244ZM8.83188 7.25H6.41688C6.32354 7.565 6.21271 7.88 6.08438 8.195L5.94438 8.51L2.47938 16H12.7694L9.30438 8.51C9.11771 8.10167 8.96021 7.68167 8.83188 7.25ZM6.74938 4.835C6.74938 5.05667 6.74354 5.27833 6.73188 5.5H8.51688L8.49938 5.185V4.835V2H6.74938V4.835Z" fill="#22C55E"/>
</svg>
