<svg width="18" height="18" viewBox="0 0 18 18" fill="none" xmlns="http://www.w3.org/2000/svg">
<path d="M1.46906 5.86771C0.932396 6.96438 0.664062 8.11938 0.664062 9.33272C0.664062 10.7677 1.0199 12.0977 1.73156 13.3227C2.43156 14.501 3.37656 15.4402 4.56656 16.1402C5.7799 16.8519 7.10406 17.2077 8.53906 17.2077C9.7524 17.2077 10.9074 16.9452 12.0041 16.4202C12.8091 16.7585 13.5324 16.9569 14.1741 17.0152C14.6057 17.0502 15.0024 17.0152 15.3641 16.9102C15.7724 16.8052 16.1166 16.6127 16.3966 16.3327C16.6999 16.0177 16.9041 15.6327 17.0091 15.1777C17.1024 14.781 17.1141 14.3435 17.0441 13.8652C16.9391 13.0952 16.6474 12.2319 16.1691 11.2752C16.3324 10.6452 16.4141 9.99772 16.4141 9.33272C16.4141 7.90938 16.0524 6.58521 15.3291 5.36021C14.6407 4.18188 13.7016 3.24271 12.5116 2.54271C11.2866 1.81938 9.9624 1.45771 8.53906 1.45771C7.87406 1.45771 7.22656 1.53938 6.59656 1.70271C5.6399 1.22438 4.77656 0.932715 4.00656 0.827715C3.52823 0.757715 3.09073 0.769382 2.69406 0.862715C2.23906 0.967715 1.85406 1.17188 1.53906 1.47521C1.25906 1.75521 1.06656 2.09938 0.961563 2.50771C0.856563 2.86938 0.821562 3.26605 0.856562 3.69771C0.914896 4.33938 1.11906 5.06271 1.46906 5.86771ZM2.69406 4.06521C2.6474 3.87855 2.61823 3.70355 2.60656 3.54021C2.57156 3.14355 2.6299 2.86938 2.78156 2.71771C2.95656 2.54271 3.28906 2.49021 3.77906 2.56021C3.9424 2.58355 4.12906 2.62438 4.33906 2.68271C3.72073 3.06771 3.1724 3.52855 2.69406 4.06521ZM15.1891 13.5502C15.2474 13.7485 15.2882 13.9294 15.3116 14.0927C15.3816 14.5827 15.3291 14.9152 15.1541 15.0902C15.0024 15.2419 14.7282 15.3002 14.3316 15.2652C14.1682 15.2535 13.9932 15.2244 13.8066 15.1777C14.3432 14.6994 14.8041 14.1569 15.1891 13.5502ZM11.9341 14.4427C11.1757 14.046 10.3941 13.5385 9.58906 12.9202C8.7374 12.2785 7.91198 11.5581 7.11281 10.759C6.31365 9.9598 5.59323 9.13438 4.95156 8.28271C4.33323 7.47771 3.82573 6.69605 3.42906 5.93772C3.82573 5.35438 4.3099 4.8498 4.88156 4.42396C5.45323 3.99813 6.0774 3.68021 6.75406 3.47021C7.32573 3.29521 7.92073 3.20771 8.53906 3.20771C9.6474 3.20771 10.6741 3.48771 11.6191 4.04771C12.5407 4.59605 13.2757 5.33105 13.8241 6.25271C14.3841 7.19771 14.6641 8.22438 14.6641 9.33272C14.6641 9.95105 14.5766 10.546 14.4016 11.1177C14.1916 11.7944 13.8736 12.4185 13.4478 12.9902C13.022 13.5619 12.5174 14.046 11.9341 14.4427ZM9.93906 15.3002C9.48406 15.4052 9.0174 15.4577 8.53906 15.4577C7.43073 15.4577 6.39823 15.1835 5.44156 14.6352C4.5199 14.0869 3.7849 13.3519 3.23656 12.4302C2.68823 11.4852 2.41406 10.4527 2.41406 9.33272C2.41406 8.86605 2.46656 8.39938 2.57156 7.93271C3.44656 9.32105 4.54615 10.6773 5.87031 12.0015C7.19448 13.3256 8.55073 14.4252 9.93906 15.3002Z" fill="#6366F1"/>
</svg>
