<svg width="17" height="18" viewBox="0 0 17 18" fill="none" xmlns="http://www.w3.org/2000/svg">
<path d="M3.5625 0.25C4.7175 0.25 5.785 0.553333 6.765 1.16C7.72167 1.74333 8.4625 2.53083 8.9875 3.5225C9.5125 2.7875 10.1717 2.20417 10.965 1.7725C11.7933 1.34083 12.68 1.125 13.625 1.125H16.6875V3.3125C16.6875 4.33917 16.4308 5.29583 15.9175 6.1825C15.4158 7.04583 14.7333 7.72833 13.87 8.23C12.9833 8.74333 12.0267 9 11 9H9.6875V9.875H14.0625V16C14.0625 16.315 13.9838 16.6067 13.8263 16.875C13.6688 17.1433 13.4558 17.3562 13.1875 17.5137C12.9192 17.6712 12.6275 17.75 12.3125 17.75H5.3125C4.9975 17.75 4.70583 17.6712 4.4375 17.5137C4.16917 17.3562 3.95625 17.1433 3.79875 16.875C3.64125 16.6067 3.5625 16.315 3.5625 16V9.875H7.9375V8.125H6.1875C5.07917 8.125 4.04667 7.845 3.09 7.285C2.16833 6.74833 1.43917 6.01917 0.9025 5.0975C0.3425 4.14083 0.0625 3.10833 0.0625 2V0.25H3.5625ZM12.3125 11.625H5.3125V16H12.3125V11.625ZM14.9375 2.875H13.625C12.9133 2.875 12.2571 3.05292 11.6563 3.40875C11.0554 3.76458 10.5771 4.24292 10.2213 4.84375C9.86542 5.44458 9.6875 6.10083 9.6875 6.8125V7.25H11C11.7117 7.25 12.3679 7.07208 12.9688 6.71625C13.5696 6.36042 14.0479 5.88208 14.4038 5.28125C14.7596 4.68042 14.9375 4.02417 14.9375 3.3125V2.875ZM3.5625 2H1.8125C1.8125 2.79333 2.00792 3.52542 2.39875 4.19625C2.78958 4.86708 3.32042 5.39792 3.99125 5.78875C4.66208 6.17958 5.39417 6.375 6.1875 6.375H7.9375C7.9375 5.58167 7.74208 4.84958 7.35125 4.17875C6.96042 3.50792 6.42958 2.97708 5.75875 2.58625C5.08792 2.19542 4.35583 2 3.5625 2Z" fill="#10B981"/>
</svg>
