<svg width="18" height="18" viewBox="0 0 18 18" fill="none" xmlns="http://www.w3.org/2000/svg">
<path d="M4.085 4.1525C3.46667 4.79417 2.98833 5.52333 2.65 6.34C2.3 7.19167 2.125 8.07833 2.125 9C2.125 10.2717 2.44583 11.45 3.0875 12.535C3.70583 13.585 4.54 14.4192 5.59 15.0375C6.675 15.6792 7.85333 16 9.125 16C10.0583 16 10.9508 15.825 11.8025 15.475C11.8375 15.1833 11.8258 14.8742 11.7675 14.5475C11.7208 14.3492 11.6625 14.1567 11.5925 13.97C11.3825 13.48 10.7233 12.6517 9.615 11.485C9.475 11.3333 9.39333 11.17 9.37 10.995C9.35833 10.8667 9.38167 10.61 9.44 10.225L9.4575 10.1375C9.48083 9.95083 9.5275 9.81083 9.5975 9.7175C9.69083 9.58917 9.86 9.47833 10.105 9.385C10.3617 9.28 10.7525 9.18667 11.2775 9.105C11.5458 9.07 11.7588 9.07292 11.9163 9.11375C12.0738 9.15458 12.2108 9.23917 12.3275 9.3675C12.3975 9.4375 12.4967 9.57167 12.625 9.77L12.73 9.91C12.8583 10.1083 12.9925 10.2542 13.1325 10.3475C13.2142 10.4175 13.3542 10.4933 13.5525 10.575C13.7625 10.68 13.955 10.7821 14.13 10.8812C14.305 10.9804 14.4333 11.0912 14.515 11.2137C14.5967 11.3362 14.6492 11.4967 14.6725 11.695C14.6842 11.8117 14.69 12.0333 14.69 12.36V12.465C14.69 12.78 14.6608 13.0775 14.6025 13.3575C15.0925 12.7508 15.4658 12.08 15.7225 11.345C15.9908 10.5983 16.125 9.81667 16.125 9C16.125 8.055 15.9442 7.15083 15.5825 6.2875C15.2325 5.4475 14.7367 4.70667 14.095 4.065C13.4533 3.42333 12.7183 2.92167 11.89 2.56C11.1317 3.07333 10.6708 3.44083 10.5075 3.6625C10.4842 3.6975 10.4492 3.77333 10.4025 3.89C10.3092 4.12333 10.2217 4.2925 10.14 4.3975C10.0117 4.59583 9.85417 4.70667 9.6675 4.73C9.57417 4.74167 9.39917 4.74167 9.1425 4.73C8.74583 4.695 8.44833 4.70083 8.25 4.7475C7.92333 4.8175 7.7075 4.99833 7.6025 5.29C7.55583 5.44167 7.52667 5.64 7.515 5.885C7.50333 6.165 7.52667 6.4275 7.585 6.6725C7.655 6.96417 7.76583 7.20333 7.9175 7.39C7.99917 7.48333 8.01083 7.635 7.9525 7.845C7.92917 7.95 7.88833 8.04917 7.83 8.1425C7.78333 8.20083 7.7425 8.2475 7.7075 8.2825C7.64917 8.2475 7.52375 8.11917 7.33125 7.8975C7.13875 7.67583 6.98417 7.5125 6.8675 7.4075C6.66917 7.2325 6.47083 7.11583 6.2725 7.0575C6.17917 7.03417 6.01583 6.99917 5.7825 6.9525L5.765 6.935C5.43833 6.865 5.205 6.80667 5.065 6.76C4.82 6.67833 4.66833 6.57917 4.61 6.4625C4.575 6.36917 4.55167 6.2525 4.54 6.1125C4.52833 6.03083 4.5225 5.89083 4.5225 5.6925C4.5225 5.4475 4.51667 5.26083 4.505 5.1325C4.48167 4.89917 4.42917 4.695 4.3475 4.52C4.2775 4.38 4.19 4.2575 4.085 4.1525ZM9.125 17.75C7.935 17.75 6.7975 17.5225 5.7125 17.0675C4.67417 16.6242 3.74958 15.9971 2.93875 15.1862C2.12792 14.3754 1.50083 13.4508 1.0575 12.4125C0.6025 11.3275 0.375 10.19 0.375 9C0.375 7.81 0.6025 6.6725 1.0575 5.5875C1.50083 4.54917 2.12792 3.62458 2.93875 2.81375C3.74958 2.00292 4.67417 1.37583 5.7125 0.9325C6.7975 0.4775 7.935 0.25 9.125 0.25C10.315 0.25 11.4525 0.4775 12.5375 0.9325C13.5758 1.37583 14.5004 2.00292 15.3113 2.81375C16.1221 3.62458 16.7492 4.54917 17.1925 5.5875C17.6475 6.6725 17.875 7.81 17.875 9C17.875 10.19 17.6475 11.3275 17.1925 12.4125C16.7492 13.4508 16.1221 14.3754 15.3113 15.1862C14.5004 15.9971 13.5758 16.6242 12.5375 17.0675C11.4525 17.5225 10.315 17.75 9.125 17.75Z" fill="#06B6D4"/>
</svg>
