<svg width="17" height="18" viewBox="0 0 17 18" fill="none" xmlns="http://www.w3.org/2000/svg">
<path d="M1.375 0.25H15.375C15.62 0.25 15.8271 0.334583 15.9963 0.50375C16.1654 0.672917 16.25 0.88 16.25 1.125V16.875C16.25 17.12 16.1654 17.3271 15.9963 17.4962C15.8271 17.6654 15.62 17.75 15.375 17.75H1.375C1.13 17.75 0.922917 17.6654 0.75375 17.4962C0.584583 17.3271 0.5 17.12 0.5 16.875V1.125C0.5 0.88 0.584583 0.672917 0.75375 0.50375C0.922917 0.334583 1.13 0.25 1.375 0.25ZM2.25 2V16H14.5V2H2.25ZM4 3.75H12.75V7.25H4V3.75ZM4 9H5.75V10.75H4V9ZM4 12.5H5.75V14.25H4V12.5ZM7.5 9H9.25V10.75H7.5V9ZM7.5 12.5H9.25V14.25H7.5V12.5ZM11 9H12.75V14.25H11V9Z" fill="#8B5CF6"/>
</svg>
