<svg width="19" height="18" viewBox="0 0 19 18" fill="none" xmlns="http://www.w3.org/2000/svg">
<path d="M14 0.897461C14.875 0.897461 15.68 1.12496 16.415 1.57996C17.15 2.03496 17.7275 2.65329 18.1475 3.43496C18.5908 4.25163 18.8125 5.15579 18.8125 6.14746C18.8125 7.50079 18.4975 8.80163 17.8675 10.05C17.3308 11.1116 16.5667 12.1325 15.575 13.1125C14.805 13.8825 13.8892 14.635 12.8275 15.37C12.2325 15.7783 11.4508 16.2683 10.4825 16.84L10.0625 17.085L9.6425 16.84C8.6275 16.245 7.81083 15.7316 7.1925 15.3C6.08417 14.53 5.13333 13.7366 4.34 12.92C3.33667 11.87 2.57833 10.785 2.065 9.66496L0.4375 9.64746V7.89746L1.505 7.91496C1.37667 7.33163 1.3125 6.74246 1.3125 6.14746C1.3125 5.15579 1.53417 4.25163 1.9775 3.43496C2.3975 2.65329 2.975 2.03496 3.71 1.57996C4.445 1.12496 5.25 0.897461 6.125 0.897461C6.88333 0.897461 7.63583 1.08413 8.3825 1.45746C9.0125 1.76079 9.5725 2.15746 10.0625 2.64746C10.5525 2.15746 11.1125 1.76079 11.7425 1.45746C12.4892 1.08413 13.2417 0.897461 14 0.897461ZM14 2.64746C13.5333 2.64746 13.0608 2.76121 12.5825 2.98871C12.1042 3.21621 11.6783 3.51663 11.305 3.88996L10.0625 5.13246L8.82 3.88996C8.44667 3.51663 8.02083 3.21621 7.5425 2.98871C7.06417 2.76121 6.59167 2.64746 6.125 2.64746C5.565 2.64746 5.05167 2.79913 4.585 3.10246C4.11833 3.40579 3.74792 3.82288 3.47375 4.35371C3.19958 4.88454 3.0625 5.48829 3.0625 6.16496C3.0625 6.74829 3.13833 7.33163 3.29 7.91496L5.1975 7.89746L7 4.88746L9.625 9.26246L10.4475 7.89746H14.4375V9.64746H11.4275L9.625 12.675L7 8.29996L6.1775 9.64746L4.025 9.66496C4.70167 10.8316 5.73417 11.9691 7.1225 13.0775C7.74083 13.5675 8.44667 14.0633 9.24 14.565C9.485 14.7166 9.75917 14.88 10.0625 15.055C10.3658 14.88 10.64 14.7166 10.885 14.565C11.6783 14.0633 12.3842 13.5675 13.0025 13.0775C14.3325 12.0158 15.3358 10.925 16.0125 9.80496C16.7125 8.63829 17.0625 7.42496 17.0625 6.16496C17.0625 5.48829 16.9283 4.88163 16.66 4.34496C16.3917 3.80829 16.0242 3.39413 15.5575 3.10246C15.0908 2.81079 14.5717 2.65913 14 2.64746Z" fill="#EF4444"/>
</svg>
