<svg width="18" height="18" viewBox="0 0 18 18" fill="none" xmlns="http://www.w3.org/2000/svg">
<path d="M8.875 17.75C7.685 17.75 6.5475 17.5225 5.4625 17.0675C4.42417 16.6242 3.49958 15.9971 2.68875 15.1862C1.87792 14.3754 1.25083 13.4508 0.8075 12.4125C0.3525 11.3275 0.125 10.19 0.125 9C0.125 7.81 0.3525 6.6725 0.8075 5.5875C1.25083 4.54917 1.87792 3.62458 2.68875 2.81375C3.49958 2.00292 4.42417 1.37583 5.4625 0.932501C6.5475 0.477499 7.685 0.25 8.875 0.25C10.065 0.25 11.2025 0.477499 12.2875 0.932501C13.3258 1.37583 14.2504 2.00292 15.0612 2.81375C15.8721 3.62458 16.4992 4.54917 16.9425 5.5875C17.3975 6.6725 17.625 7.81 17.625 9C17.625 10.19 17.3975 11.3275 16.9425 12.4125C16.4992 13.4508 15.8721 14.3754 15.0612 15.1862C14.2504 15.9971 13.3258 16.6242 12.2875 17.0675C11.2025 17.5225 10.065 17.75 8.875 17.75ZM6.88 15.7025C6.005 13.8592 5.50917 11.9167 5.3925 9.875H1.9275C2.04417 10.785 2.32708 11.6367 2.77625 12.43C3.22542 13.2233 3.80292 13.9029 4.50875 14.4688C5.21458 15.0346 6.005 15.4458 6.88 15.7025ZM7.16 9.875C7.28833 11.975 7.86 13.9467 8.875 15.79C9.89 13.9467 10.4617 11.975 10.59 9.875H7.16ZM15.8225 9.875H12.3575C12.2408 11.9167 11.7508 13.8592 10.8875 15.7025C11.7508 15.4458 12.5354 15.0346 13.2413 14.4688C13.9471 13.9029 14.5246 13.2233 14.9738 12.43C15.4229 11.6367 15.7058 10.785 15.8225 9.875ZM1.9275 8.125H5.3925C5.50917 6.08333 6.005 4.14083 6.88 2.2975C6.005 2.55417 5.21458 2.96542 4.50875 3.53125C3.80292 4.09708 3.22542 4.77667 2.77625 5.57C2.32708 6.36333 2.04417 7.215 1.9275 8.125ZM7.16 8.125H10.59C10.4617 6.025 9.89 4.05333 8.875 2.21C7.86 4.05333 7.28833 6.025 7.16 8.125ZM10.8875 2.2975C11.7508 4.14083 12.2408 6.08333 12.3575 8.125H15.8225C15.7058 7.215 15.4229 6.36333 14.9738 5.57C14.5246 4.77667 13.9471 4.09708 13.2413 3.53125C12.5354 2.96542 11.7508 2.55417 10.8875 2.2975Z" fill="#3B82F6"/>
</svg>
