<svg width="17" height="18" viewBox="0 0 17 18" fill="none" xmlns="http://www.w3.org/2000/svg">
<path d="M13.4023 0.897539H16.4998V3.97754L11.7223 8.75504L14.1898 11.24L15.4323 9.99754L16.6748 11.24L14.5048 13.3925L16.9723 15.8775L15.7473 17.1025L13.2623 14.635L11.0923 16.805L9.86734 15.5625L11.0923 14.32L8.62484 11.8525L6.15734 14.32L7.38234 15.5625L6.15734 16.805L3.98734 14.635L1.50234 17.1025L0.277344 15.8775L2.74484 13.3925L0.574844 11.24L1.81734 9.99754L3.05984 11.24L5.52734 8.75504L0.749844 3.97754V0.897539H3.84734L8.62484 5.65754L13.4023 0.897539ZM6.76984 9.99754L4.28484 12.465L4.91484 13.095L7.38234 10.61L6.76984 9.99754ZM14.7498 2.64754H14.1198L9.86734 6.90004L10.4798 7.51254L14.7498 3.24254V2.64754ZM2.49984 2.64754V3.26004L12.3348 13.095L12.9473 12.465L3.12984 2.64754H2.49984Z" fill="#F59E0B"/>
</svg>
