<svg width="20" height="18" viewBox="0 0 20 18" fill="none" xmlns="http://www.w3.org/2000/svg">
<path d="M0.955078 5.8325C1.02508 6.68417 1.34008 7.43375 1.90008 8.08125C2.46008 8.72875 3.16008 9.14583 4.00008 9.3325V15.5625H2.25008V17.3125H18.0001V15.5625H16.2501V9.3325C17.0901 9.14583 17.7901 8.72875 18.3501 8.08125C18.9101 7.43375 19.2251 6.68417 19.2951 5.8325C18.8634 5.9025 18.4317 5.9375 18.0001 5.9375C16.9034 5.9375 15.8563 5.71875 14.8588 5.28125C13.8613 4.84375 12.9892 4.22833 12.2426 3.435C11.4959 2.64167 10.9417 1.72583 10.5801 0.6875H9.67008C9.30841 1.72583 8.75425 2.64167 8.00758 3.435C7.26091 4.22833 6.38883 4.84375 5.39133 5.28125C4.39383 5.71875 3.34674 5.9375 2.25008 5.9375C1.81841 5.9375 1.38674 5.9025 0.955078 5.8325ZM14.5001 15.5625H5.75008V9.4375H14.5001V15.5625ZM15.8651 7.635L15.6201 7.6875H4.63008L4.38508 7.635C4.26841 7.61167 4.15758 7.57667 4.05258 7.53C5.39424 7.27333 6.64841 6.73667 7.81508 5.92C8.73674 5.26667 9.50674 4.49667 10.1251 3.61C10.7434 4.49667 11.5134 5.26667 12.4351 5.92C13.6017 6.73667 14.8559 7.27333 16.1976 7.53C16.0926 7.57667 15.9817 7.61167 15.8651 7.635Z" fill="#EF4444"/>
</svg>
