<svg width="16" height="20" viewBox="0 0 16 20" fill="none" xmlns="http://www.w3.org/2000/svg">
<path d="M0.9325 1.9675L8.125 0.375L15.3175 1.9675C15.5158 2.01417 15.6792 2.11917 15.8075 2.2825C15.9358 2.44583 16 2.62667 16 2.825V11.5575C16 12.4442 15.7929 13.2725 15.3787 14.0425C14.9646 14.8125 14.39 15.4425 13.655 15.9325L8.125 19.625L2.595 15.9325C1.86 15.4425 1.28542 14.8125 0.87125 14.0425C0.457083 13.2725 0.25 12.4442 0.25 11.5575V2.825C0.25 2.62667 0.314167 2.44583 0.4425 2.2825C0.570833 2.11917 0.734167 2.01417 0.9325 1.9675ZM2 3.525V11.5575C2 12.1525 2.13708 12.7067 2.41125 13.22C2.68542 13.7333 3.0675 14.1533 3.5575 14.48L8.125 17.525L12.6925 14.48C13.1825 14.1533 13.5646 13.7333 13.8387 13.22C14.1129 12.7067 14.25 12.1525 14.25 11.5575V3.525L8.125 2.16L2 3.525ZM7.25 8.25V5.625H9V8.25H11.625V10H9V12.625H7.25V10H4.625V8.25H7.25Z" fill="#F97316"/>
</svg>
