<svg width="20" height="16" viewBox="0 0 20 16" fill="none" xmlns="http://www.w3.org/2000/svg">
<path d="M5.465 0.125H14.285C14.355 0.615 14.5329 1.06125 14.8188 1.46375C15.1046 1.86625 15.4663 2.18125 15.9038 2.40875C16.3412 2.63625 16.8108 2.75 17.3125 2.75C17.6042 2.75 17.89 2.70917 18.17 2.6275C18.1233 3.14083 17.9571 3.6075 17.6712 4.0275C17.3854 4.4475 17.0179 4.77708 16.5688 5.01625C16.1196 5.25542 15.6383 5.375 15.125 5.375H4.625C4.11167 5.375 3.63042 5.25542 3.18125 5.01625C2.73208 4.77708 2.36458 4.4475 2.07875 4.0275C1.79292 3.6075 1.62667 3.14083 1.58 2.6275C1.86 2.70917 2.14583 2.75 2.4375 2.75C2.93917 2.75 3.40875 2.63625 3.84625 2.40875C4.28375 2.18125 4.64542 1.86625 4.93125 1.46375C5.21708 1.06125 5.395 0.615 5.465 0.125ZM14.1625 3.3275C13.6725 2.89583 13.2875 2.41167 13.0075 1.875H6.7425C6.4625 2.41167 6.0775 2.89583 5.5875 3.3275C5.45917 3.4325 5.33083 3.53167 5.2025 3.625H14.5475C14.4192 3.53167 14.2908 3.4325 14.1625 3.3275ZM18.1875 7.5625C18.6542 7.5625 19.0858 7.45167 19.4825 7.23C19.4942 7.335 19.5 7.44583 19.5 7.5625C19.5 8.16917 19.3396 8.72042 19.0187 9.21625C18.6979 9.71208 18.275 10.0825 17.75 10.3275V15.875H11.625V14.125C11.625 13.81 11.5463 13.5183 11.3888 13.25C11.2312 12.9817 11.0183 12.7687 10.75 12.6112C10.4817 12.4537 10.19 12.375 9.875 12.375C9.56 12.375 9.26833 12.4537 9 12.6112C8.73167 12.7687 8.51875 12.9817 8.36125 13.25C8.20375 13.5183 8.125 13.81 8.125 14.125V15.875H2V10.3275C1.475 10.0825 1.05208 9.71208 0.73125 9.21625C0.410417 8.72042 0.25 8.16917 0.25 7.5625C0.25 7.44583 0.255833 7.335 0.2675 7.23C0.664167 7.45167 1.09875 7.5625 1.57125 7.5625C2.04375 7.5625 2.48125 7.44292 2.88375 7.20375C3.28625 6.96458 3.60417 6.64667 3.8375 6.25H15.9125C16.1458 6.64667 16.4638 6.96458 16.8663 7.20375C17.2687 7.44292 17.7092 7.5625 18.1875 7.5625ZM15.965 8.7C15.6267 8.50167 15.3233 8.26833 15.055 8H4.695C4.42667 8.26833 4.12333 8.50167 3.785 8.7C3.61 8.805 3.42917 8.89833 3.2425 8.98L3.75 9.225V14.125H6.375C6.375 13.1567 6.71625 12.3312 7.39875 11.6487C8.08125 10.9662 8.90667 10.625 9.875 10.625C10.8433 10.625 11.6687 10.9662 12.3512 11.6487C13.0337 12.3312 13.375 13.1567 13.375 14.125H16V9.225L16.5075 8.98C16.3208 8.89833 16.14 8.805 15.965 8.7Z" fill="#EAB308"/>
</svg>
