<svg width="20" height="16" viewBox="0 0 20 16" fill="none" xmlns="http://www.w3.org/2000/svg">
<path d="M18.25 14.125H20V15.875H0.75V14.125H2.5V1C2.5 0.755 2.58458 0.547916 2.75375 0.37875C2.92292 0.209583 3.13 0.125 3.375 0.125H12.125C12.37 0.125 12.5771 0.209583 12.7463 0.37875C12.9154 0.547916 13 0.755 13 1V14.125H16.5V7.125H14.75V5.375H17.375C17.62 5.375 17.8271 5.45958 17.9963 5.62875C18.1654 5.79792 18.25 6.005 18.25 6.25V14.125ZM4.25 1.875V14.125H11.25V1.875H4.25ZM6 7.125H9.5V8.875H6V7.125ZM6 3.625H9.5V5.375H6V3.625Z" fill="#0EA5E9"/>
</svg>
