<svg width="20" height="16" viewBox="0 0 20 16" fill="none" xmlns="http://www.w3.org/2000/svg">
<path d="M16.625 2.75H19.25V4.5H18.375V14.125H19.25V15.875H0V14.125H0.875V4.5H0V2.75H2.625V1C2.625 0.755 2.70958 0.547916 2.87875 0.37875C3.04792 0.209583 3.255 0.125 3.5 0.125H15.75C15.995 0.125 16.2021 0.209583 16.3713 0.37875C16.5404 0.547916 16.625 0.755 16.625 1V2.75ZM16.625 4.5H2.625V14.125H5.25V8H7V14.125H8.75V8H10.5V14.125H12.25V8H14V14.125H16.625V4.5ZM4.375 1.875V2.75H14.875V1.875H4.375Z" fill="#3B82F6"/>
</svg>
