<svg width="19" height="18" viewBox="0 0 19 18" fill="none" xmlns="http://www.w3.org/2000/svg">
<path d="M10.2507 0.6875V1.8075L14.6257 3.26L17.8107 2.21L18.3532 3.8725L15.7107 4.7475L18.4057 12.2025C17.9274 12.7042 17.3615 13.0979 16.7082 13.3837C16.0549 13.6696 15.3607 13.8125 14.6257 13.8125C13.8907 13.8125 13.1965 13.6696 12.5432 13.3837C11.8899 13.0979 11.324 12.7042 10.8457 12.2025L13.5407 4.7475L10.2507 3.645V15.5625H13.7507V17.3125H5.0007V15.5625H8.5007V3.645L5.2107 4.7475L7.9057 12.2025C7.42737 12.7042 6.86154 13.0979 6.2082 13.3837C5.55487 13.6696 4.8607 13.8125 4.1257 13.8125C3.3907 13.8125 2.69654 13.6696 2.0432 13.3837C1.38987 13.0979 0.824036 12.7042 0.345703 12.2025L3.0407 4.7475L0.398203 3.8725L0.940703 2.21L4.1257 3.26L8.5007 1.8075V0.6875H10.2507ZM14.6257 6.9L12.9107 11.6075C13.4357 11.9108 14.0074 12.0625 14.6257 12.0625C15.244 12.0625 15.8157 11.9108 16.3407 11.6075L14.6257 6.9ZM4.1257 6.9L2.4107 11.6075C2.9357 11.9108 3.50737 12.0625 4.1257 12.0625C4.74404 12.0625 5.3157 11.9108 5.8407 11.6075L4.1257 6.9Z" fill="#EF4444"/>
</svg>
