<svg width="18" height="18" viewBox="0 0 18 18" fill="none" xmlns="http://www.w3.org/2000/svg">
<path d="M10 16V17.75H8.25V16H1.25C1.005 16 0.797917 15.9154 0.62875 15.7462C0.459583 15.5771 0.375 15.37 0.375 15.125V1.125C0.375 0.879999 0.459583 0.672916 0.62875 0.50375C0.797917 0.334583 1.005 0.25 1.25 0.25H6.5C7.01333 0.25 7.4975 0.355 7.9525 0.565001C8.4075 0.775 8.79833 1.06667 9.125 1.44C9.45167 1.06667 9.8425 0.775 10.2975 0.565001C10.7525 0.355 11.2367 0.25 11.75 0.25H17C17.245 0.25 17.4521 0.334583 17.6213 0.50375C17.7904 0.672916 17.875 0.879999 17.875 1.125V15.125C17.875 15.37 17.7904 15.5771 17.6213 15.7462C17.4521 15.9154 17.245 16 17 16H10ZM16.125 14.25V2H11.75C11.435 2 11.1433 2.07875 10.875 2.23625C10.6067 2.39375 10.3938 2.60667 10.2362 2.875C10.0787 3.14333 10 3.435 10 3.75V14.25H16.125ZM8.25 14.25V3.75C8.25 3.435 8.17125 3.14333 8.01375 2.875C7.85625 2.60667 7.64333 2.39375 7.375 2.23625C7.10667 2.07875 6.815 2 6.5 2H2.125V14.25H8.25Z" fill="#6366F1"/>
</svg>
