<svg width="20" height="18" viewBox="0 0 20 18" fill="none" xmlns="http://www.w3.org/2000/svg">
<path d="M2 15.9125V4.27498C2 4.08831 2.0525 3.91914 2.1575 3.76748C2.2625 3.61581 2.4025 3.51081 2.5775 3.45248L11.03 0.372475C11.1467 0.325809 11.2604 0.328726 11.3713 0.381226C11.4821 0.433725 11.555 0.518309 11.59 0.634975C11.6133 0.681643 11.625 0.72831 11.625 0.774975V5.11498L17.155 6.95248C17.33 7.01081 17.4729 7.11873 17.5837 7.27623C17.6946 7.43373 17.75 7.60581 17.75 7.79248V15.9125H19.5V17.6625H0.25V15.9125H2ZM3.75 15.9125H9.875V2.64748L3.75 4.88748V15.9125ZM16 15.9125V8.42248L11.625 6.95248V15.9125H16Z" fill="#22C55E"/>
</svg>
