<svg width="17" height="20" viewBox="0 0 17 20" fill="none" xmlns="http://www.w3.org/2000/svg">
<path d="M12.8424 13.5525L12.9999 13.71L13.1574 13.5525C13.4024 13.2959 13.6941 13.1238 14.0324 13.0363C14.3708 12.9488 14.7091 12.9488 15.0474 13.0363C15.3858 13.1238 15.6833 13.2959 15.9399 13.5525C16.1966 13.8092 16.3687 14.1067 16.4562 14.445C16.5437 14.7834 16.5437 15.1188 16.4562 15.4513C16.3687 15.7838 16.1966 16.0784 15.9399 16.335L12.9999 19.275L10.0599 16.335C9.80326 16.0784 9.63117 15.7838 9.54367 15.4513C9.45617 15.1188 9.45617 14.7834 9.54367 14.445C9.63117 14.1067 9.80326 13.8092 10.0599 13.5525C10.3166 13.2959 10.6141 13.1238 10.9524 13.0363C11.2908 12.9488 11.6291 12.9488 11.9674 13.0363C12.3058 13.1238 12.5974 13.2959 12.8424 13.5525ZM7.73242 12.1V13.85C6.78742 13.85 5.90659 14.0892 5.08992 14.5675C4.29659 15.0342 3.66659 15.6642 3.19992 16.4575C2.72159 17.2742 2.48242 18.155 2.48242 19.1H0.732422C0.732422 17.8517 1.04159 16.6909 1.65992 15.6175C2.25492 14.5792 3.06576 13.7509 4.09242 13.1325C5.14242 12.4792 6.28576 12.135 7.52242 12.1H7.73242ZM7.73242 0.725025C8.68909 0.725025 9.57576 0.964191 10.3924 1.44252C11.1741 1.90919 11.7983 2.53919 12.2649 3.33252C12.7433 4.13752 12.9824 5.01252 12.9824 5.95752C12.9824 6.90252 12.7549 7.77169 12.2999 8.56502C11.8566 9.34669 11.247 9.97669 10.4712 10.455C9.69534 10.9334 8.84659 11.19 7.92492 11.225H7.73242C6.78742 11.225 5.90659 10.9859 5.08992 10.5075C4.29659 10.0409 3.66659 9.41086 3.19992 8.61752C2.72159 7.81252 2.48242 6.93752 2.48242 5.99252C2.48242 5.04752 2.70992 4.17836 3.16492 3.38502C3.60826 2.60336 4.21784 1.97336 4.99367 1.49502C5.76951 1.01669 6.61826 0.760025 7.53992 0.725025H7.73242ZM7.73242 2.47503C7.10242 2.47503 6.51909 2.63252 5.98242 2.94753C5.44576 3.26252 5.01992 3.68836 4.70492 4.22502C4.38992 4.76169 4.23242 5.34502 4.23242 5.97502C4.23242 6.60502 4.38992 7.18836 4.70492 7.72502C5.01992 8.26169 5.44576 8.68752 5.98242 9.00252C6.51909 9.31752 7.10242 9.47502 7.73242 9.47502C8.36242 9.47502 8.94576 9.31752 9.48242 9.00252C10.0191 8.68752 10.4449 8.26169 10.7599 7.72502C11.0749 7.18836 11.2324 6.60502 11.2324 5.97502C11.2324 5.34502 11.0749 4.76169 10.7599 4.22502C10.4449 3.68836 10.0191 3.26252 9.48242 2.94753C8.94576 2.63252 8.36242 2.47503 7.73242 2.47503Z" fill="#A855F7"/>
</svg>
