<svg width="16" height="20" viewBox="0 0 16 20" fill="none" xmlns="http://www.w3.org/2000/svg">
<path d="M8.125 17.0349L12.4475 12.6949C13.2408 11.9133 13.7775 10.9916 14.0575 9.92994C14.3258 8.89161 14.3258 7.85327 14.0575 6.81494C13.7775 5.75327 13.2437 4.82869 12.4563 4.04119C11.6687 3.25369 10.7442 2.71994 9.6825 2.43994C8.64417 2.17161 7.60583 2.17161 6.5675 2.43994C5.50583 2.71994 4.58125 3.25369 3.79375 4.04119C3.00625 4.82869 2.4725 5.75327 2.1925 6.81494C1.92417 7.85327 1.92417 8.89161 2.1925 9.92994C2.4725 10.9916 3.00917 11.9133 3.8025 12.6949L8.125 17.0349ZM8.125 19.5024L2.56 13.9374C1.545 12.9341 0.8625 11.7441 0.5125 10.3674C0.1625 9.03744 0.1625 7.70744 0.5125 6.37744C0.8625 5.00077 1.54208 3.80786 2.55125 2.79869C3.56042 1.78952 4.75333 1.10411 6.13 0.742441C7.46 0.404108 8.79 0.404108 10.12 0.742441C11.4967 1.10411 12.6896 1.78952 13.6988 2.79869C14.7079 3.80786 15.3875 5.00077 15.7375 6.37744C16.0875 7.70744 16.0875 9.03744 15.7375 10.3674C15.3875 11.7441 14.705 12.9341 13.69 13.9374L8.125 19.5024ZM8.125 10.1224C8.44 10.1224 8.73167 10.0437 9 9.88619C9.26833 9.72869 9.48125 9.51577 9.63875 9.24744C9.79625 8.97911 9.875 8.68744 9.875 8.37244C9.875 8.05744 9.79625 7.76577 9.63875 7.49744C9.48125 7.22911 9.26833 7.01619 9 6.85869C8.73167 6.70119 8.44 6.62244 8.125 6.62244C7.81 6.62244 7.51833 6.70119 7.25 6.85869C6.98167 7.01619 6.76875 7.22911 6.61125 7.49744C6.45375 7.76577 6.375 8.05744 6.375 8.37244C6.375 8.68744 6.45375 8.97911 6.61125 9.24744C6.76875 9.51577 6.98167 9.72869 7.25 9.88619C7.51833 10.0437 7.81 10.1224 8.125 10.1224ZM8.125 11.8724C7.495 11.8724 6.91167 11.7149 6.375 11.3999C5.83833 11.0849 5.4125 10.6591 5.0975 10.1224C4.7825 9.58577 4.625 8.99953 4.625 8.36369C4.625 7.72786 4.7825 7.14452 5.0975 6.61369C5.4125 6.08286 5.83833 5.65994 6.375 5.34494C6.91167 5.02994 7.495 4.87244 8.125 4.87244C8.755 4.87244 9.33833 5.02994 9.875 5.34494C10.4117 5.65994 10.8375 6.08286 11.1525 6.61369C11.4675 7.14452 11.625 7.72786 11.625 8.36369C11.625 8.99953 11.4675 9.58577 11.1525 10.1224C10.8375 10.6591 10.4117 11.0849 9.875 11.3999C9.33833 11.7149 8.755 11.8724 8.125 11.8724Z" fill="#F59E0B"/>
</svg>
