<svg width="23" height="24" viewBox="0 0 23 24" fill="none" xmlns="http://www.w3.org/2000/svg">
<path d="M10.163 0.333415C11.718 0.333415 13.1797 0.69897 14.5481 1.43008C15.8699 2.13008 16.9622 3.09841 17.8253 4.33508C18.6883 5.57175 19.2209 6.94453 19.423 8.45341L22.0354 12.5834C22.1443 12.739 22.1754 12.8984 22.1287 13.0617C22.0821 13.2251 21.9655 13.3534 21.7789 13.4467L19.493 14.4267V17.8334C19.493 18.2534 19.388 18.6423 19.1781 19.0001C18.9682 19.3579 18.6844 19.6417 18.3268 19.8517C17.9691 20.0617 17.5804 20.1667 17.1605 20.1667H14.828V23.6667H4.33176V19.3501C4.33176 17.9967 3.84971 16.7134 2.88561 15.5001C2.23251 14.6912 1.73491 13.7967 1.39281 12.8167C1.01961 11.8056 0.833008 10.7556 0.833008 9.66675C0.833008 7.97119 1.26063 6.40008 2.11588 4.95341C2.94003 3.55341 4.05186 2.44119 5.45136 1.61675C6.91306 0.761192 8.48361 0.333415 10.163 0.333415ZM10.163 2.66675C8.90346 2.66675 7.72943 2.98564 6.64093 3.62341C5.58353 4.24564 4.74383 5.08564 4.12183 6.14341C3.48428 7.2323 3.16551 8.40675 3.16551 9.66675C3.16551 10.4756 3.29768 11.2534 3.56203 12.0001C3.82638 12.7467 4.20736 13.4234 4.70496 14.0301C6.01116 15.679 6.66426 17.4523 6.66426 19.3501V21.3334H12.4955V17.8334H17.1605V12.8867L18.9799 12.0934L17.1838 9.27008L17.1139 8.75675C16.9584 7.62119 16.5541 6.58675 15.901 5.65341C15.2479 4.72008 14.4198 3.98897 13.4168 3.46008C12.4139 2.93119 11.3293 2.66675 10.163 2.66675ZM9.55656 7.05341L10.163 7.68341L10.7928 7.05341C11.1815 6.66453 11.6597 6.47008 12.2273 6.47008C12.7948 6.47008 13.2769 6.66841 13.6734 7.06508C14.0699 7.46175 14.2682 7.94008 14.2682 8.50008C14.2682 9.06008 14.0738 9.5423 13.6851 9.94675L10.163 13.4467L6.66426 9.94675C6.25996 9.5423 6.05781 9.06008 6.05781 8.50008C6.05781 7.94008 6.25996 7.46175 6.66426 7.06508C7.06856 6.66841 7.55061 6.47008 8.11041 6.47008C8.67021 6.47008 9.15226 6.66453 9.55656 7.05341Z" fill="#78716C"/>
</svg>
