<svg width="18" height="16" viewBox="0 0 18 16" fill="none" xmlns="http://www.w3.org/2000/svg">
<path d="M0.125 1C0.125 0.755 0.209583 0.547916 0.37875 0.37875C0.547917 0.209583 0.755 0.125 1 0.125H16.75C16.995 0.125 17.2021 0.209583 17.3713 0.37875C17.5404 0.547916 17.625 0.755 17.625 1V15C17.625 15.245 17.5404 15.4521 17.3713 15.6213C17.2021 15.7904 16.995 15.875 16.75 15.875H1C0.755 15.875 0.547917 15.7904 0.37875 15.6213C0.209583 15.4521 0.125 15.245 0.125 15V1ZM8 1.875H1.875V14.125H8V1.875ZM9.75 1.875V14.125H15.875V1.875H9.75ZM10.625 3.625H15V5.375H10.625V3.625ZM10.625 6.25H15V8H10.625V6.25Z" fill="#3B82F6"/>
</svg>
