<svg width="25" height="24" viewBox="0 0 25 24" fill="none" xmlns="http://www.w3.org/2000/svg">
<path d="M13.6588 21.3334V23.6667H11.3263V21.3334H1.99633C1.66978 21.3334 1.39377 21.2206 1.16829 20.9951C0.942816 20.7695 0.830078 20.4934 0.830078 20.1667V1.50008C0.830078 1.17341 0.942816 0.897304 1.16829 0.671748C1.39377 0.446192 1.66978 0.333415 1.99633 0.333415H8.99383C9.67803 0.333415 10.3234 0.473415 10.9298 0.753415C11.5363 1.03341 12.0572 1.4223 12.4926 1.92008C12.928 1.4223 13.4489 1.03341 14.0554 0.753415C14.6618 0.473415 15.3071 0.333415 15.9913 0.333415H22.9888C23.3154 0.333415 23.5914 0.446192 23.8169 0.671748C24.0423 0.897304 24.1551 1.17341 24.1551 1.50008V20.1667C24.1551 20.4934 24.0423 20.7695 23.8169 20.9951C23.5914 21.2206 23.3154 21.3334 22.9888 21.3334H13.6588ZM21.8226 19.0001V2.66675H15.9913C15.5715 2.66675 15.1827 2.77175 14.8251 2.98175C14.4674 3.19175 14.1836 3.47564 13.9737 3.83341C13.7638 4.19119 13.6588 4.58008 13.6588 5.00008V19.0001H21.8226ZM11.3263 19.0001V5.00008C11.3263 4.58008 11.2214 4.19119 11.0114 3.83341C10.8015 3.47564 10.5177 3.19175 10.1601 2.98175C9.80243 2.77175 9.41368 2.66675 8.99383 2.66675H3.16258V19.0001H11.3263Z" fill="#F97316"/>
</svg>
