<svg width="19" height="18" viewBox="0 0 19 18" fill="none" xmlns="http://www.w3.org/2000/svg">
<path d="M5 3.75V1.125C5 0.879999 5.08458 0.672916 5.25375 0.50375C5.42292 0.334583 5.63 0.25 5.875 0.25H12.875C13.12 0.25 13.3271 0.334583 13.4963 0.50375C13.6654 0.672916 13.75 0.879999 13.75 1.125V3.75H17.25C17.495 3.75 17.7021 3.83458 17.8713 4.00375C18.0404 4.17292 18.125 4.38 18.125 4.625V16.875C18.125 17.12 18.0404 17.3271 17.8713 17.4963C17.7021 17.6654 17.495 17.75 17.25 17.75H1.5C1.255 17.75 1.04792 17.6654 0.87875 17.4963C0.709583 17.3271 0.625 17.12 0.625 16.875V4.625C0.625 4.38 0.709583 4.17292 0.87875 4.00375C1.04792 3.83458 1.255 3.75 1.5 3.75H5ZM6.75 10.75H2.375V16H16.375V10.75H12V13.375H6.75V10.75ZM16.375 5.5H2.375V9H6.75V7.25H12V9H16.375V5.5ZM8.5 9V11.625H10.25V9H8.5ZM6.75 2V3.75H12V2H6.75Z" fill="#06B6D4"/>
</svg>
