<svg width="18" height="18" viewBox="0 0 18 18" fill="none" xmlns="http://www.w3.org/2000/svg">
<path d="M5.375 16V11.625H7.125V16H15V9.875H2.75V16H5.375ZM1.875 8.125H15.875V5.5H10.625V2H7.125V5.5H1.875V8.125ZM1 16.875V9.875H0.125V4.625C0.125 4.38 0.209583 4.17292 0.37875 4.00375C0.547917 3.83458 0.755 3.75 1 3.75H5.375V1.125C5.375 0.88 5.45958 0.672917 5.62875 0.50375C5.79792 0.334583 6.005 0.25 6.25 0.25H11.5C11.745 0.25 11.9521 0.334583 12.1213 0.50375C12.2904 0.672917 12.375 0.88 12.375 1.125V3.75H16.75C16.995 3.75 17.2021 3.83458 17.3713 4.00375C17.5404 4.17292 17.625 4.38 17.625 4.625V9.875H16.75V16.875C16.75 17.12 16.6654 17.3271 16.4963 17.4962C16.3271 17.6654 16.12 17.75 15.875 17.75H1.875C1.63 17.75 1.42292 17.6654 1.25375 17.4962C1.08458 17.3271 1 17.12 1 16.875Z" fill="#D946EF"/>
</svg>
