<svg width="18" height="18" viewBox="0 0 18 18" fill="none" xmlns="http://www.w3.org/2000/svg">
<path d="M9.125 17.75C7.935 17.75 6.7975 17.5225 5.7125 17.0675C4.67417 16.6242 3.74958 15.9971 2.93875 15.1862C2.12792 14.3754 1.50083 13.4508 1.0575 12.4125C0.6025 11.3275 0.375 10.19 0.375 9C0.375 7.81 0.6025 6.6725 1.0575 5.5875C1.50083 4.54917 2.12792 3.62458 2.93875 2.81375C3.74958 2.00292 4.67417 1.37583 5.7125 0.932501C6.7975 0.477499 7.935 0.25 9.125 0.25C10.315 0.25 11.4525 0.477499 12.5375 0.932501C13.5758 1.37583 14.5004 2.00292 15.3112 2.81375C16.1221 3.62458 16.7492 4.54917 17.1925 5.5875C17.6475 6.6725 17.875 7.81 17.875 9C17.875 10.19 17.6475 11.3275 17.1925 12.4125C16.7492 13.4508 16.1221 14.3754 15.3112 15.1862C14.5004 15.9971 13.5758 16.6242 12.5375 17.0675C11.4525 17.5225 10.315 17.75 9.125 17.75ZM7.13 15.7025C6.255 13.8592 5.75917 11.9167 5.6425 9.875H2.1775C2.29417 10.785 2.57708 11.6367 3.02625 12.43C3.47542 13.2233 4.05292 13.9029 4.75875 14.4688C5.46458 15.0346 6.255 15.4458 7.13 15.7025ZM7.41 9.875C7.53833 11.975 8.11 13.9467 9.125 15.79C10.14 13.9467 10.7117 11.975 10.84 9.875H7.41ZM16.0725 9.875H12.6075C12.4908 11.9167 12.0008 13.8592 11.1375 15.7025C12.0008 15.4458 12.7854 15.0346 13.4913 14.4688C14.1971 13.9029 14.7746 13.2233 15.2238 12.43C15.6729 11.6367 15.9558 10.785 16.0725 9.875ZM2.1775 8.125H5.6425C5.75917 6.08333 6.255 4.14083 7.13 2.2975C6.255 2.55417 5.46458 2.96542 4.75875 3.53125C4.05292 4.09708 3.47542 4.77667 3.02625 5.57C2.57708 6.36333 2.29417 7.215 2.1775 8.125ZM7.41 8.125H10.84C10.7117 6.025 10.14 4.05333 9.125 2.21C8.11 4.05333 7.53833 6.025 7.41 8.125ZM11.1375 2.2975C12.0008 4.14083 12.4908 6.08333 12.6075 8.125H16.0725C15.9558 7.215 15.6729 6.36333 15.2238 5.57C14.7746 4.77667 14.1971 4.09708 13.4913 3.53125C12.7854 2.96542 12.0008 2.55417 11.1375 2.2975Z" fill="#6366F1"/>
</svg>
