<svg width="20" height="18" viewBox="0 0 20 18" fill="none" xmlns="http://www.w3.org/2000/svg">
<path d="M16 17.5925H3.75C3.505 17.5925 3.29792 17.5079 3.12875 17.3388C2.95958 17.1696 2.875 16.9625 2.875 16.7175V8.84253H0.25L9.28 0.635029C9.455 0.483362 9.65333 0.40753 9.875 0.40753C10.0967 0.40753 10.295 0.483362 10.47 0.635029L19.5 8.84253H16.875V16.7175C16.875 16.9625 16.7904 17.1696 16.6213 17.3388C16.4521 17.5079 16.245 17.5925 16 17.5925ZM10.75 15.8425H15.125V7.23253L9.875 2.45503L4.625 7.23253V15.8425H9V10.5925H10.75V15.8425Z" fill="#F59E0B"/>
</svg>
