<svg width="19" height="18" viewBox="0 0 19 18" fill="none" xmlns="http://www.w3.org/2000/svg">
<path d="M9.625 17.75C8.435 17.75 7.2975 17.5225 6.2125 17.0675C5.17417 16.6242 4.24958 15.9971 3.43875 15.1862C2.62792 14.3754 2.00083 13.4508 1.5575 12.4125C1.1025 11.3275 0.875 10.19 0.875 9C0.875 7.81 1.1025 6.6725 1.5575 5.5875C2.00083 4.54917 2.62792 3.62458 3.43875 2.81375C4.24958 2.00292 5.17417 1.37583 6.2125 0.932501C7.2975 0.477499 8.435 0.25 9.625 0.25C10.815 0.25 11.9525 0.477499 13.0375 0.932501C14.0758 1.37583 15.0004 2.00292 15.8112 2.81375C16.6221 3.62458 17.2492 4.54917 17.6925 5.5875C18.1475 6.6725 18.375 7.81 18.375 9C18.375 10.19 18.1475 11.3275 17.6925 12.4125C17.2492 13.4508 16.6221 14.3754 15.8112 15.1862C15.0004 15.9971 14.0758 16.6242 13.0375 17.0675C11.9525 17.5225 10.815 17.75 9.625 17.75ZM9.625 16C10.8967 16 12.075 15.6792 13.16 15.0375C14.21 14.4192 15.0442 13.585 15.6625 12.535C16.3042 11.45 16.625 10.2717 16.625 9C16.625 7.72833 16.3042 6.55 15.6625 5.465C15.0442 4.415 14.21 3.58083 13.16 2.9625C12.075 2.32083 10.8967 2 9.625 2C8.35333 2 7.175 2.32083 6.09 2.9625C5.04 3.58083 4.20583 4.415 3.5875 5.465C2.94583 6.55 2.625 7.72833 2.625 9C2.625 10.2717 2.94583 11.45 3.5875 12.535C4.20583 13.585 5.04 14.4192 6.09 15.0375C7.175 15.6792 8.35333 16 9.625 16ZM8.75 12.5H6.125V5.5H8.75V3.75H10.5V5.5H11.375C11.7717 5.5 12.1363 5.59917 12.4688 5.7975C12.8013 5.99583 13.0667 6.26125 13.265 6.59375C13.4633 6.92625 13.5625 7.29083 13.5625 7.6875C13.5625 8.1775 13.4167 8.615 13.125 9C13.4167 9.385 13.5625 9.8225 13.5625 10.3125C13.5625 10.7092 13.4633 11.0738 13.265 11.4062C13.0667 11.7387 12.8013 12.0042 12.4688 12.2025C12.1363 12.4008 11.7717 12.5 11.375 12.5H10.5V14.25H8.75V12.5ZM7.875 9.875V10.75H11.375C11.4917 10.75 11.5938 10.7063 11.6812 10.6188C11.7688 10.5312 11.8125 10.4292 11.8125 10.3125C11.8125 10.1958 11.7688 10.0938 11.6812 10.0062C11.5938 9.91875 11.4917 9.875 11.375 9.875H7.875ZM7.875 7.25V8.125H11.375C11.4917 8.125 11.5938 8.08125 11.6812 7.99375C11.7688 7.90625 11.8125 7.80417 11.8125 7.6875C11.8125 7.57083 11.7688 7.46875 11.6812 7.38125C11.5938 7.29375 11.4917 7.25 11.375 7.25H7.875Z" fill="#F97316"/>
</svg>
