<svg width="19" height="18" viewBox="0 0 19 18" fill="none" xmlns="http://www.w3.org/2000/svg">
<path d="M0.875 16H18.375V17.75H0.875V16ZM2.625 9H4.375V15.125H2.625V9ZM7 9H8.75V15.125H7V9ZM10.5 9H12.25V15.125H10.5V9ZM14.875 9H16.625V15.125H14.875V9ZM0.875 4.625L9.625 0.25L18.375 4.625V8.125H0.875V4.625ZM2.625 5.71V6.375H16.625V5.71L9.625 2.21L2.625 5.71ZM9.625 5.5C9.38 5.5 9.17292 5.41542 9.00375 5.24625C8.83458 5.07708 8.75 4.87 8.75 4.625C8.75 4.38 8.83458 4.17292 9.00375 4.00375C9.17292 3.83458 9.38 3.75 9.625 3.75C9.87 3.75 10.0771 3.83458 10.2463 4.00375C10.4154 4.17292 10.5 4.38 10.5 4.625C10.5 4.87 10.4154 5.07708 10.2463 5.24625C10.0771 5.41542 9.87 5.5 9.625 5.5Z" fill="#22C55E"/>
</svg>
