<svg width="18" height="20" viewBox="0 0 18 20" fill="none" xmlns="http://www.w3.org/2000/svg">
<path d="M7.66797 11.7325V13.4825C6.72297 13.4825 5.84214 13.7217 5.02547 14.2C4.23214 14.6667 3.60214 15.2909 3.13547 16.0725C2.65714 16.8892 2.41797 17.7759 2.41797 18.7325H0.667969C0.667969 17.4609 0.988802 16.2825 1.63047 15.1975C2.2488 14.1359 3.08297 13.2959 4.13297 12.6775C5.21797 12.0475 6.3963 11.7325 7.66797 11.7325ZM7.66797 10.8575C6.72297 10.8575 5.84214 10.6184 5.02547 10.14C4.23214 9.67335 3.60214 9.04335 3.13547 8.25002C2.65714 7.43335 2.41797 6.5496 2.41797 5.59877C2.41797 4.64793 2.65714 3.76418 3.13547 2.94752C3.60214 2.16585 4.23214 1.54168 5.02547 1.07502C5.84214 0.596684 6.72589 0.357517 7.67672 0.357517C8.62755 0.357517 9.5113 0.596684 10.328 1.07502C11.1096 1.54168 11.7338 2.16585 12.2005 2.94752C12.6788 3.76418 12.918 4.64793 12.918 5.59877C12.918 6.5496 12.6788 7.43335 12.2005 8.25002C11.7338 9.04335 11.1096 9.67335 10.328 10.14C9.5113 10.6184 8.62464 10.8575 7.66797 10.8575ZM7.66797 9.10752C8.29797 9.10752 8.8813 8.95002 9.41797 8.63502C9.95464 8.32002 10.3805 7.89418 10.6955 7.35752C11.0105 6.82085 11.168 6.23752 11.168 5.60752C11.168 4.97752 11.0105 4.39418 10.6955 3.85752C10.3805 3.32085 9.95464 2.89502 9.41797 2.58002C8.8813 2.26502 8.29797 2.10752 7.66797 2.10752C7.03797 2.10752 6.45464 2.26502 5.91797 2.58002C5.3813 2.89502 4.95547 3.32085 4.64047 3.85752C4.32547 4.39418 4.16797 4.97752 4.16797 5.60752C4.16797 6.23752 4.32547 6.82085 4.64047 7.35752C4.95547 7.89418 5.3813 8.32002 5.91797 8.63502C6.45464 8.95002 7.03797 9.10752 7.66797 9.10752ZM12.918 18.295L10.3455 19.6425L10.8355 16.7725L8.75297 14.76L11.6405 14.34L12.918 11.7325L14.213 14.34L17.083 14.76L15.0005 16.7725L15.4905 19.6425L12.918 18.295Z" fill="#6366F1"/>
</svg>
