<svg width="20" height="20" viewBox="0 0 20 20" fill="none" xmlns="http://www.w3.org/2000/svg">
<path opacity="0.38" d="M0.9375 19.1875C0.9375 17.9158 1.25833 16.7375 1.9 15.6525C2.51833 14.6025 3.3525 13.7683 4.4025 13.15C5.4875 12.5083 6.66583 12.1875 7.9375 12.1875C9.20917 12.1875 10.3875 12.5083 11.4725 13.15C12.5225 13.7683 13.3567 14.6025 13.975 15.6525C14.6167 16.7375 14.9375 17.9158 14.9375 19.1875H13.1875C13.1875 18.2425 12.9483 17.3617 12.47 16.545C12.0033 15.7517 11.3733 15.1217 10.58 14.655C9.76333 14.1767 8.8825 13.9375 7.9375 13.9375C6.9925 13.9375 6.11167 14.1767 5.295 14.655C4.50167 15.1217 3.87167 15.7517 3.405 16.545C2.92667 17.3617 2.6875 18.2425 2.6875 19.1875H0.9375ZM7.9375 11.3125C6.98083 11.3125 6.1 11.0733 5.295 10.595C4.50167 10.1283 3.87167 9.49833 3.405 8.705C2.92667 7.9 2.6875 7.01917 2.6875 6.0625C2.6875 5.10583 2.92667 4.225 3.405 3.42C3.87167 2.62667 4.50167 1.99667 5.295 1.53C6.1 1.05167 6.98083 0.8125 7.9375 0.8125C8.89417 0.8125 9.775 1.05167 10.58 1.53C11.3733 1.99667 12.0033 2.62667 12.47 3.42C12.9483 4.225 13.1875 5.10583 13.1875 6.0625C13.1875 7.01917 12.9483 7.9 12.47 8.705C12.0033 9.49833 11.3733 10.1283 10.58 10.595C9.775 11.0733 8.89417 11.3125 7.9375 11.3125ZM7.9375 9.5625C8.5675 9.5625 9.15083 9.405 9.6875 9.09C10.2242 8.775 10.65 8.34917 10.965 7.8125C11.28 7.27583 11.4375 6.6925 11.4375 6.0625C11.4375 5.4325 11.28 4.84917 10.965 4.3125C10.65 3.77583 10.2242 3.35 9.6875 3.035C9.15083 2.72 8.5675 2.5625 7.9375 2.5625C7.3075 2.5625 6.72417 2.72 6.1875 3.035C5.65083 3.35 5.225 3.77583 4.91 4.3125C4.595 4.84917 4.4375 5.4325 4.4375 6.0625C4.4375 6.6925 4.595 7.27583 4.91 7.8125C5.225 8.34917 5.65083 8.775 6.1875 9.09C6.72417 9.405 7.3075 9.5625 7.9375 9.5625ZM15.1825 12.8C15.9992 13.1617 16.7196 13.6662 17.3438 14.3137C17.9679 14.9612 18.4492 15.6933 18.7875 16.51C19.1375 17.3617 19.3125 18.2542 19.3125 19.1875H17.5625C17.5625 18.1375 17.2767 17.175 16.705 16.3C16.145 15.4483 15.3983 14.8125 14.465 14.3925L15.1825 12.8ZM14.5875 2.93C15.4742 3.29167 16.1917 3.875 16.74 4.68C17.2883 5.485 17.5625 6.38333 17.5625 7.375C17.5625 8.20333 17.37 8.97042 16.985 9.67625C16.6 10.3821 16.0721 10.9567 15.4012 11.4C14.7304 11.8433 13.9925 12.1 13.1875 12.17V10.4025C13.6775 10.3325 14.1237 10.1546 14.5262 9.86875C14.9288 9.58292 15.2437 9.22125 15.4713 8.78375C15.6988 8.34625 15.8125 7.87667 15.8125 7.375C15.8125 6.78 15.655 6.2375 15.34 5.7475C15.025 5.2575 14.6108 4.88417 14.0975 4.6275L14.5875 2.93Z" fill="#F43F5E"/>
</svg>
