<svg width="13" height="16" viewBox="0 0 13 16" fill="none" xmlns="http://www.w3.org/2000/svg">
<path d="M5.5 9.3475V0.125H12.5V2.75H7.25V12.375C7.25 13.005 7.0925 13.5883 6.7775 14.125C6.4625 14.6617 6.03667 15.0875 5.5 15.4025C4.96333 15.7175 4.38 15.875 3.75 15.875C3.12 15.875 2.53667 15.7175 2 15.4025C1.46333 15.0875 1.0375 14.6617 0.7225 14.125C0.4075 13.5883 0.25 13.005 0.25 12.375C0.25 11.745 0.4075 11.1617 0.7225 10.625C1.0375 10.0883 1.46333 9.6625 2 9.3475C2.53667 9.0325 3.12 8.875 3.75 8.875C4.38 8.875 4.96333 9.0325 5.5 9.3475Z" fill="#A855F7"/>
</svg>
