<svg width="17" height="16" viewBox="0 0 17 16" fill="none" xmlns="http://www.w3.org/2000/svg">
<path d="M16.6875 0.125V12.375C16.6875 13.005 16.53 13.5883 16.215 14.125C15.9 14.6617 15.4742 15.0875 14.9375 15.4025C14.4008 15.7175 13.8175 15.875 13.1875 15.875C12.5575 15.875 11.9742 15.7175 11.4375 15.4025C10.9008 15.0875 10.475 14.6617 10.16 14.125C9.845 13.5883 9.6875 13.005 9.6875 12.375C9.6875 11.745 9.845 11.1617 10.16 10.625C10.475 10.0883 10.9008 9.6625 11.4375 9.3475C11.9742 9.0325 12.5575 8.875 13.1875 8.875C13.8175 8.875 14.4008 9.0325 14.9375 9.3475V1.875H7.0625V12.375C7.0625 13.005 6.905 13.5883 6.59 14.125C6.275 14.6617 5.84917 15.0875 5.3125 15.4025C4.77583 15.7175 4.1925 15.875 3.5625 15.875C2.9325 15.875 2.34917 15.7175 1.8125 15.4025C1.27583 15.0875 0.85 14.6617 0.535 14.125C0.22 13.5883 0.0625 13.005 0.0625 12.375C0.0625 11.745 0.22 11.1617 0.535 10.625C0.85 10.0883 1.27583 9.6625 1.8125 9.3475C2.34917 9.0325 2.9325 8.875 3.5625 8.875C4.1925 8.875 4.77583 9.0325 5.3125 9.3475V0.125H16.6875ZM3.5625 14.125C3.8775 14.125 4.16917 14.0462 4.4375 13.8887C4.70583 13.7313 4.91875 13.5183 5.07625 13.25C5.23375 12.9817 5.3125 12.69 5.3125 12.375C5.3125 12.06 5.23375 11.7683 5.07625 11.5C4.91875 11.2317 4.70583 11.0188 4.4375 10.8612C4.16917 10.7038 3.8775 10.625 3.5625 10.625C3.2475 10.625 2.95583 10.7038 2.6875 10.8612C2.41917 11.0188 2.20625 11.2317 2.04875 11.5C1.89125 11.7683 1.8125 12.06 1.8125 12.375C1.8125 12.69 1.89125 12.9817 2.04875 13.25C2.20625 13.5183 2.41917 13.7313 2.6875 13.8887C2.95583 14.0462 3.2475 14.125 3.5625 14.125ZM13.1875 14.125C13.5025 14.125 13.7942 14.0462 14.0625 13.8887C14.3308 13.7313 14.5437 13.5183 14.7013 13.25C14.8588 12.9817 14.9375 12.69 14.9375 12.375C14.9375 12.06 14.8588 11.7683 14.7013 11.5C14.5437 11.2317 14.3308 11.0188 14.0625 10.8612C13.7942 10.7038 13.5025 10.625 13.1875 10.625C12.8725 10.625 12.5808 10.7038 12.3125 10.8612C12.0442 11.0188 11.8313 11.2317 11.6737 11.5C11.5162 11.7683 11.4375 12.06 11.4375 12.375C11.4375 12.69 11.5162 12.9817 11.6737 13.25C11.8313 13.5183 12.0442 13.7313 12.3125 13.8887C12.5808 14.0462 12.8725 14.125 13.1875 14.125Z" fill="#EC4899"/>
</svg>
