<svg width="18" height="18" viewBox="0 0 18 18" fill="none" xmlns="http://www.w3.org/2000/svg">
<path d="M1.875 12.0625H15.875V2.4375H1.875V12.0625ZM9.75 13.8125V15.5625H13.25V17.3125H4.5V15.5625H8V13.8125H1C0.755 13.8125 0.547917 13.7279 0.37875 13.5587C0.209583 13.3896 0.125 13.1825 0.125 12.9375V1.5625C0.125 1.32917 0.209583 1.125 0.37875 0.950001C0.547917 0.775 0.755 0.6875 1 0.6875H16.75C16.995 0.6875 17.2021 0.772083 17.3713 0.94125C17.5404 1.11042 17.625 1.3175 17.625 1.5625V12.9375C17.625 13.1708 17.5404 13.375 17.3713 13.55C17.2021 13.725 16.995 13.8125 16.75 13.8125H9.75Z" fill="#3B82F6"/>
</svg>
