<svg width="19" height="18" viewBox="0 0 19 18" fill="none" xmlns="http://www.w3.org/2000/svg">
<path d="M9.625 0.25C10.815 0.25 11.9525 0.477499 13.0375 0.932501C14.0758 1.37583 15.0004 2.00292 15.8112 2.81375C16.6221 3.62458 17.2492 4.54917 17.6925 5.5875C18.1475 6.6725 18.375 7.81 18.375 9C18.375 10.19 18.1475 11.3275 17.6925 12.4125C17.2492 13.4508 16.6221 14.3754 15.8112 15.1862C15.0004 15.9971 14.0758 16.6242 13.0375 17.0675C11.9525 17.5225 10.815 17.75 9.625 17.75C8.435 17.75 7.2975 17.5225 6.2125 17.0675C5.17417 16.6242 4.24958 15.9971 3.43875 15.1862C2.62792 14.3754 2.00083 13.4508 1.5575 12.4125C1.1025 11.3275 0.875 10.19 0.875 9C0.875 7.81 1.1025 6.6725 1.5575 5.5875C2.00083 4.54917 2.62792 3.62458 3.43875 2.81375C4.24958 2.00292 5.17417 1.37583 6.2125 0.932501C7.2975 0.477499 8.435 0.25 9.625 0.25ZM9.625 2C8.35333 2 7.175 2.32083 6.09 2.9625C5.04 3.58083 4.20583 4.415 3.5875 5.465C2.94583 6.55 2.625 7.72833 2.625 9C2.625 10.2717 2.94583 11.45 3.5875 12.535C4.20583 13.585 5.04 14.4192 6.09 15.0375C7.175 15.6792 8.35333 16 9.625 16C10.8967 16 12.075 15.6792 13.16 15.0375C14.21 14.4192 15.0442 13.585 15.6625 12.535C16.3042 11.45 16.625 10.2717 16.625 9C16.625 7.72833 16.3042 6.55 15.6625 5.465C15.0442 4.415 14.21 3.58083 13.16 2.9625C12.075 2.32083 10.8967 2 9.625 2ZM9.625 8.125C11.375 8.125 12.8333 8.41667 14 9C14 9.79333 13.8046 10.5254 13.4137 11.1962C13.0229 11.8671 12.4921 12.3979 11.8212 12.7888C11.1504 13.1796 10.4183 13.375 9.625 13.375C8.83167 13.375 8.09958 13.1796 7.42875 12.7888C6.75792 12.3979 6.22708 11.8671 5.83625 11.1962C5.44542 10.5254 5.25 9.79333 5.25 9C6.41667 8.41667 7.875 8.125 9.625 8.125ZM6.5625 4.625C7.0875 4.625 7.55125 4.79125 7.95375 5.12375C8.35625 5.45625 8.61 5.87333 8.715 6.375H4.41C4.515 5.87333 4.76875 5.45625 5.17125 5.12375C5.57375 4.79125 6.0375 4.625 6.5625 4.625ZM12.6875 4.625C13.2125 4.625 13.6763 4.79125 14.0787 5.12375C14.4812 5.45625 14.735 5.87333 14.84 6.375H10.535C10.64 5.87333 10.8938 5.45625 11.2963 5.12375C11.6988 4.79125 12.1625 4.625 12.6875 4.625Z" fill="#F59E0B"/>
</svg>
