<svg width="13" height="18" viewBox="0 0 13 18" fill="none" xmlns="http://www.w3.org/2000/svg">
<path d="M2.25 2V16H11V2H2.25ZM1.375 0.25H11.875C12.12 0.25 12.3271 0.334583 12.4963 0.50375C12.6654 0.672916 12.75 0.879999 12.75 1.125V16.875C12.75 17.12 12.6654 17.3271 12.4963 17.4963C12.3271 17.6654 12.12 17.75 11.875 17.75H1.375C1.13 17.75 0.922917 17.6654 0.75375 17.4963C0.584583 17.3271 0.5 17.12 0.5 16.875V1.125C0.5 0.879999 0.584583 0.672916 0.75375 0.50375C0.922917 0.334583 1.13 0.25 1.375 0.25ZM6.625 13.375C6.87 13.375 7.07708 13.4596 7.24625 13.6287C7.41542 13.7979 7.5 14.005 7.5 14.25C7.5 14.495 7.41542 14.7021 7.24625 14.8712C7.07708 15.0404 6.87 15.125 6.625 15.125C6.38 15.125 6.17292 15.0404 6.00375 14.8712C5.83458 14.7021 5.75 14.495 5.75 14.25C5.75 14.005 5.83458 13.7979 6.00375 13.6287C6.17292 13.4596 6.38 13.375 6.625 13.375Z" fill="#22C55E"/>
</svg>
