<svg width="20" height="14" viewBox="0 0 20 14" fill="none" xmlns="http://www.w3.org/2000/svg">
<path d="M14.75 0C15.695 0 16.5758 0.239166 17.3925 0.7175C18.1858 1.18417 18.8158 1.81417 19.2825 2.6075C19.7608 3.42417 20 4.305 20 5.25V8.75C20 9.695 19.7608 10.5758 19.2825 11.3925C18.8158 12.1858 18.1858 12.8158 17.3925 13.2825C16.5758 13.7608 15.695 14 14.75 14H6C5.055 14 4.17417 13.7608 3.3575 13.2825C2.56417 12.8158 1.93417 12.1858 1.4675 11.3925C0.989167 10.5758 0.75 9.695 0.75 8.75V5.25C0.75 4.305 0.989167 3.42417 1.4675 2.6075C1.93417 1.81417 2.56417 1.18417 3.3575 0.7175C4.17417 0.239166 5.055 0 6 0H14.75ZM14.75 1.75H6C5.38167 1.75 4.81292 1.89875 4.29375 2.19625C3.77458 2.49375 3.35458 2.89625 3.03375 3.40375C2.71292 3.91125 2.535 4.46833 2.5 5.075V8.75C2.5 9.36833 2.64875 9.93708 2.94625 10.4562C3.24375 10.9754 3.64625 11.3954 4.15375 11.7162C4.66125 12.0371 5.21833 12.215 5.825 12.25H14.75C15.3683 12.25 15.9371 12.1012 16.4563 11.8038C16.9754 11.5062 17.3954 11.1037 17.7162 10.5963C18.0371 10.0887 18.215 9.53167 18.25 8.925V5.25C18.25 4.63167 18.1012 4.06292 17.8038 3.54375C17.5063 3.02458 17.1038 2.60458 16.5963 2.28375C16.0887 1.96292 15.5317 1.785 14.925 1.75H14.75ZM8.625 4.375V6.125H10.375V7.875H8.625V9.625H6.875V7.875H5.125V6.125H6.875V4.375H8.625ZM15.625 7.875V9.625H13.875V7.875H15.625ZM13.875 4.375V6.125H12.125V4.375H13.875Z" fill="#6366F1"/>
</svg>
