<svg width="17" height="18" viewBox="0 0 17 18" fill="none" xmlns="http://www.w3.org/2000/svg">
<path d="M9.60547 0.25C10.9471 0.25 12.2188 0.541666 13.4205 1.125C14.5755 1.685 15.5671 2.46667 16.3955 3.47L10.848 9L16.3955 14.53C15.5671 15.5333 14.5755 16.315 13.4205 16.875C12.2188 17.4583 10.9471 17.75 9.60547 17.75C8.42714 17.75 7.29547 17.5225 6.21047 17.0675C5.16047 16.6242 4.23297 15.9971 3.42797 15.1862C2.62297 14.3754 1.9988 13.4508 1.55547 12.4125C1.0888 11.3275 0.855469 10.19 0.855469 9C0.855469 7.81 1.0888 6.6725 1.55547 5.5875C1.9988 4.54917 2.62297 3.62458 3.42797 2.81375C4.23297 2.00292 5.16047 1.37583 6.21047 0.932501C7.29547 0.477499 8.42714 0.25 9.60547 0.25ZM9.60547 2C8.34547 2 7.17297 2.32083 6.08797 2.9625C5.0263 3.58083 4.1863 4.415 3.56797 5.465C2.9263 6.55 2.60547 7.72833 2.60547 9C2.60547 10.2717 2.9263 11.45 3.56797 12.535C4.1863 13.585 5.0263 14.4192 6.08797 15.0375C7.17297 15.6792 8.34547 16 9.60547 16C10.3638 16 11.093 15.8863 11.793 15.6588C12.493 15.4313 13.1346 15.1017 13.718 14.67L13.9105 14.53L8.38047 9L13.9105 3.47L13.718 3.33C13.1696 2.92167 12.5688 2.60667 11.9155 2.385C11.2621 2.16333 10.5855 2.035 9.88547 2H9.60547ZM9.60547 2.875C9.96714 2.875 10.2763 3.00333 10.533 3.26C10.7896 3.51667 10.918 3.82583 10.918 4.1875C10.918 4.54917 10.7896 4.85833 10.533 5.115C10.2763 5.37167 9.96714 5.5 9.60547 5.5C9.2438 5.5 8.93464 5.37167 8.67797 5.115C8.4213 4.85833 8.29297 4.54917 8.29297 4.1875C8.29297 3.82583 8.4213 3.51667 8.67797 3.26C8.93464 3.00333 9.2438 2.875 9.60547 2.875Z" fill="#14B8A6"/>
</svg>
