<svg width="20" height="16" viewBox="0 0 20 16" fill="none" xmlns="http://www.w3.org/2000/svg">
<path d="M11 12.3225V14.125H15.375V15.875H4.875V14.125H9.25V12.3225C8.10667 12.1825 7.06833 11.7858 6.135 11.1325C5.20167 10.4792 4.4725 9.65667 3.9475 8.665C3.39917 7.63833 3.125 6.54167 3.125 5.375V0.125H17.125V5.375C17.125 6.54167 16.8508 7.63833 16.3025 8.665C15.7775 9.65667 15.0483 10.4792 14.115 11.1325C13.1817 11.7858 12.1433 12.1825 11 12.3225ZM4.875 1.875V5.375C4.875 6.32 5.11417 7.20083 5.5925 8.0175C6.05917 8.81083 6.68917 9.44083 7.4825 9.9075C8.29917 10.3858 9.18 10.625 10.125 10.625C11.07 10.625 11.9508 10.3858 12.7675 9.9075C13.5608 9.44083 14.1908 8.81083 14.6575 8.0175C15.1358 7.20083 15.375 6.32 15.375 5.375V1.875H4.875ZM0.5 1.875H2.25V5.375H0.5V1.875ZM18 1.875H19.75V5.375H18V1.875Z" fill="#F97316"/>
</svg>
