<svg width="19" height="18" viewBox="0 0 19 18" fill="none" xmlns="http://www.w3.org/2000/svg">
<path d="M9.375 16H16.375V17.75H9.375C8.185 17.75 7.0475 17.5225 5.9625 17.0675C4.92417 16.6242 3.99958 15.9971 3.18875 15.1862C2.37792 14.3754 1.75083 13.4508 1.3075 12.4125C0.8525 11.3275 0.625 10.19 0.625 9C0.625 7.81 0.8525 6.6725 1.3075 5.5875C1.75083 4.54917 2.37792 3.62458 3.18875 2.81375C3.99958 2.00292 4.92417 1.37583 5.9625 0.932501C7.0475 0.477499 8.185 0.25 9.375 0.25C10.565 0.25 11.7025 0.477499 12.7875 0.932501C13.8258 1.37583 14.7504 2.00292 15.5612 2.81375C16.3721 3.62458 16.9992 4.54917 17.4425 5.5875C17.8975 6.6725 18.125 7.81 18.125 9C18.125 9.96833 17.9733 10.9075 17.67 11.8175C17.3667 12.6925 16.935 13.5033 16.375 14.25H14.0125C14.7475 13.5967 15.3192 12.8208 15.7275 11.9225C16.1592 11.0008 16.375 10.0267 16.375 9C16.375 7.72833 16.0542 6.55 15.4125 5.465C14.7942 4.415 13.96 3.58083 12.91 2.9625C11.825 2.32083 10.6467 2 9.375 2C8.10333 2 6.925 2.32083 5.84 2.9625C4.79 3.58083 3.95583 4.415 3.3375 5.465C2.69583 6.55 2.375 7.72833 2.375 9C2.375 10.2717 2.69583 11.45 3.3375 12.535C3.95583 13.585 4.79 14.4192 5.84 15.0375C6.925 15.6792 8.10333 16 9.375 16ZM9.375 7.25C9.06 7.25 8.76833 7.17125 8.5 7.01375C8.23167 6.85625 8.01875 6.64333 7.86125 6.375C7.70375 6.10667 7.625 5.815 7.625 5.5C7.625 5.185 7.70375 4.89333 7.86125 4.625C8.01875 4.35667 8.23167 4.14375 8.5 3.98625C8.76833 3.82875 9.06 3.75 9.375 3.75C9.69 3.75 9.98167 3.82875 10.25 3.98625C10.5183 4.14375 10.7312 4.35667 10.8888 4.625C11.0463 4.89333 11.125 5.185 11.125 5.5C11.125 5.815 11.0463 6.10667 10.8888 6.375C10.7312 6.64333 10.5183 6.85625 10.25 7.01375C9.98167 7.17125 9.69 7.25 9.375 7.25ZM5.875 10.75C5.56 10.75 5.26833 10.6712 5 10.5138C4.73167 10.3562 4.51875 10.1433 4.36125 9.875C4.20375 9.60667 4.125 9.315 4.125 9C4.125 8.685 4.20375 8.39333 4.36125 8.125C4.51875 7.85667 4.73167 7.64375 5 7.48625C5.26833 7.32875 5.56 7.25 5.875 7.25C6.19 7.25 6.48167 7.32875 6.75 7.48625C7.01833 7.64375 7.23125 7.85667 7.38875 8.125C7.54625 8.39333 7.625 8.685 7.625 9C7.625 9.315 7.54625 9.60667 7.38875 9.875C7.23125 10.1433 7.01833 10.3562 6.75 10.5138C6.48167 10.6712 6.19 10.75 5.875 10.75ZM12.875 10.75C12.56 10.75 12.2683 10.6712 12 10.5138C11.7317 10.3562 11.5188 10.1433 11.3612 9.875C11.2037 9.60667 11.125 9.315 11.125 9C11.125 8.685 11.2037 8.39333 11.3612 8.125C11.5188 7.85667 11.7317 7.64375 12 7.48625C12.2683 7.32875 12.56 7.25 12.875 7.25C13.19 7.25 13.4817 7.32875 13.75 7.48625C14.0183 7.64375 14.2312 7.85667 14.3888 8.125C14.5463 8.39333 14.625 8.685 14.625 9C14.625 9.315 14.5463 9.60667 14.3888 9.875C14.2312 10.1433 14.0183 10.3562 13.75 10.5138C13.4817 10.6712 13.19 10.75 12.875 10.75ZM9.375 14.25C9.06 14.25 8.76833 14.1712 8.5 14.0138C8.23167 13.8563 8.01875 13.6433 7.86125 13.375C7.70375 13.1067 7.625 12.815 7.625 12.5C7.625 12.185 7.70375 11.8933 7.86125 11.625C8.01875 11.3567 8.23167 11.1438 8.5 10.9862C8.76833 10.8288 9.06 10.75 9.375 10.75C9.69 10.75 9.98167 10.8288 10.25 10.9862C10.5183 11.1438 10.7312 11.3567 10.8888 11.625C11.0463 11.8933 11.125 12.185 11.125 12.5C11.125 12.815 11.0463 13.1067 10.8888 13.375C10.7312 13.6433 10.5183 13.8563 10.25 14.0138C9.98167 14.1712 9.69 14.25 9.375 14.25Z" fill="#EF4444"/>
</svg>
