<svg width="18" height="16" viewBox="0 0 18 16" fill="none" xmlns="http://www.w3.org/2000/svg">
<path d="M0.375 1C0.375 0.755 0.459583 0.547916 0.62875 0.37875C0.797917 0.209583 1.005 0.125 1.25 0.125H17C17.245 0.125 17.4521 0.209583 17.6213 0.37875C17.7904 0.547916 17.875 0.755 17.875 1V15C17.875 15.245 17.7904 15.4521 17.6213 15.6213C17.4521 15.7904 17.245 15.875 17 15.875H1.25C1.005 15.875 0.797917 15.7904 0.62875 15.6213C0.459583 15.4521 0.375 15.245 0.375 15V1ZM5.625 1.875V14.125H12.625V1.875H5.625ZM2.125 1.875V3.625H3.875V1.875H2.125ZM14.375 1.875V3.625H16.125V1.875H14.375ZM2.125 5.375V7.125H3.875V5.375H2.125ZM14.375 5.375V7.125H16.125V5.375H14.375ZM2.125 8.875V10.625H3.875V8.875H2.125ZM14.375 8.875V10.625H16.125V8.875H14.375ZM2.125 12.375V14.125H3.875V12.375H2.125ZM14.375 12.375V14.125H16.125V12.375H14.375Z" fill="#3B82F6"/>
</svg>
