<svg width="18" height="16" viewBox="0 0 18 16" fill="none" xmlns="http://www.w3.org/2000/svg">
<path d="M0.125 1C0.125 0.755 0.209583 0.547916 0.37875 0.37875C0.547917 0.209583 0.755 0.125 1 0.125H16.75C16.995 0.125 17.2021 0.209583 17.3713 0.37875C17.5404 0.547916 17.625 0.755 17.625 1V15C17.625 15.245 17.5404 15.4521 17.3713 15.6213C17.2021 15.7904 16.995 15.875 16.75 15.875H1C0.755 15.875 0.547917 15.7904 0.37875 15.6213C0.209583 15.4521 0.125 15.245 0.125 15V1ZM1.875 1.875V14.125H15.875V1.875H1.875ZM7.6675 4.8675L11.9375 7.7025C12.0192 7.76083 12.0688 7.83667 12.0863 7.93C12.1038 8.02333 12.0892 8.11083 12.0425 8.1925C12.0075 8.2275 11.9725 8.2625 11.9375 8.2975L7.6675 11.1325C7.58583 11.1908 7.49833 11.2112 7.405 11.1937C7.31167 11.1762 7.23583 11.1267 7.1775 11.045C7.1425 10.9867 7.125 10.9225 7.125 10.8525V5.1475C7.125 5.05417 7.16 4.9725 7.23 4.9025C7.3 4.8325 7.38167 4.7975 7.475 4.7975C7.545 4.7975 7.60917 4.82083 7.6675 4.8675Z" fill="#EAB308"/>
</svg>
