<svg width="19" height="16" viewBox="0 0 19 16" fill="none" xmlns="http://www.w3.org/2000/svg">
<path d="M4.375 3.625L6.3875 0.125H9.625L7.595 3.625H4.375ZM9.625 3.625L11.6375 0.125H14.875L12.845 3.625H9.625ZM14.875 3.625L16.8875 0.125H17.5C17.745 0.125 17.9521 0.209583 18.1213 0.37875C18.2904 0.547916 18.375 0.755 18.375 1V15C18.375 15.245 18.2904 15.4521 18.1213 15.6213C17.9521 15.7904 17.745 15.875 17.5 15.875H1.75C1.505 15.875 1.29792 15.7904 1.12875 15.6213C0.959583 15.4521 0.875 15.245 0.875 15V1C0.875 0.755 0.959583 0.547916 1.12875 0.37875C1.29792 0.209583 1.505 0.125 1.75 0.125H4.375L2.625 3.1525V14.125H16.625V3.625H14.875Z" fill="#6366F1"/>
</svg>
