<svg width="19" height="16" viewBox="0 0 19 16" fill="none" xmlns="http://www.w3.org/2000/svg">
<path d="M0.625 1C0.625 0.755 0.709583 0.547916 0.87875 0.37875C1.04792 0.209583 1.255 0.125 1.5 0.125H17.25C17.495 0.125 17.7021 0.209583 17.8713 0.37875C18.0404 0.547916 18.125 0.755 18.125 1V15C18.125 15.245 18.0404 15.4521 17.8713 15.6213C17.7021 15.7904 17.495 15.875 17.25 15.875H1.5C1.255 15.875 1.04792 15.7904 0.87875 15.6213C0.709583 15.4521 0.625 15.245 0.625 15V1ZM5.875 1.875V14.125H12.875V1.875H5.875ZM2.375 1.875V3.625H4.125V1.875H2.375ZM14.625 1.875V3.625H16.375V1.875H14.625ZM2.375 5.375V7.125H4.125V5.375H2.375ZM14.625 5.375V7.125H16.375V5.375H14.625ZM2.375 8.875V10.625H4.125V8.875H2.375ZM14.625 8.875V10.625H16.375V8.875H14.625ZM2.375 12.375V14.125H4.125V12.375H2.375ZM14.625 12.375V14.125H16.375V12.375H14.625Z" fill="#8B5CF6"/>
</svg>
