<svg width="15" height="20" viewBox="0 0 15 20" fill="none" xmlns="http://www.w3.org/2000/svg">
<path d="M11.5 13.0099V19.0124C11.5 19.1407 11.4563 19.2457 11.3687 19.3274C11.2812 19.4091 11.1792 19.4499 11.0625 19.4499C10.9808 19.4499 10.905 19.4324 10.835 19.3974L7.125 17.1749L3.415 19.3974C3.31 19.4557 3.19917 19.4703 3.0825 19.4412C2.96583 19.412 2.87833 19.3449 2.82 19.2399C2.77333 19.1699 2.75 19.0941 2.75 19.0124V13.0099C1.93333 12.3566 1.2975 11.5632 0.8425 10.6299C0.364167 9.66158 0.125 8.63492 0.125 7.54992C0.125 6.27825 0.445833 5.09992 1.0875 4.01492C1.70583 2.95325 2.54 2.11325 3.59 1.49492C4.675 0.864916 5.85333 0.549915 7.125 0.549915C8.39667 0.549915 9.575 0.864916 10.66 1.49492C11.71 2.11325 12.5442 2.95325 13.1625 4.01492C13.8042 5.09992 14.125 6.27825 14.125 7.54992C14.125 8.63492 13.8858 9.66158 13.4075 10.6299C12.9525 11.5632 12.3167 12.3566 11.5 13.0099ZM4.5 14.0249V16.7024L7.125 15.1274L9.75 16.7024V14.0249C8.91 14.3749 8.035 14.5499 7.125 14.5499C6.215 14.5499 5.34 14.3807 4.5 14.0424V14.0249ZM7.125 12.7999C8.07 12.7999 8.95083 12.5607 9.7675 12.0824C10.5608 11.6157 11.1908 10.9858 11.6575 10.1924C12.1358 9.37575 12.375 8.492 12.375 7.54117C12.375 6.59033 12.1358 5.70658 11.6575 4.88992C11.1908 4.09658 10.5608 3.47242 9.7675 3.01742C8.95083 2.53908 8.07 2.29992 7.125 2.29992C6.18 2.29992 5.29917 2.53908 4.4825 3.01742C3.68917 3.47242 3.05917 4.09658 2.5925 4.88992C2.11417 5.70658 1.875 6.59033 1.875 7.54117C1.875 8.492 2.11417 9.37575 2.5925 10.1924C3.05917 10.9858 3.68917 11.6157 4.4825 12.0824C5.29917 12.5607 6.18 12.7999 7.125 12.7999Z" fill="#A855F7"/>
</svg>
