<svg width="18" height="18" viewBox="0 0 18 18" fill="none" xmlns="http://www.w3.org/2000/svg">
<path d="M8.875 17.75C7.685 17.75 6.5475 17.5225 5.4625 17.0675C4.42417 16.6242 3.49958 15.9971 2.68875 15.1862C1.87792 14.3754 1.25083 13.4508 0.8075 12.4125C0.3525 11.3275 0.125 10.19 0.125 9C0.125 7.81 0.3525 6.6725 0.8075 5.5875C1.25083 4.54917 1.87792 3.62458 2.68875 2.81375C3.49958 2.00292 4.42417 1.37583 5.4625 0.932501C6.5475 0.477499 7.685 0.25 8.875 0.25C10.065 0.25 11.2025 0.477499 12.2875 0.932501C13.3258 1.37583 14.2504 2.00292 15.0612 2.81375C15.8721 3.62458 16.4992 4.54917 16.9425 5.5875C17.3975 6.6725 17.625 7.81 17.625 9C17.625 10.19 17.3975 11.3275 16.9425 12.4125C16.4992 13.4508 15.8721 14.3754 15.0612 15.1862C14.2504 15.9971 13.3258 16.6242 12.2875 17.0675C11.2025 17.5225 10.065 17.75 8.875 17.75ZM8.875 16C10.1467 16 11.325 15.6792 12.41 15.0375C13.46 14.4192 14.2942 13.585 14.9125 12.535C15.5542 11.45 15.875 10.2717 15.875 9C15.875 7.72833 15.5542 6.55 14.9125 5.465C14.2942 4.415 13.46 3.58083 12.41 2.9625C11.325 2.32083 10.1467 2 8.875 2C7.60333 2 6.425 2.32083 5.34 2.9625C4.29 3.58083 3.45583 4.415 2.8375 5.465C2.19583 6.55 1.875 7.72833 1.875 9C1.875 10.2717 2.19583 11.45 2.8375 12.535C3.45583 13.585 4.29 14.4192 5.34 15.0375C6.425 15.6792 7.60333 16 8.875 16Z" fill="#EF4444"/>
</svg>
