<svg width="17" height="18" viewBox="0 0 17 18" fill="none" xmlns="http://www.w3.org/2000/svg">
<path d="M16.5 14.25H3.375C3.13 14.25 2.92292 14.3346 2.75375 14.5038C2.58458 14.6729 2.5 14.88 2.5 15.125C2.5 15.37 2.58458 15.5771 2.75375 15.7462C2.92292 15.9154 3.13 16 3.375 16H16.5V17.75H3.375C2.89667 17.75 2.45625 17.6333 2.05375 17.4C1.65125 17.1667 1.33333 16.8487 1.1 16.4462C0.866667 16.0438 0.75 15.6033 0.75 15.125V2C0.75 1.685 0.82875 1.39333 0.98625 1.125C1.14375 0.856667 1.35667 0.643749 1.625 0.48625C1.89333 0.328751 2.185 0.25 2.5 0.25H16.5V14.25ZM2.5 12.535C2.64 12.5117 2.78583 12.5 2.9375 12.5H14.75V2H2.5V12.535ZM12.125 6.375H5.125V4.625H12.125V6.375Z" fill="#F97316"/>
</svg>
