<svg width="19" height="18" viewBox="0 0 19 18" fill="none" xmlns="http://www.w3.org/2000/svg">
<path d="M9.375 17.75C8.185 17.75 7.0475 17.5225 5.9625 17.0675C4.92417 16.6242 3.99958 15.9971 3.18875 15.1862C2.37792 14.3754 1.75083 13.4508 1.3075 12.4125C0.8525 11.3275 0.625 10.19 0.625 9C0.625 7.81 0.8525 6.6725 1.3075 5.5875C1.75083 4.54917 2.37792 3.62458 3.18875 2.81375C3.99958 2.00292 4.92417 1.37583 5.9625 0.932501C7.0475 0.477499 8.185 0.25 9.375 0.25C10.565 0.25 11.7025 0.477499 12.7875 0.932501C13.8258 1.37583 14.7504 2.00292 15.5612 2.81375C16.3721 3.62458 16.9992 4.54917 17.4425 5.5875C17.8975 6.6725 18.125 7.81 18.125 9C18.125 10.19 17.8975 11.3275 17.4425 12.4125C16.9992 13.4508 16.3721 14.3754 15.5612 15.1862C14.7504 15.9971 13.8258 16.6242 12.7875 17.0675C11.7025 17.5225 10.565 17.75 9.375 17.75ZM7.38 15.7025C6.505 13.8592 6.00917 11.9167 5.8925 9.875H2.4275C2.54417 10.785 2.82708 11.6367 3.27625 12.43C3.72542 13.2233 4.30292 13.9029 5.00875 14.4688C5.71458 15.0346 6.505 15.4458 7.38 15.7025ZM7.66 9.875C7.78833 11.975 8.36 13.9467 9.375 15.79C10.39 13.9467 10.9617 11.975 11.09 9.875H7.66ZM16.3225 9.875H12.8575C12.7408 11.9167 12.2508 13.8592 11.3875 15.7025C12.2508 15.4458 13.0354 15.0346 13.7413 14.4688C14.4471 13.9029 15.0246 13.2233 15.4738 12.43C15.9229 11.6367 16.2058 10.785 16.3225 9.875ZM2.4275 8.125H5.8925C6.00917 6.08333 6.505 4.14083 7.38 2.2975C6.505 2.55417 5.71458 2.96542 5.00875 3.53125C4.30292 4.09708 3.72542 4.77667 3.27625 5.57C2.82708 6.36333 2.54417 7.215 2.4275 8.125ZM7.66 8.125H11.09C10.9617 6.025 10.39 4.05333 9.375 2.21C8.36 4.05333 7.78833 6.025 7.66 8.125ZM11.3875 2.2975C12.2508 4.14083 12.7408 6.08333 12.8575 8.125H16.3225C16.2058 7.215 15.9229 6.36333 15.4738 5.57C15.0246 4.77667 14.4471 4.09708 13.7413 3.53125C13.0354 2.96542 12.2508 2.55417 11.3875 2.2975Z" fill="#6366F1"/>
</svg>
