<svg width="18" height="18" viewBox="0 0 18 18" fill="none" xmlns="http://www.w3.org/2000/svg">
<path d="M9.125 16H16.125V17.75H9.125C7.935 17.75 6.7975 17.5225 5.7125 17.0675C4.67417 16.6242 3.74958 15.9971 2.93875 15.1862C2.12792 14.3754 1.50083 13.4508 1.0575 12.4125C0.6025 11.3275 0.375 10.19 0.375 9C0.375 7.81 0.6025 6.6725 1.0575 5.5875C1.50083 4.54917 2.12792 3.62458 2.93875 2.81375C3.74958 2.00292 4.67417 1.37583 5.7125 0.932501C6.7975 0.477499 7.935 0.25 9.125 0.25C10.315 0.25 11.4525 0.477499 12.5375 0.932501C13.5758 1.37583 14.5004 2.00292 15.3112 2.81375C16.1221 3.62458 16.7492 4.54917 17.1925 5.5875C17.6475 6.6725 17.875 7.81 17.875 9C17.875 9.96833 17.7233 10.9075 17.42 11.8175C17.1167 12.6925 16.685 13.5033 16.125 14.25H13.7625C14.4975 13.5967 15.0692 12.8208 15.4775 11.9225C15.9092 11.0008 16.125 10.0267 16.125 9C16.125 7.72833 15.8042 6.55 15.1625 5.465C14.5442 4.415 13.71 3.58083 12.66 2.9625C11.575 2.32083 10.3967 2 9.125 2C7.85333 2 6.675 2.32083 5.59 2.9625C4.54 3.58083 3.70583 4.415 3.0875 5.465C2.44583 6.55 2.125 7.72833 2.125 9C2.125 10.2717 2.44583 11.45 3.0875 12.535C3.70583 13.585 4.54 14.4192 5.59 15.0375C6.675 15.6792 7.85333 16 9.125 16ZM9.125 7.25C8.81 7.25 8.51833 7.17125 8.25 7.01375C7.98167 6.85625 7.76875 6.64333 7.61125 6.375C7.45375 6.10667 7.375 5.815 7.375 5.5C7.375 5.185 7.45375 4.89333 7.61125 4.625C7.76875 4.35667 7.98167 4.14375 8.25 3.98625C8.51833 3.82875 8.81 3.75 9.125 3.75C9.44 3.75 9.73167 3.82875 10 3.98625C10.2683 4.14375 10.4812 4.35667 10.6388 4.625C10.7963 4.89333 10.875 5.185 10.875 5.5C10.875 5.815 10.7963 6.10667 10.6388 6.375C10.4812 6.64333 10.2683 6.85625 10 7.01375C9.73167 7.17125 9.44 7.25 9.125 7.25ZM5.625 10.75C5.31 10.75 5.01833 10.6712 4.75 10.5138C4.48167 10.3562 4.26875 10.1433 4.11125 9.875C3.95375 9.60667 3.875 9.315 3.875 9C3.875 8.685 3.95375 8.39333 4.11125 8.125C4.26875 7.85667 4.48167 7.64375 4.75 7.48625C5.01833 7.32875 5.31 7.25 5.625 7.25C5.94 7.25 6.23167 7.32875 6.5 7.48625C6.76833 7.64375 6.98125 7.85667 7.13875 8.125C7.29625 8.39333 7.375 8.685 7.375 9C7.375 9.315 7.29625 9.60667 7.13875 9.875C6.98125 10.1433 6.76833 10.3562 6.5 10.5138C6.23167 10.6712 5.94 10.75 5.625 10.75ZM12.625 10.75C12.31 10.75 12.0183 10.6712 11.75 10.5138C11.4817 10.3562 11.2688 10.1433 11.1112 9.875C10.9537 9.60667 10.875 9.315 10.875 9C10.875 8.685 10.9537 8.39333 11.1112 8.125C11.2688 7.85667 11.4817 7.64375 11.75 7.48625C12.0183 7.32875 12.31 7.25 12.625 7.25C12.94 7.25 13.2317 7.32875 13.5 7.48625C13.7683 7.64375 13.9812 7.85667 14.1388 8.125C14.2963 8.39333 14.375 8.685 14.375 9C14.375 9.315 14.2963 9.60667 14.1388 9.875C13.9812 10.1433 13.7683 10.3562 13.5 10.5138C13.2317 10.6712 12.94 10.75 12.625 10.75ZM9.125 14.25C8.81 14.25 8.51833 14.1712 8.25 14.0138C7.98167 13.8563 7.76875 13.6433 7.61125 13.375C7.45375 13.1067 7.375 12.815 7.375 12.5C7.375 12.185 7.45375 11.8933 7.61125 11.625C7.76875 11.3567 7.98167 11.1438 8.25 10.9862C8.51833 10.8288 8.81 10.75 9.125 10.75C9.44 10.75 9.73167 10.8288 10 10.9862C10.2683 11.1438 10.4812 11.3567 10.6388 11.625C10.7963 11.8933 10.875 12.185 10.875 12.5C10.875 12.815 10.7963 13.1067 10.6388 13.375C10.4812 13.6433 10.2683 13.8563 10 14.0138C9.73167 14.1712 9.44 14.25 9.125 14.25Z" fill="#A855F7"/>
</svg>
