<svg width="18" height="18" viewBox="0 0 18 18" fill="none" xmlns="http://www.w3.org/2000/svg">
<path d="M0.125 1.5625C0.125 1.3175 0.209583 1.11042 0.37875 0.94125C0.547917 0.772083 0.755 0.6875 1 0.6875H16.75C16.995 0.6875 17.2021 0.772083 17.3713 0.94125C17.5404 1.11042 17.625 1.3175 17.625 1.5625V13.8125C17.625 14.0575 17.5404 14.2646 17.3713 14.4337C17.2021 14.6029 16.995 14.6875 16.75 14.6875H1C0.755 14.6875 0.547917 14.6029 0.37875 14.4337C0.209583 14.2646 0.125 14.0575 0.125 13.8125V1.5625ZM1.875 2.4375V12.9375H15.875V2.4375H1.875ZM2.75 15.5625H15V17.3125H2.75V15.5625Z" fill="#06B6D4"/>
</svg>
