<svg width="19" height="18" viewBox="0 0 19 18" fill="none" xmlns="http://www.w3.org/2000/svg">
<path d="M9.375 0.25C10.565 0.25 11.7025 0.477499 12.7875 0.932501C13.8258 1.37583 14.7504 2.00292 15.5612 2.81375C16.3721 3.62458 16.9992 4.54917 17.4425 5.5875C17.8975 6.6725 18.125 7.81 18.125 9C18.125 10.19 17.8975 11.3275 17.4425 12.4125C16.9992 13.4508 16.3721 14.3754 15.5612 15.1862C14.7504 15.9971 13.8258 16.6242 12.7875 17.0675C11.7025 17.5225 10.565 17.75 9.375 17.75C8.185 17.75 7.0475 17.5225 5.9625 17.0675C4.92417 16.6242 3.99958 15.9971 3.18875 15.1862C2.37792 14.3754 1.75083 13.4508 1.3075 12.4125C0.8525 11.3275 0.625 10.19 0.625 9C0.625 7.81 0.8525 6.6725 1.3075 5.5875C1.75083 4.54917 2.37792 3.62458 3.18875 2.81375C3.99958 2.00292 4.92417 1.37583 5.9625 0.932501C7.0475 0.477499 8.185 0.25 9.375 0.25ZM10.8275 12.5H7.905L6.715 14.1625L7.1875 15.65C7.89917 15.8833 8.62833 16 9.375 16C10.1217 16 10.8508 15.8833 11.5625 15.65L12.035 14.1625L10.8275 12.5ZM3.5125 8.02L2.375 8.825V9C2.375 9.74667 2.48583 10.4642 2.7075 11.1525C2.92917 11.8408 3.25 12.4767 3.67 13.06H5.35L6.505 11.4675L5.595 8.685L3.5125 8.02ZM15.2375 8.02L13.155 8.685L12.245 11.4675L13.4 13.06H15.08C15.5 12.4767 15.8208 11.8408 16.0425 11.1525C16.2642 10.4642 16.375 9.74667 16.375 9V8.825L15.2375 8.02ZM9.375 6.8475L7.3275 8.335L8.115 10.75H10.635L11.4225 8.335L9.375 6.8475ZM11.3875 2.2975L10.25 3.12V5.3075L12.6125 7.0225L14.5725 6.3925L15.045 4.905C14.6017 4.28667 14.065 3.75292 13.435 3.30375C12.805 2.85458 12.1225 2.51917 11.3875 2.2975ZM7.3625 2.2975C6.6275 2.51917 5.945 2.85458 5.315 3.30375C4.685 3.75292 4.14833 4.28667 3.705 4.905L4.1775 6.3925L6.1375 7.0225L8.5 5.3075V3.12L7.3625 2.2975Z" fill="#22C55E"/>
</svg>
