<svg width="19" height="18" viewBox="0 0 19 18" fill="none" xmlns="http://www.w3.org/2000/svg">
<path d="M9.375 17.75C8.185 17.75 7.0475 17.5225 5.9625 17.0675C4.92417 16.6242 3.99958 15.9971 3.18875 15.1862C2.37792 14.3754 1.75083 13.4508 1.3075 12.4125C0.8525 11.3275 0.625 10.19 0.625 9C0.625 7.81 0.8525 6.6725 1.3075 5.5875C1.75083 4.54917 2.37792 3.62458 3.18875 2.81375C3.99958 2.00292 4.92417 1.37583 5.9625 0.932501C7.0475 0.477499 8.185 0.25 9.375 0.25C10.565 0.25 11.7025 0.477499 12.7875 0.932501C13.8258 1.37583 14.7504 2.00292 15.5612 2.81375C16.3721 3.62458 16.9992 4.54917 17.4425 5.5875C17.8975 6.6725 18.125 7.81 18.125 9C18.125 10.19 17.8975 11.3275 17.4425 12.4125C16.9992 13.4508 16.3721 14.3754 15.5612 15.1862C14.7504 15.9971 13.8258 16.6242 12.7875 17.0675C11.7025 17.5225 10.565 17.75 9.375 17.75ZM9.375 16C10.6467 16 11.825 15.6792 12.91 15.0375C13.96 14.4192 14.7942 13.585 15.4125 12.535C16.0542 11.45 16.375 10.2717 16.375 9C16.375 7.72833 16.0542 6.55 15.4125 5.465C14.7942 4.415 13.96 3.58083 12.91 2.9625C11.825 2.32083 10.6467 2 9.375 2C8.10333 2 6.925 2.32083 5.84 2.9625C4.79 3.58083 3.95583 4.415 3.3375 5.465C2.69583 6.55 2.375 7.72833 2.375 9C2.375 10.2717 2.69583 11.45 3.3375 12.535C3.95583 13.585 4.79 14.4192 5.84 15.0375C6.925 15.6792 8.10333 16 9.375 16Z" fill="#EF4444"/>
</svg>
