<svg width="18" height="18" viewBox="0 0 18 18" fill="none" xmlns="http://www.w3.org/2000/svg">
<path d="M8.875 0.25C10.065 0.25 11.2025 0.477499 12.2875 0.932501C13.3258 1.37583 14.2504 2.00292 15.0612 2.81375C15.8721 3.62458 16.4992 4.54917 16.9425 5.5875C17.3975 6.6725 17.625 7.81 17.625 9C17.625 10.19 17.3975 11.3275 16.9425 12.4125C16.4992 13.4508 15.8721 14.3754 15.0612 15.1862C14.2504 15.9971 13.3258 16.6242 12.2875 17.0675C11.2025 17.5225 10.065 17.75 8.875 17.75C7.685 17.75 6.5475 17.5225 5.4625 17.0675C4.42417 16.6242 3.49958 15.9971 2.68875 15.1862C1.87792 14.3754 1.25083 13.4508 0.8075 12.4125C0.3525 11.3275 0.125 10.19 0.125 9C0.125 7.81 0.3525 6.6725 0.8075 5.5875C1.25083 4.54917 1.87792 3.62458 2.68875 2.81375C3.49958 2.00292 4.42417 1.37583 5.4625 0.932501C6.5475 0.477499 7.685 0.25 8.875 0.25ZM9.19 10.19L6.1625 15.4575C7.02583 15.8192 7.93 16 8.875 16C9.27167 16 9.66833 15.965 10.065 15.895C9.94833 15.09 9.94542 14.2792 10.0562 13.4625C10.1671 12.6458 10.3975 11.8583 10.7475 11.1L9.19 10.19ZM12.27 11.975C11.815 13.06 11.6458 14.1975 11.7625 15.3875C12.8358 14.8975 13.7342 14.18 14.4575 13.235L12.27 11.975ZM6.1275 8.4225C5.6375 9.09917 5.06875 9.69125 4.42125 10.1988C3.77375 10.7063 3.07083 11.1117 2.3125 11.415C2.54583 12.045 2.86083 12.6283 3.2575 13.165C3.65417 13.7017 4.115 14.1742 4.64 14.5825L7.685 9.315L6.1275 8.4225ZM15.84 8.3175L15.6125 8.4225C14.6325 8.90083 13.81 9.5775 13.145 10.4525L15.3325 11.7125C15.6942 10.8492 15.875 9.945 15.875 9C15.875 8.76667 15.8633 8.53917 15.84 8.3175ZM1.875 9C1.875 9.23333 1.88667 9.46083 1.91 9.6825C2.995 9.20417 3.89333 8.4925 4.605 7.5475L2.4175 6.2875C2.05583 7.15083 1.875 8.055 1.875 9ZM13.11 3.4175L10.065 8.685L11.6225 9.5775C12.1125 8.90083 12.6812 8.30875 13.3287 7.80125C13.9762 7.29375 14.6792 6.8825 15.4375 6.5675C15.0058 5.38917 14.3 4.3975 13.32 3.5925L13.11 3.4175ZM8.875 2C8.47833 2 8.08167 2.035 7.685 2.105C7.80167 2.91 7.80458 3.72083 7.69375 4.5375C7.58292 5.35417 7.3525 6.14167 7.0025 6.9L8.56 7.81L11.5875 2.5425C10.7242 2.18083 9.82 2 8.875 2ZM5.9875 2.6125L5.83 2.7C4.815 3.19 3.96917 3.87833 3.2925 4.765L5.48 6.025C5.935 4.94 6.10417 3.8025 5.9875 2.6125Z" fill="#F97316"/>
</svg>
