<svg width="21" height="22" viewBox="0 0 21 22" fill="none" xmlns="http://www.w3.org/2000/svg">
<path d="M2.32859 9.83333H18.6561V2.83333H2.32859V9.83333ZM20.9886 1.66667V20.3333C20.9886 20.66 20.8759 20.9361 20.6504 21.1617C20.4249 21.3872 20.1489 21.5 19.8223 21.5H1.16234C0.835794 21.5 0.559781 21.3872 0.334306 21.1617C0.108831 20.9361 -0.00390625 20.66 -0.00390625 20.3333V1.66667C-0.00390625 1.34 0.108831 1.06389 0.334306 0.838333C0.559781 0.612778 0.835794 0.5 1.16234 0.5H19.8223C20.1489 0.5 20.4249 0.612778 20.6504 0.838333C20.8759 1.06389 20.9886 1.34 20.9886 1.66667ZM18.6561 12.1667H2.32859V19.1667H18.6561V12.1667ZM4.66109 14.5H8.15984V16.8333H4.66109V14.5ZM4.66109 5.16667H8.15984V7.5H4.66109V5.16667Z" fill="#10B981"/>
</svg>
