<svg width="15" height="20" viewBox="0 0 15 20" fill="none" xmlns="http://www.w3.org/2000/svg">
<path d="M7.375 5.1875C8.64667 5.1875 9.825 5.50833 10.91 6.15C11.96 6.76833 12.7942 7.6025 13.4125 8.6525C14.0542 9.7375 14.375 10.9158 14.375 12.1875C14.375 13.4592 14.0542 14.6375 13.4125 15.7225C12.7942 16.7725 11.96 17.6067 10.91 18.225C9.825 18.8667 8.64667 19.1875 7.375 19.1875C6.10333 19.1875 4.925 18.8667 3.84 18.225C2.79 17.6067 1.95583 16.7725 1.3375 15.7225C0.695833 14.6375 0.375 13.4592 0.375 12.1875C0.375 10.9158 0.695833 9.7375 1.3375 8.6525C1.95583 7.6025 2.79 6.76833 3.84 6.15C4.925 5.50833 6.10333 5.1875 7.375 5.1875ZM7.375 6.9375C6.43 6.9375 5.54917 7.17667 4.7325 7.655C3.93917 8.12167 3.30917 8.75167 2.8425 9.545C2.36417 10.3617 2.125 11.2454 2.125 12.1962C2.125 13.1471 2.36417 14.025 2.8425 14.83C3.30917 15.6233 3.93917 16.2533 4.7325 16.72C5.54917 17.1983 6.43 17.4375 7.375 17.4375C8.32 17.4375 9.20083 17.1983 10.0175 16.72C10.8108 16.2533 11.4408 15.6233 11.9075 14.83C12.3858 14.025 12.625 13.1471 12.625 12.1962C12.625 11.2454 12.3858 10.3617 11.9075 9.545C11.4408 8.75167 10.8108 8.12167 10.0175 7.655C9.20083 7.17667 8.32 6.9375 7.375 6.9375ZM7.375 8.25L8.53 10.595L11.12 10.9625L9.2475 12.8L9.685 15.3725L7.375 14.165L5.065 15.3725L5.5025 12.8L3.63 10.9625L6.22 10.595L7.375 8.25ZM12.625 0.8125V3.4375L11.435 4.435C10.4317 3.91 9.37 3.58917 8.25 3.4725V0.8125H12.625ZM6.5 0.8125V3.4725C5.38 3.58917 4.31833 3.91 3.315 4.435L2.125 3.4375V0.8125H6.5Z" fill="#EF4444"/>
</svg>
