<svg width="17" height="24" viewBox="0 0 17 24" fill="none" xmlns="http://www.w3.org/2000/svg">
<path d="M2.66062 2.66663V21.3333H14.3231V2.66663H2.66062ZM1.49437 0.333293H15.4894C15.8159 0.333293 16.0919 0.44607 16.3174 0.671626C16.5429 0.897181 16.6556 1.17329 16.6556 1.49996V22.5C16.6556 22.8266 16.5429 23.1027 16.3174 23.3283C16.0919 23.5538 15.8159 23.6666 15.4894 23.6666H1.49437C1.16782 23.6666 0.891813 23.5538 0.666337 23.3283C0.440862 23.1027 0.328125 22.8266 0.328125 22.5V1.49996C0.328125 1.17329 0.440862 0.897181 0.666337 0.671626C0.891813 0.44607 1.16782 0.333293 1.49437 0.333293ZM8.49187 17.8333C8.81842 17.8333 9.09444 17.9461 9.31991 18.1716C9.54539 18.3972 9.65812 18.6733 9.65812 19C9.65812 19.3266 9.54539 19.6027 9.31991 19.8283C9.09444 20.0538 8.81842 20.1666 8.49187 20.1666C8.16532 20.1666 7.88931 20.0538 7.66384 19.8283C7.43836 19.6027 7.32562 19.3266 7.32562 19C7.32562 18.6733 7.43836 18.3972 7.66384 18.1716C7.88931 17.9461 8.16532 17.8333 8.49187 17.8333Z" fill="#0EA5E9"/>
</svg>
