<svg width="20" height="14" viewBox="0 0 20 14" fill="none" xmlns="http://www.w3.org/2000/svg">
<path d="M14.5 0C15.445 0 16.3258 0.239166 17.1425 0.7175C17.9358 1.18417 18.5658 1.81417 19.0325 2.6075C19.5108 3.42417 19.75 4.305 19.75 5.25V8.75C19.75 9.695 19.5108 10.5758 19.0325 11.3925C18.5658 12.1858 17.9358 12.8158 17.1425 13.2825C16.3258 13.7608 15.445 14 14.5 14H5.75C4.805 14 3.92417 13.7608 3.1075 13.2825C2.31417 12.8158 1.68417 12.1858 1.2175 11.3925C0.739167 10.5758 0.5 9.695 0.5 8.75V5.25C0.5 4.305 0.739167 3.42417 1.2175 2.6075C1.68417 1.81417 2.31417 1.18417 3.1075 0.7175C3.92417 0.239166 4.805 0 5.75 0H14.5ZM14.5 1.75H5.75C5.13167 1.75 4.56292 1.89875 4.04375 2.19625C3.52458 2.49375 3.10458 2.89625 2.78375 3.40375C2.46292 3.91125 2.285 4.46833 2.25 5.075V8.75C2.25 9.36833 2.39875 9.93708 2.69625 10.4562C2.99375 10.9754 3.39625 11.3954 3.90375 11.7162C4.41125 12.0371 4.96833 12.215 5.575 12.25H14.5C15.1183 12.25 15.6871 12.1012 16.2063 11.8038C16.7254 11.5062 17.1454 11.1037 17.4662 10.5963C17.7871 10.0887 17.965 9.53167 18 8.925V5.25C18 4.63167 17.8512 4.06292 17.5538 3.54375C17.2563 3.02458 16.8538 2.60458 16.3463 2.28375C15.8387 1.96292 15.2817 1.785 14.675 1.75H14.5ZM8.375 4.375V6.125H10.125V7.875H8.375V9.625H6.625V7.875H4.875V6.125H6.625V4.375H8.375ZM15.375 7.875V9.625H13.625V7.875H15.375ZM13.625 4.375V6.125H11.875V4.375H13.625Z" fill="#A855F7"/>
</svg>
