<svg width="15" height="20" viewBox="0 0 15 20" fill="none" xmlns="http://www.w3.org/2000/svg">
<path d="M6.80773 6.97249L5.19773 7.54999V10.6475H3.44773V6.32499L8.06773 4.64499C8.2894 4.56332 8.52273 4.52833 8.76773 4.53999C9.24607 4.55166 9.68065 4.70332 10.0715 4.99499C10.4623 5.28666 10.7336 5.66582 10.8852 6.13249C11.0486 6.63416 11.1944 6.97832 11.3227 7.16499C11.7311 7.70166 12.2415 8.12457 12.854 8.43374C13.4665 8.74291 14.1227 8.89749 14.8227 8.89749V10.6475C13.8894 10.6475 13.0086 10.4492 12.1802 10.0525C11.3636 9.66749 10.6694 9.12499 10.0977 8.42499L9.48523 11.89L11.3227 13.43V19.3975H9.57273V14.2525L7.59523 12.5725L6.94773 16.195L0.927734 15.1275L1.22523 13.4125L5.53023 14.165L6.80773 6.97249ZM10.0102 4.08499C9.69523 4.08499 9.40357 4.00916 9.13523 3.85749C8.8669 3.70582 8.65398 3.49582 8.49648 3.22749C8.33898 2.95916 8.26023 2.66458 8.26023 2.34374C8.26023 2.02291 8.33898 1.72832 8.49648 1.45999C8.65398 1.19166 8.8669 0.978741 9.13523 0.821241C9.40357 0.663742 9.69523 0.587908 10.0102 0.59374C10.3252 0.599575 10.6169 0.678326 10.8852 0.829992C11.1536 0.981659 11.3665 1.19166 11.524 1.45999C11.6815 1.72832 11.7602 2.02291 11.7602 2.34374C11.7602 2.66458 11.6815 2.95916 11.524 3.22749C11.3665 3.49582 11.1536 3.70874 10.8852 3.86624C10.6169 4.02374 10.3252 4.10249 10.0102 4.10249V4.08499Z" fill="#F43F5E"/>
</svg>
