<svg width="21" height="24" viewBox="0 0 21 24" fill="none" xmlns="http://www.w3.org/2000/svg">
<path d="M11.7982 0.333293C13.5865 0.333293 15.2814 0.722181 16.8831 1.49996C18.4225 2.24663 19.7443 3.28885 20.8483 4.62663L13.4543 12L20.8483 19.3733C19.7443 20.7111 18.4225 21.7533 16.8831 22.5C15.2814 23.2777 13.5865 23.6666 11.7982 23.6666C10.2277 23.6666 8.71934 23.3633 7.27319 22.7566C5.87369 22.1655 4.63747 21.3294 3.56452 20.2483C2.49157 19.1672 1.65964 17.9344 1.06874 16.55C0.446742 15.1033 0.135742 13.5866 0.135742 12C0.135742 10.4133 0.446742 8.89663 1.06874 7.44996C1.65964 6.06551 2.49157 4.83274 3.56452 3.75163C4.63747 2.67051 5.87369 1.8344 7.27319 1.24329C8.71934 0.636626 10.2277 0.333293 11.7982 0.333293ZM11.7982 2.66663C10.1188 2.66663 8.55607 3.0944 7.10992 3.94996C5.69487 4.7744 4.57527 5.88663 3.75112 7.28663C2.89587 8.73329 2.46824 10.3044 2.46824 12C2.46824 13.6955 2.89587 15.2666 3.75112 16.7133C4.57527 18.1133 5.69487 19.2255 7.10992 20.05C8.55607 20.9055 10.1188 21.3333 11.7982 21.3333C12.809 21.3333 13.7809 21.1816 14.7139 20.8783C15.6469 20.575 16.5021 20.1355 17.2796 19.56L17.5362 19.3733L10.1655 12L17.5362 4.62663L17.2796 4.43996C16.5488 3.89551 15.7479 3.47551 14.8771 3.17996C14.0063 2.8844 13.1044 2.71329 12.1714 2.66663H11.7982ZM11.7982 3.83329C12.2803 3.83329 12.6924 4.0044 13.0345 4.34663C13.3766 4.68885 13.5476 5.10107 13.5476 5.58329C13.5476 6.06551 13.3766 6.47774 13.0345 6.81996C12.6924 7.16218 12.2803 7.33329 11.7982 7.33329C11.3162 7.33329 10.9041 7.16218 10.562 6.81996C10.2199 6.47774 10.0489 6.06551 10.0489 5.58329C10.0489 5.10107 10.2199 4.68885 10.562 4.34663C10.9041 4.0044 11.3162 3.83329 11.7982 3.83329Z" fill="#8B5CF6"/>
</svg>
