<svg width="19" height="14" viewBox="0 0 19 14" fill="none" xmlns="http://www.w3.org/2000/svg">
<path d="M10.9375 5.25H12.6875V5.915C13.3525 5.47167 14.0817 5.25 14.875 5.25C15.5867 5.25 16.2429 5.42792 16.8438 5.78375C17.4446 6.13958 17.9229 6.61792 18.2787 7.21875C18.6346 7.81958 18.8125 8.47583 18.8125 9.1875V14H17.0625V9.1875C17.0625 8.77917 16.9604 8.40875 16.7563 8.07625C16.5521 7.74375 16.2838 7.48125 15.9513 7.28875C15.6187 7.09625 15.26 7 14.875 7C14.49 7 14.1313 7.09625 13.7987 7.28875C13.4663 7.48125 13.1979 7.74375 12.9937 8.07625C12.7896 8.40875 12.6875 8.77917 12.6875 9.1875V14H10.9375V5.25ZM9.1875 0V1.75H2.1875V6.125H9.1875V7.875H2.1875V12.25H9.1875V14H0.4375V0H9.1875Z" fill="#3B82F6"/>
</svg>
