<svg width="18" height="18" viewBox="0 0 18 18" fill="none" xmlns="http://www.w3.org/2000/svg">
<path d="M9.125 17.75C7.935 17.75 6.7975 17.5225 5.7125 17.0675C4.67417 16.6242 3.74958 15.9971 2.93875 15.1862C2.12792 14.3754 1.50083 13.4508 1.0575 12.4125C0.6025 11.3275 0.375 10.19 0.375 9C0.375 7.81 0.6025 6.6725 1.0575 5.5875C1.50083 4.54917 2.12792 3.62458 2.93875 2.81375C3.74958 2.00292 4.67417 1.37583 5.7125 0.932501C6.7975 0.477499 7.935 0.25 9.125 0.25C10.315 0.25 11.4525 0.477499 12.5375 0.932501C13.5758 1.37583 14.5004 2.00292 15.3112 2.81375C16.1221 3.62458 16.7492 4.54917 17.1925 5.5875C17.6475 6.6725 17.875 7.81 17.875 9C17.875 10.19 17.6475 11.3275 17.1925 12.4125C16.7492 13.4508 16.1221 14.3754 15.3112 15.1862C14.5004 15.9971 13.5758 16.6242 12.5375 17.0675C11.4525 17.5225 10.315 17.75 9.125 17.75ZM9.125 16C10.3967 16 11.575 15.6792 12.66 15.0375C13.71 14.4192 14.5442 13.585 15.1625 12.535C15.8042 11.45 16.125 10.2717 16.125 9C16.125 7.72833 15.8042 6.55 15.1625 5.465C14.5442 4.415 13.71 3.58083 12.66 2.9625C11.575 2.32083 10.3967 2 9.125 2C7.85333 2 6.675 2.32083 5.59 2.9625C4.54 3.58083 3.70583 4.415 3.0875 5.465C2.44583 6.55 2.125 7.72833 2.125 9C2.125 10.2717 2.44583 11.45 3.0875 12.535C3.70583 13.585 4.54 14.4192 5.59 15.0375C6.675 15.6792 7.85333 16 9.125 16Z" fill="#A855F7"/>
</svg>
