<svg width="20" height="24" viewBox="0 0 20 24" fill="none" xmlns="http://www.w3.org/2000/svg">
<path d="M14.4863 0.333292V2.66663H13.32V6.44663C13.32 7.81551 13.6077 9.12218 14.1831 10.3666L19.1746 21.1933C19.3768 21.6288 19.3923 22.0722 19.2213 22.5233C19.0502 22.9744 18.747 23.3011 18.3116 23.5033C18.0783 23.6122 17.8373 23.6666 17.5885 23.6666H2.05406C1.57201 23.6666 1.15994 23.4955 0.817837 23.1533C0.475737 22.8111 0.304688 22.3988 0.304688 21.9166C0.304688 21.6677 0.359113 21.4266 0.467963 21.1933L5.45951 10.3666C6.03486 9.12218 6.32254 7.81551 6.32254 6.44663V2.66663H5.15629V0.333292H14.4863ZM11.4307 9.66663H8.21186C8.08746 10.0866 7.93974 10.5066 7.76869 10.9266L7.58209 11.3466L2.96374 21.3333H16.6788L12.0605 11.3466C11.8117 10.8022 11.6018 10.2422 11.4307 9.66663ZM8.65504 6.44663C8.65504 6.74218 8.64726 7.03774 8.63171 7.33329H11.0109L10.9875 6.91329V6.44663V2.66663H8.65504V6.44663Z" fill="#3B82F6"/>
</svg>
