<svg width="24" height="24" viewBox="0 0 24 24" fill="none" xmlns="http://www.w3.org/2000/svg">
<path d="M11.8207 23.6666C10.2346 23.6666 8.71848 23.3633 7.27233 22.7566C5.88838 22.1655 4.65604 21.3294 3.57532 20.2483C2.49459 19.1672 1.65878 17.9344 1.06788 16.55C0.461428 15.1033 0.158203 13.5866 0.158203 12C0.158203 10.4133 0.461428 8.89663 1.06788 7.44996C1.65878 6.06552 2.49459 4.83274 3.57532 3.75163C4.65604 2.67052 5.88838 1.8344 7.27233 1.24329C8.71848 0.636625 10.2346 0.333292 11.8207 0.333292C13.4068 0.333292 14.9229 0.636625 16.3691 1.24329C17.753 1.8344 18.9854 2.67052 20.0661 3.75163C21.1468 4.83274 21.9826 6.06552 22.5735 7.44996C23.18 8.89663 23.4832 10.4133 23.4832 12C23.4832 13.5866 23.18 15.1033 22.5735 16.55C21.9826 17.9344 21.1468 19.1672 20.0661 20.2483C18.9854 21.3294 17.753 22.1655 16.3691 22.7566C14.9229 23.3633 13.4068 23.6666 11.8207 23.6666ZM11.8207 21.3333C13.5157 21.3333 15.0862 20.9055 16.5324 20.05C17.9319 19.2255 19.0437 18.1133 19.8678 16.7133C20.7231 15.2666 21.1507 13.6955 21.1507 12C21.1507 10.3044 20.7231 8.73329 19.8678 7.28663C19.0437 5.88663 17.9319 4.7744 16.5324 3.94996C15.0862 3.0944 13.5157 2.66663 11.8207 2.66663C10.1258 2.66663 8.5552 3.0944 7.10905 3.94996C5.70955 4.7744 4.59773 5.88663 3.77358 7.28663C2.91833 8.73329 2.4907 10.3044 2.4907 12C2.4907 13.6955 2.91833 15.2666 3.77358 16.7133C4.59773 18.1133 5.70955 19.2255 7.10905 20.05C8.5552 20.9055 10.1258 21.3333 11.8207 21.3333Z" fill="#14B8A6"/>
</svg>
