<svg width="25" height="24" viewBox="0 0 25 24" fill="none" xmlns="http://www.w3.org/2000/svg">
<path d="M12.4848 23.6666C10.8987 23.6666 9.38254 23.3633 7.93639 22.7566C6.55244 22.1655 5.3201 21.3294 4.23938 20.2483C3.15865 19.1672 2.32284 17.9344 1.73194 16.55C1.12549 15.1033 0.822266 13.5866 0.822266 12C0.822266 10.4133 1.12549 8.89663 1.73194 7.44996C2.32284 6.06552 3.15865 4.83274 4.23938 3.75163C5.3201 2.67052 6.55244 1.8344 7.93639 1.24329C9.38254 0.636625 10.8987 0.333292 12.4848 0.333292C14.0709 0.333292 15.587 0.636625 17.0331 1.24329C18.4171 1.8344 19.6494 2.67052 20.7302 3.75163C21.8109 4.83274 22.6467 6.06552 23.2376 7.44996C23.844 8.89663 24.1473 10.4133 24.1473 12C24.1473 13.5866 23.844 15.1033 23.2376 16.55C22.6467 17.9344 21.8109 19.1672 20.7302 20.2483C19.6494 21.3294 18.4171 22.1655 17.0331 22.7566C15.587 23.3633 14.0709 23.6666 12.4848 23.6666ZM12.4848 21.3333C14.1797 21.3333 15.7503 20.9055 17.1964 20.05C18.5959 19.2255 19.7077 18.1133 20.5319 16.7133C21.3871 15.2666 21.8148 13.6955 21.8148 12C21.8148 10.3044 21.3871 8.73329 20.5319 7.28663C19.7077 5.88663 18.5959 4.7744 17.1964 3.94996C15.7503 3.0944 14.1797 2.66663 12.4848 2.66663C10.7898 2.66663 9.21927 3.0944 7.77312 3.94996C6.37362 4.7744 5.26179 5.88663 4.43764 7.28663C3.58239 8.73329 3.15477 10.3044 3.15477 12C3.15477 13.6955 3.58239 15.2666 4.43764 16.7133C5.26179 18.1133 6.37362 19.2255 7.77312 20.05C9.21927 20.9055 10.7898 21.3333 12.4848 21.3333ZM6.65352 13.1666H8.98602C8.98602 13.8044 9.14152 14.3916 9.45252 14.9283C9.76352 15.465 10.1873 15.8888 10.7237 16.2C11.2602 16.5111 11.8472 16.6666 12.4848 16.6666C13.1223 16.6666 13.7093 16.5111 14.2458 16.2C14.7823 15.8888 15.206 15.465 15.517 14.9283C15.828 14.3916 15.9835 13.8044 15.9835 13.1666H18.316C18.316 14.2244 18.0556 15.2005 17.5346 16.095C17.0137 16.9894 16.3062 17.6972 15.4121 18.2183C14.5179 18.7394 13.5422 19 12.4848 19C11.4274 19 10.4516 18.7394 9.55748 18.2183C8.66335 17.6972 7.95583 16.9894 7.4349 16.095C6.91398 15.2005 6.65352 14.2244 6.65352 13.1666ZM7.81977 10.8333C7.33772 10.8333 6.92564 10.6622 6.58354 10.32C6.24144 9.97774 6.07039 9.56551 6.07039 9.08329C6.07039 8.60107 6.24144 8.18885 6.58354 7.84663C6.92564 7.5044 7.33772 7.33329 7.81977 7.33329C8.30182 7.33329 8.71389 7.5044 9.05599 7.84663C9.39809 8.18885 9.56914 8.60107 9.56914 9.08329C9.56914 9.56551 9.39809 9.97774 9.05599 10.32C8.71389 10.6622 8.30182 10.8333 7.81977 10.8333ZM17.1498 10.8333C16.6677 10.8333 16.2556 10.6622 15.9135 10.32C15.5714 9.97774 15.4004 9.56551 15.4004 9.08329C15.4004 8.60107 15.5714 8.18885 15.9135 7.84663C16.2556 7.5044 16.6677 7.33329 17.1498 7.33329C17.6318 7.33329 18.0439 7.5044 18.386 7.84663C18.7281 8.18885 18.8991 8.60107 18.8991 9.08329C18.8991 9.56551 18.7281 9.97774 18.386 10.32C18.0439 10.6622 17.6318 10.8333 17.1498 10.8333Z" fill="#EAB308"/>
</svg>
