<svg width="27" height="22" viewBox="0 0 27 22" fill="none" xmlns="http://www.w3.org/2000/svg">
<path d="M7.6071 0.5H19.3629C19.4562 1.15333 19.6933 1.74833 20.0743 2.285C20.4553 2.82167 20.9373 3.24167 21.5205 3.545C22.1036 3.84833 22.7295 4 23.3981 4C23.7869 4 24.1679 3.94555 24.541 3.83667C24.4788 4.52111 24.2573 5.14333 23.8763 5.70333C23.4953 6.26333 23.0055 6.70278 22.4068 7.02167C21.8081 7.34056 21.1667 7.5 20.4825 7.5H6.4875C5.8033 7.5 5.16186 7.34056 4.56319 7.02167C3.96451 6.70278 3.47469 6.26333 3.09371 5.70333C2.71274 5.14333 2.49115 4.52111 2.42895 3.83667C2.80215 3.94555 3.18313 4 3.57188 4C4.24053 4 4.86641 3.84833 5.44954 3.545C6.03266 3.24167 6.51471 2.82167 6.89569 2.285C7.27666 1.74833 7.5138 1.15333 7.6071 0.5ZM26.2904 9.97333C25.7617 10.2689 25.1825 10.4167 24.5527 10.4167C23.9229 10.4167 23.3398 10.2572 22.8033 9.93833C22.2669 9.61944 21.8431 9.19556 21.5321 8.66667H5.43787C5.12687 9.19556 4.70314 9.61944 4.16666 9.93833C3.63019 10.2572 3.04706 10.4167 2.41729 10.4167C1.78751 10.4167 1.20827 10.2689 0.679575 9.97333C0.664025 10.1133 0.65625 10.2611 0.65625 10.4167C0.65625 11.2256 0.870062 11.9606 1.29769 12.6217C1.72531 13.2828 2.289 13.7767 2.98875 14.1033V21.5H9.98625V19.1667C9.98625 18.5289 10.1418 17.9417 10.4528 17.405C10.7638 16.8683 11.1875 16.4444 11.724 16.1333C12.2604 15.8222 12.8475 15.6667 13.485 15.6667C14.1226 15.6667 14.7096 15.8222 15.246 16.1333C15.7825 16.4444 16.2063 16.8683 16.5173 17.405C16.8283 17.9417 16.9837 18.5289 16.9837 19.1667V21.5H23.9813V14.1033C24.681 13.7767 25.2447 13.2828 25.6723 12.6217C26.0999 11.9606 26.3137 11.2256 26.3137 10.4167C26.3137 10.2611 26.306 10.1133 26.2904 9.97333Z" fill="#F59E0B"/>
</svg>
