<svg width="26" height="26" viewBox="0 0 26 26" fill="none" xmlns="http://www.w3.org/2000/svg">
<path d="M0.902344 25.25C0.902344 23.5544 1.32997 21.9833 2.18522 20.5367C3.00937 19.1367 4.12119 18.0244 5.52069 17.2C6.96684 16.3444 8.53739 15.9167 10.2323 15.9167C11.9273 15.9167 13.4978 16.3444 14.944 17.2C16.3435 18.0244 17.4553 19.1367 18.2795 20.5367C19.1347 21.9833 19.5623 23.5544 19.5623 25.25H17.2298C17.2298 23.99 16.9111 22.8156 16.2735 21.7267C15.6515 20.6689 14.8118 19.8289 13.7544 19.2067C12.6659 18.5689 11.4919 18.25 10.2323 18.25C8.97279 18.25 7.79877 18.5689 6.71027 19.2067C5.65287 19.8289 4.81317 20.6689 4.19117 21.7267C3.55362 22.8156 3.23484 23.99 3.23484 25.25H0.902344ZM10.2323 14.75C8.95724 14.75 7.78322 14.4311 6.71027 13.7933C5.65287 13.1711 4.81317 12.3311 4.19117 11.2733C3.55362 10.2 3.23484 9.02555 3.23484 7.75C3.23484 6.47444 3.55362 5.3 4.19117 4.22667C4.81317 3.16889 5.65287 2.32889 6.71027 1.70667C7.78322 1.06889 8.95724 0.75 10.2323 0.75C11.5074 0.75 12.6815 1.06889 13.7544 1.70667C14.8118 2.32889 15.6515 3.16889 16.2735 4.22667C16.9111 5.3 17.2298 6.47444 17.2298 7.75C17.2298 9.02555 16.9111 10.2 16.2735 11.2733C15.6515 12.3311 14.8118 13.1711 13.7544 13.7933C12.6815 14.4311 11.5074 14.75 10.2323 14.75ZM10.2323 12.4167C11.072 12.4167 11.8495 12.2067 12.5648 11.7867C13.2801 11.3667 13.8477 10.7989 14.2676 10.0833C14.6874 9.36778 14.8973 8.59 14.8973 7.75C14.8973 6.91 14.6874 6.13222 14.2676 5.41667C13.8477 4.70111 13.2801 4.13333 12.5648 3.71333C11.8495 3.29333 11.072 3.08333 10.2323 3.08333C9.39264 3.08333 8.61514 3.29333 7.89984 3.71333C7.18454 4.13333 6.61697 4.70111 6.19712 5.41667C5.77727 6.13222 5.56734 6.91 5.56734 7.75C5.56734 8.59 5.77727 9.36778 6.19712 10.0833C6.61697 10.7989 7.18454 11.3667 7.89984 11.7867C8.61514 12.2067 9.39264 12.4167 10.2323 12.4167ZM19.8889 16.7333C20.9774 17.2156 21.9376 17.8883 22.7695 18.7517C23.6015 19.615 24.2429 20.5911 24.6938 21.68C25.1603 22.8156 25.3936 24.0056 25.3936 25.25H23.0611C23.0611 23.85 22.6801 22.5667 21.9182 21.4C21.1718 20.2644 20.1766 19.4167 18.9326 18.8567L19.8889 16.7333ZM19.0958 3.57333C20.2776 4.05556 21.234 4.83333 21.9648 5.90667C22.6957 6.98 23.0611 8.17778 23.0611 9.5C23.0611 10.6044 22.8045 11.6272 22.2914 12.5683C21.7782 13.5094 21.0746 14.2756 20.1805 14.8667C19.2863 15.4578 18.3028 15.8 17.2298 15.8933V13.5367C17.8829 13.4433 18.4777 13.2061 19.0142 12.825C19.5507 12.4439 19.9705 11.9617 20.2738 11.3783C20.577 10.795 20.7286 10.1689 20.7286 9.5C20.7286 8.70667 20.5187 7.98333 20.0988 7.33C19.679 6.67667 19.1269 6.17889 18.4427 5.83667L19.0958 3.57333Z" fill="#22C55E"/>
</svg>
