<svg width="24" height="24" viewBox="0 0 24 24" fill="none" xmlns="http://www.w3.org/2000/svg">
<path d="M8.32195 2.66667C8.7418 2.66667 9.13055 2.77167 9.4882 2.98167C9.84585 3.19167 10.1296 3.47556 10.3396 3.83334C10.5495 4.19112 10.6545 4.58001 10.6545 5.00001V12.9567C9.6748 12.21 8.37638 11.7044 6.75918 11.44L6.38598 13.7267C7.89433 13.9911 8.98283 14.485 9.65148 15.2083C10.3201 15.9317 10.6545 17.0011 10.6545 18.4167C10.6545 18.9456 10.5223 19.4317 10.2579 19.875C9.99358 20.3183 9.63982 20.6722 9.19664 20.9367C8.75347 21.2011 8.26753 21.3333 7.73883 21.3333C7.21013 21.3333 6.72419 21.2011 6.28102 20.9367C5.83784 20.6722 5.48408 20.3183 5.21973 19.875C4.95538 19.4317 4.8232 18.9456 4.8232 18.4167V17.9967C5.3519 18.1833 5.87283 18.3156 6.38598 18.3933L6.75918 16.1067C5.98168 15.9667 5.11088 15.6711 4.14678 15.22C3.64918 14.9867 3.24877 14.6328 2.94554 14.1583C2.64232 13.6839 2.4907 13.1589 2.4907 12.5833C2.4907 11.65 2.7084 10.8839 3.1438 10.285C3.5792 9.68612 4.2323 9.27778 5.1031 9.06001L5.98945 8.82667V5.00001C5.98945 4.58001 6.09442 4.19112 6.30434 3.83334C6.51427 3.47556 6.79805 3.19167 7.1557 2.98167C7.51335 2.77167 7.9021 2.66667 8.32195 2.66667ZM11.8207 1.92C11.3853 1.42223 10.8644 1.03334 10.2579 0.753338C9.65148 0.473338 9.00615 0.333338 8.32195 0.333338C7.48225 0.333338 6.70475 0.543338 5.98945 0.963338C5.27415 1.38334 4.70658 1.95112 4.28673 2.66667C3.86688 3.38223 3.65695 4.16001 3.65695 5.00001V7.07667C2.6462 7.48112 1.84538 8.08778 1.25448 8.89667C0.523628 9.90778 0.158203 11.1367 0.158203 12.5833C0.158203 13.4856 0.368128 14.3178 0.787978 15.08C1.20783 15.8422 1.7754 16.4644 2.4907 16.9467V18.4167C2.4907 19.3656 2.72784 20.2406 3.20212 21.0417C3.67639 21.8428 4.31394 22.4806 5.11477 22.955C5.91559 23.4294 6.79028 23.6667 7.73883 23.6667C8.54743 23.6667 9.30549 23.4917 10.013 23.1417C10.7205 22.7917 11.3231 22.3133 11.8207 21.7067C12.3183 22.3133 12.9209 22.7917 13.6284 23.1417C14.3359 23.4917 15.094 23.6667 15.9026 23.6667C16.8511 23.6667 17.7258 23.4294 18.5266 22.955C19.3275 22.4806 19.965 21.8428 20.4393 21.0417C20.9136 20.2406 21.1507 19.3656 21.1507 18.4167V16.9467C21.866 16.4644 22.4336 15.8422 22.8534 15.08C23.2733 14.3178 23.4832 13.4856 23.4832 12.5833C23.4832 11.1367 23.1178 9.90778 22.3869 8.89667C21.796 8.08778 20.9952 7.48112 19.9845 7.07667V5.00001C19.9845 4.16001 19.7745 3.38223 19.3547 2.66667C18.9348 1.95112 18.3673 1.38334 17.652 0.963338C16.9367 0.543338 16.1592 0.333338 15.3195 0.333338C14.6353 0.333338 13.9899 0.473338 13.3835 0.753338C12.777 1.03334 12.2561 1.42223 11.8207 1.92ZM18.8182 17.9967V18.4167C18.8182 18.9456 18.686 19.4317 18.4217 19.875C18.1573 20.3183 17.8036 20.6722 17.3604 20.9367C16.9172 21.2011 16.4313 21.3333 15.9026 21.3333C15.3739 21.3333 14.8879 21.2011 14.4448 20.9367C14.0016 20.6722 13.6478 20.3183 13.3835 19.875C13.1191 19.4317 12.987 18.9456 12.987 18.4167C12.987 17.0011 13.3213 15.9317 13.9899 15.2083C14.6586 14.485 15.7471 13.9911 17.2554 13.7267L16.8822 11.44C15.265 11.7044 13.9666 12.21 12.987 12.9567V5.00001C12.987 4.58001 13.0919 4.19112 13.3018 3.83334C13.5118 3.47556 13.7956 3.19167 14.1532 2.98167C14.5109 2.77167 14.8996 2.66667 15.3195 2.66667C15.7393 2.66667 16.1281 2.77167 16.4857 2.98167C16.8434 3.19167 17.1271 3.47556 17.3371 3.83334C17.547 4.19112 17.652 4.58001 17.652 5.00001V8.82667L18.5383 9.06001C19.4091 9.27778 20.0622 9.68612 20.4976 10.285C20.933 10.8839 21.1507 11.65 21.1507 12.5833C21.1507 13.1589 20.9991 13.6839 20.6959 14.1583C20.3926 14.6328 19.9922 14.9867 19.4946 15.22C18.5305 15.6711 17.6597 15.9667 16.8822 16.1067L17.2554 18.3933C17.7686 18.3156 18.2895 18.1833 18.8182 17.9967Z" fill="#6366F1"/>
</svg>
