<svg width="25" height="24" viewBox="0 0 25 24" fill="none" xmlns="http://www.w3.org/2000/svg">
<path d="M12.4848 0.333338C14.0709 0.333338 15.587 0.605561 17.0331 1.15C18.4171 1.67889 19.6494 2.42167 20.7302 3.37834C21.8109 4.33501 22.6467 5.42778 23.2376 6.65667C23.844 7.94778 24.1473 9.29334 24.1473 10.6933C24.1473 11.8756 23.8518 12.9722 23.2609 13.9833C22.6856 14.9478 21.9081 15.7178 20.9284 16.2933C19.9332 16.8844 18.8447 17.18 17.6629 17.18H15.3771C14.8328 17.18 14.3741 17.3706 14.0009 17.7517C13.6277 18.1328 13.4411 18.5956 13.4411 19.14C13.4411 19.6222 13.6044 20.05 13.9309 20.4233C14.2575 20.7967 14.4207 21.2322 14.4207 21.73C14.4207 22.2589 14.2303 22.7139 13.8493 23.095C13.4683 23.4761 13.0135 23.6667 12.4848 23.6667C10.8987 23.6667 9.38254 23.3633 7.93639 22.7567C6.55244 22.1656 5.3201 21.3294 4.23938 20.2483C3.15865 19.1672 2.32284 17.9344 1.73194 16.55C1.12549 15.1033 0.822266 13.5867 0.822266 12C0.822266 10.4133 1.12549 8.89667 1.73194 7.45001C2.32284 6.06556 3.15865 4.83278 4.23938 3.75167C5.3201 2.67056 6.55244 1.83445 7.93639 1.24334C9.38254 0.636672 10.8987 0.333338 12.4848 0.333338ZM11.1086 19.14C11.1086 18.3622 11.2991 17.6467 11.6801 16.9933C12.061 16.34 12.5781 15.8189 13.2312 15.43C13.8843 15.0411 14.5996 14.8467 15.3771 14.8467H17.6629C18.4093 14.8467 19.1013 14.66 19.7388 14.2867C20.3764 13.9133 20.8818 13.4117 21.255 12.7817C21.6282 12.1517 21.8148 11.4556 21.8148 10.6933C21.8148 9.26223 21.3949 7.92445 20.5552 6.68001C19.7311 5.46667 18.6192 4.50223 17.2197 3.78667C15.7736 3.04 14.1992 2.66667 12.4964 2.66667C10.7937 2.66667 9.21927 3.09445 7.77312 3.95001C6.37362 4.77445 5.26179 5.88667 4.43764 7.28667C3.58239 8.73334 3.15477 10.3044 3.15477 12C3.15477 13.6022 3.53574 15.1033 4.29769 16.5033C5.04409 17.8567 6.06262 18.9533 7.35327 19.7933C8.67502 20.6644 10.1212 21.17 11.6917 21.31C11.303 20.6256 11.1086 19.9022 11.1086 19.14ZM7.23664 12C6.75459 12 6.34252 11.8289 6.00042 11.4867C5.65832 11.1444 5.48727 10.7322 5.48727 10.25C5.48727 9.76778 5.65832 9.35556 6.00042 9.01334C6.34252 8.67112 6.75459 8.50001 7.23664 8.50001C7.71869 8.50001 8.13077 8.67112 8.47287 9.01334C8.81497 9.35556 8.98602 9.76778 8.98602 10.25C8.98602 10.7322 8.81497 11.1444 8.47287 11.4867C8.13077 11.8289 7.71869 12 7.23664 12ZM17.7329 12C17.2508 12 16.8388 11.8289 16.4967 11.4867C16.1546 11.1444 15.9835 10.7322 15.9835 10.25C15.9835 9.76778 16.1546 9.35556 16.4967 9.01334C16.8388 8.67112 17.2508 8.50001 17.7329 8.50001C18.2149 8.50001 18.627 8.67112 18.9691 9.01334C19.3112 9.35556 19.4823 9.76778 19.4823 10.25C19.4823 10.7322 19.3112 11.1444 18.9691 11.4867C18.627 11.8289 18.2149 12 17.7329 12ZM12.4848 8.50001C12.0027 8.50001 11.5906 8.32889 11.2485 7.98667C10.9064 7.64445 10.7354 7.23223 10.7354 6.75001C10.7354 6.26778 10.9064 5.85556 11.2485 5.51334C11.5906 5.17112 12.0027 5.00001 12.4848 5.00001C12.9668 5.00001 13.3789 5.17112 13.721 5.51334C14.0631 5.85556 14.2341 6.26778 14.2341 6.75001C14.2341 7.23223 14.0631 7.64445 13.721 7.98667C13.3789 8.32889 12.9668 8.50001 12.4848 8.50001Z" fill="#F43F5E"/>
</svg>
