<svg width="24" height="24" viewBox="0 0 24 24" fill="none" xmlns="http://www.w3.org/2000/svg">
<path d="M11.8207 23.6666C10.2346 23.6666 8.71848 23.3633 7.27233 22.7566C5.88838 22.1655 4.65604 21.3294 3.57532 20.2483C2.49459 19.1672 1.65878 17.9344 1.06788 16.55C0.461428 15.1033 0.158203 13.5866 0.158203 12C0.158203 10.4133 0.461428 8.89663 1.06788 7.44996C1.65878 6.06552 2.49459 4.83274 3.57532 3.75163C4.65604 2.67052 5.88838 1.8344 7.27233 1.24329C8.71848 0.636625 10.2346 0.333292 11.8207 0.333292C13.4068 0.333292 14.9229 0.636625 16.3691 1.24329C17.753 1.8344 18.9854 2.67052 20.0661 3.75163C21.1468 4.83274 21.9826 6.06552 22.5735 7.44996C23.18 8.89663 23.4832 10.4133 23.4832 12C23.4832 13.5866 23.18 15.1033 22.5735 16.55C21.9826 17.9344 21.1468 19.1672 20.0661 20.2483C18.9854 21.3294 17.753 22.1655 16.3691 22.7566C14.9229 23.3633 13.4068 23.6666 11.8207 23.6666ZM11.8207 21.3333C13.5157 21.3333 15.0862 20.9055 16.5324 20.05C17.9319 19.2255 19.0437 18.1133 19.8678 16.7133C20.7231 15.2666 21.1507 13.6955 21.1507 12C21.1507 10.3044 20.7231 8.73329 19.8678 7.28663C19.0437 5.88663 17.9319 4.7744 16.5324 3.94996C15.0862 3.0944 13.5157 2.66663 11.8207 2.66663C10.1258 2.66663 8.5552 3.0944 7.10905 3.94996C5.70955 4.7744 4.59773 5.88663 3.77358 7.28663C2.91833 8.73329 2.4907 10.3044 2.4907 12C2.4907 13.6955 2.91833 15.2666 3.77358 16.7133C4.59773 18.1133 5.70955 19.2255 7.10905 20.05C8.5552 20.9055 10.1258 21.3333 11.8207 21.3333ZM7.73883 14.3333H14.1532C14.3087 14.3333 14.4448 14.275 14.5614 14.1583C14.678 14.0416 14.7363 13.9055 14.7363 13.75C14.7363 13.5944 14.678 13.4583 14.5614 13.3416C14.4448 13.225 14.3087 13.1666 14.1532 13.1666H9.4882C8.9595 13.1666 8.47357 13.0344 8.03039 12.77C7.58722 12.5055 7.23345 12.1516 6.9691 11.7083C6.70475 11.265 6.57258 10.7788 6.57258 10.25C6.57258 9.72107 6.70475 9.23496 6.9691 8.79163C7.23345 8.34829 7.58722 7.9944 8.03039 7.72996C8.47357 7.46552 8.9595 7.33329 9.4882 7.33329H10.6545V4.99996H12.987V7.33329H15.9026V9.66663H9.4882C9.3327 9.66663 9.19664 9.72496 9.08002 9.84163C8.96339 9.95829 8.90508 10.0944 8.90508 10.25C8.90508 10.4055 8.96339 10.5416 9.08002 10.6583C9.19664 10.775 9.3327 10.8333 9.4882 10.8333H14.1532C14.6819 10.8333 15.1678 10.9655 15.611 11.23C16.0542 11.4944 16.408 11.8483 16.6723 12.2916C16.9367 12.735 17.0688 13.2211 17.0688 13.75C17.0688 14.2788 16.9367 14.765 16.6723 15.2083C16.408 15.6516 16.0542 16.0055 15.611 16.27C15.1678 16.5344 14.6819 16.6666 14.1532 16.6666H12.987V19H10.6545V16.6666H7.73883V14.3333Z" fill="#06B6D4"/>
</svg>
