<svg width="24" height="24" viewBox="0 0 24 24" fill="none" xmlns="http://www.w3.org/2000/svg">
<path d="M11.8207 21.3333H21.1507V23.6666H11.8207C10.2346 23.6666 8.71848 23.3633 7.27233 22.7566C5.88838 22.1655 4.65604 21.3294 3.57532 20.2483C2.49459 19.1672 1.65878 17.9344 1.06788 16.55C0.461428 15.1033 0.158203 13.5866 0.158203 12C0.158203 10.4133 0.461428 8.89663 1.06788 7.44996C1.65878 6.06552 2.49459 4.83274 3.57532 3.75163C4.65604 2.67052 5.88838 1.8344 7.27233 1.24329C8.71848 0.636625 10.2346 0.333292 11.8207 0.333292C13.4068 0.333292 14.9229 0.636625 16.3691 1.24329C17.753 1.8344 18.9854 2.67052 20.0661 3.75163C21.1468 4.83274 21.9826 6.06552 22.5735 7.44996C23.18 8.89663 23.4832 10.4133 23.4832 12C23.4832 13.2911 23.2811 14.5433 22.8768 15.7566C22.4725 16.9233 21.8971 18.0044 21.1507 19H18.0018C18.9815 18.1288 19.7434 17.0944 20.2877 15.8966C20.863 14.6677 21.1507 13.3688 21.1507 12C21.1507 10.3044 20.7231 8.73329 19.8678 7.28663C19.0437 5.88663 17.9319 4.7744 16.5324 3.94996C15.0862 3.0944 13.5157 2.66663 11.8207 2.66663C10.1258 2.66663 8.5552 3.0944 7.10905 3.94996C5.70955 4.7744 4.59773 5.88663 3.77358 7.28663C2.91833 8.73329 2.4907 10.3044 2.4907 12C2.4907 13.6955 2.91833 15.2666 3.77358 16.7133C4.59773 18.1133 5.70955 19.2255 7.10905 20.05C8.5552 20.9055 10.1258 21.3333 11.8207 21.3333ZM11.8207 9.66663C11.4009 9.66663 11.0121 9.56163 10.6545 9.35163C10.2968 9.14163 10.013 8.85774 9.80309 8.49996C9.59317 8.14218 9.4882 7.75329 9.4882 7.33329C9.4882 6.91329 9.59317 6.5244 9.80309 6.16663C10.013 5.80885 10.2968 5.52496 10.6545 5.31496C11.0121 5.10496 11.4009 4.99996 11.8207 4.99996C12.2406 4.99996 12.6293 5.10496 12.987 5.31496C13.3446 5.52496 13.6284 5.80885 13.8383 6.16663C14.0482 6.5244 14.1532 6.91329 14.1532 7.33329C14.1532 7.75329 14.0482 8.14218 13.8383 8.49996C13.6284 8.85774 13.3446 9.14163 12.987 9.35163C12.6293 9.56163 12.2406 9.66663 11.8207 9.66663ZM7.1557 14.3333C6.73585 14.3333 6.3471 14.2283 5.98945 14.0183C5.6318 13.8083 5.34802 13.5244 5.13809 13.1666C4.92817 12.8088 4.8232 12.42 4.8232 12C4.8232 11.58 4.92817 11.1911 5.13809 10.8333C5.34802 10.4755 5.6318 10.1916 5.98945 9.98163C6.3471 9.77163 6.73585 9.66663 7.1557 9.66663C7.57555 9.66663 7.9643 9.77163 8.32195 9.98163C8.6796 10.1916 8.96339 10.4755 9.17332 10.8333C9.38324 11.1911 9.4882 11.58 9.4882 12C9.4882 12.42 9.38324 12.8088 9.17332 13.1666C8.96339 13.5244 8.6796 13.8083 8.32195 14.0183C7.9643 14.2283 7.57555 14.3333 7.1557 14.3333ZM16.4857 14.3333C16.0659 14.3333 15.6771 14.2283 15.3195 14.0183C14.9618 13.8083 14.678 13.5244 14.4681 13.1666C14.2582 12.8088 14.1532 12.42 14.1532 12C14.1532 11.58 14.2582 11.1911 14.4681 10.8333C14.678 10.4755 14.9618 10.1916 15.3195 9.98163C15.6771 9.77163 16.0659 9.66663 16.4857 9.66663C16.9056 9.66663 17.2943 9.77163 17.652 9.98163C18.0096 10.1916 18.2934 10.4755 18.5033 10.8333C18.7132 11.1911 18.8182 11.58 18.8182 12C18.8182 12.42 18.7132 12.8088 18.5033 13.1666C18.2934 13.5244 18.0096 13.8083 17.652 14.0183C17.2943 14.2283 16.9056 14.3333 16.4857 14.3333ZM11.8207 19C11.4009 19 11.0121 18.895 10.6545 18.685C10.2968 18.475 10.013 18.1911 9.80309 17.8333C9.59317 17.4755 9.4882 17.0866 9.4882 16.6666C9.4882 16.2466 9.59317 15.8577 9.80309 15.5C10.013 15.1422 10.2968 14.8583 10.6545 14.6483C11.0121 14.4383 11.4009 14.3333 11.8207 14.3333C12.2406 14.3333 12.6293 14.4383 12.987 14.6483C13.3446 14.8583 13.6284 15.1422 13.8383 15.5C14.0482 15.8577 14.1532 16.2466 14.1532 16.6666C14.1532 17.0866 14.0482 17.4755 13.8383 17.8333C13.6284 18.1911 13.3446 18.475 12.987 18.685C12.6293 18.895 12.2406 19 11.8207 19Z" fill="#F43F5E"/>
</svg>
