<svg width="26" height="20" viewBox="0 0 26 20" fill="none" xmlns="http://www.w3.org/2000/svg">
<path d="M18.9803 0.666708C20.2399 0.666708 21.4139 0.985596 22.5024 1.62337C23.5598 2.2456 24.3995 3.0856 25.0215 4.14337C25.659 5.23226 25.9778 6.40671 25.9778 7.66671V12.3334C25.9778 13.5934 25.659 14.7678 25.0215 15.8567C24.3995 16.9145 23.5598 17.7545 22.5024 18.3767C21.4139 19.0145 20.2399 19.3334 18.9803 19.3334H7.31781C6.05826 19.3334 4.88424 19.0145 3.79574 18.3767C2.73834 17.7545 1.89864 16.9145 1.27664 15.8567C0.639087 14.7678 0.320312 13.5934 0.320312 12.3334V7.66671C0.320312 6.40671 0.639087 5.23226 1.27664 4.14337C1.89864 3.0856 2.73834 2.2456 3.79574 1.62337C4.88424 0.985596 6.05826 0.666708 7.31781 0.666708H18.9803ZM18.9803 3.00004H7.31781C6.49366 3.00004 5.7356 3.19837 5.04362 3.59504C4.35165 3.99171 3.79185 4.52837 3.36422 5.20504C2.9366 5.88171 2.69946 6.62449 2.65281 7.43337V12.3334C2.65281 13.1578 2.85107 13.9162 3.2476 14.6084C3.64412 15.3006 4.1806 15.8606 4.85703 16.2884C5.53345 16.7162 6.27596 16.9534 7.08456 17H18.9803C19.8045 17 20.5625 16.8017 21.2545 16.405C21.9465 16.0084 22.5063 15.4717 22.9339 14.795C23.3615 14.1184 23.5987 13.3756 23.6453 12.5667V7.66671C23.6453 6.84226 23.4471 6.08393 23.0505 5.39171C22.654 4.69948 22.1175 4.13949 21.4411 3.71171C20.7647 3.28393 20.0222 3.04671 19.2136 3.00004H18.9803ZM10.8166 6.50004V8.83337H13.1491V11.1667H10.8166V13.5H8.48406V11.1667H6.15156V8.83337H8.48406V6.50004H10.8166ZM20.1466 11.1667V13.5H17.8141V11.1667H20.1466ZM17.8141 6.50004V8.83337H15.4816V6.50004H17.8141Z" fill="#A855F7"/>
</svg>
