<svg width="24" height="24" viewBox="0 0 24 24" fill="none" xmlns="http://www.w3.org/2000/svg">
<path d="M12.1488 0.333292C13.7349 0.333292 15.2511 0.636625 16.6972 1.24329C18.0812 1.8344 19.3135 2.67052 20.3942 3.75163C21.4749 4.83274 22.3108 6.06552 22.9017 7.44996C23.5081 8.89663 23.8113 10.4133 23.8113 12C23.8113 13.5866 23.5081 15.1033 22.9017 16.55C22.3108 17.9344 21.4749 19.1672 20.3942 20.2483C19.3135 21.3294 18.0812 22.1655 16.6972 22.7566C15.2511 23.3633 13.7349 23.6666 12.1488 23.6666C10.5627 23.6666 9.0466 23.3633 7.60045 22.7566C6.2165 22.1655 4.98417 21.3294 3.90344 20.2483C2.82272 19.1672 1.9869 17.9344 1.396 16.55C0.789553 15.1033 0.486328 13.5866 0.486328 12C0.486328 10.4133 0.789553 8.89663 1.396 7.44996C1.9869 6.06552 2.82272 4.83274 3.90344 3.75163C4.98417 2.67052 6.2165 1.8344 7.60045 1.24329C9.0466 0.636625 10.5627 0.333292 12.1488 0.333292ZM12.5687 13.5866L8.53345 20.61C9.68415 21.0922 10.8893 21.3333 12.1488 21.3333C12.6775 21.3333 13.2062 21.2866 13.7349 21.1933C13.5794 20.12 13.5755 19.0388 13.7233 17.95C13.871 16.8611 14.1781 15.8111 14.6446 14.8L12.5687 13.5866ZM16.6739 15.9666C16.0674 17.4133 15.842 18.93 15.9975 20.5166C17.4281 19.8633 18.6254 18.9066 19.5895 17.6466L16.6739 15.9666ZM8.4868 11.23C7.8337 12.1322 7.07564 12.9216 6.21262 13.5983C5.34959 14.275 4.4127 14.8155 3.40195 15.22C3.71295 16.06 4.1328 16.8377 4.6615 17.5533C5.1902 18.2688 5.80443 18.8988 6.50418 19.4433L10.5627 12.42L8.4868 11.23ZM21.4322 11.09L21.129 11.23C19.8228 11.8677 18.7265 12.77 17.8401 13.9366L20.7558 15.6166C21.2378 14.4655 21.4788 13.26 21.4788 12C21.4788 11.6888 21.4633 11.3855 21.4322 11.09ZM2.81883 12C2.81883 12.3111 2.83438 12.6144 2.86548 12.91C4.31163 12.2722 5.50898 11.3233 6.45753 10.0633L3.5419 8.38329C3.05985 9.5344 2.81883 10.74 2.81883 12ZM17.7935 4.55663L13.7349 11.58L15.8109 12.77C16.464 11.8677 17.222 11.0783 18.085 10.4016C18.9481 9.72496 19.885 9.17663 20.8957 8.75663C20.3204 7.18551 19.3796 5.86329 18.0734 4.78996L17.7935 4.55663ZM12.1488 2.66663C11.6201 2.66663 11.0914 2.71329 10.5627 2.80663C10.7182 3.87996 10.7221 4.96107 10.5744 6.04996C10.4267 7.13885 10.1196 8.18885 9.65305 9.19996L11.729 10.4133L15.7642 3.38996C14.6135 2.90774 13.4084 2.66663 12.1488 2.66663ZM8.3002 3.48329L8.09028 3.59996C6.73743 4.25329 5.61005 5.17107 4.70815 6.35329L7.62378 8.03329C8.23023 6.58663 8.4557 5.06996 8.3002 3.48329Z" fill="#3B82F6"/>
</svg>
