<svg width="16" height="18" viewBox="0 0 16 18" fill="none" xmlns="http://www.w3.org/2000/svg">
<path d="M11.5447 0.113281V1.89062H10.6566V4.76992C10.6566 5.81263 10.8757 6.80794 11.3138 7.75586L15.115 16.0027C15.2689 16.3345 15.2808 16.6722 15.1505 17.0158C15.0202 17.3594 14.7893 17.6083 14.4578 17.7623C14.2801 17.8452 14.0966 17.8867 13.9071 17.8867H2.0773C1.71021 17.8867 1.39641 17.7564 1.13589 17.4957C0.875376 17.235 0.745117 16.921 0.745117 16.5537C0.745117 16.3641 0.786563 16.1805 0.869455 16.0027L4.67063 7.75586C5.10877 6.80794 5.32784 5.81263 5.32784 4.76992V1.89062H4.43972V0.113281H11.5447ZM9.21783 7.22266H6.7666C6.67187 7.54258 6.55938 7.8625 6.42912 8.18242L6.28702 8.50234L2.77004 16.1094H13.2144L9.69742 8.50234C9.50795 8.08763 9.34809 7.66107 9.21783 7.22266ZM7.10409 4.76992C7.10409 4.99505 7.09817 5.22018 7.08633 5.44531H8.8981L8.88034 5.12539V4.76992V1.89062H7.10409V4.76992Z" fill="#3B82F6"/>
</svg>
