<svg width="15" height="18" viewBox="0 0 15 18" fill="none" xmlns="http://www.w3.org/2000/svg">
<path d="M3.33445 4.00004V1.50004C3.33445 1.26671 3.41499 1.06949 3.57606 0.908375C3.73713 0.747264 3.9343 0.666708 4.16758 0.666708H14.1651C14.3984 0.666708 14.5955 0.747264 14.7566 0.908375C14.9177 1.06949 14.9982 1.26671 14.9982 1.50004V13.1667C14.9982 13.4 14.9177 13.5973 14.7566 13.7584C14.5955 13.9195 14.3984 14 14.1651 14H11.6657V16.5C11.6657 16.7334 11.5852 16.9306 11.4241 17.0917C11.263 17.2528 11.0659 17.3334 10.8326 17.3334H0.835078C0.601803 17.3334 0.40463 17.2528 0.243559 17.0917C0.0824885 16.9306 0.00195312 16.7334 0.00195312 16.5V4.83337C0.00195312 4.60004 0.0852656 4.40282 0.251891 4.24171C0.418516 4.0806 0.612911 4.00004 0.835078 4.00004H3.33445ZM1.6682 5.66671V15.6667H9.99945V5.66671H1.6682ZM5.0007 4.00004H11.6657V12.3334H13.332V2.33337H5.0007V4.00004Z" fill="#6247FF"/>
</svg>
