<svg width="18" height="18" viewBox="0 0 18 18" fill="none" xmlns="http://www.w3.org/2000/svg">
<path d="M8.99209 17.8867C7.78424 17.8867 6.62968 17.6557 5.5284 17.1936C4.47449 16.7433 3.53604 16.1064 2.71305 15.2829C1.89005 14.4594 1.25356 13.5204 0.803577 12.4658C0.341752 11.3639 0.11084 10.2086 0.11084 9C0.11084 7.79141 0.341752 6.63613 0.803577 5.53418C1.25356 4.47962 1.89005 3.54059 2.71305 2.71709C3.53604 1.89359 4.47449 1.2567 5.5284 0.806444C6.62968 0.344336 7.78424 0.113281 8.99209 0.113281C10.1999 0.113281 11.3545 0.344336 12.4558 0.806444C13.5097 1.2567 14.4481 1.89359 15.2711 2.71709C16.0941 3.54059 16.7306 4.47962 17.1806 5.53418C17.6424 6.63613 17.8733 7.79141 17.8733 9C17.8733 10.2086 17.6424 11.3639 17.1806 12.4658C16.7306 13.5204 16.0941 14.4594 15.2711 15.2829C14.4481 16.1064 13.5097 16.7433 12.4558 17.1936C11.3545 17.6557 10.1999 17.8867 8.99209 17.8867ZM8.99209 16.1094C10.2828 16.1094 11.4788 15.7835 12.5801 15.1318C13.6459 14.5038 14.4925 13.6566 15.1202 12.5902C15.7714 11.4883 16.0971 10.2915 16.0971 9C16.0971 7.70846 15.7714 6.51172 15.1202 5.40977C14.4925 4.34336 13.6459 3.49616 12.5801 2.86816C11.4788 2.21647 10.2828 1.89062 8.99209 1.89062C7.70135 1.89062 6.50534 2.21647 5.40407 2.86816C4.33832 3.49616 3.49164 4.34336 2.86403 5.40977C2.21274 6.51172 1.88709 7.70846 1.88709 9C1.88709 10.2915 2.21274 11.4883 2.86403 12.5902C3.49164 13.6566 4.33832 14.5038 5.40407 15.1318C6.50534 15.7835 7.70135 16.1094 8.99209 16.1094ZM4.55147 9.88867H6.32771C6.32771 10.3745 6.44613 10.8218 6.68297 11.2306C6.9198 11.6394 7.24248 11.9622 7.65102 12.1992C8.05956 12.4362 8.50658 12.5547 8.99209 12.5547C9.4776 12.5547 9.92462 12.4362 10.3332 12.1992C10.7417 11.9622 11.0644 11.6394 11.3012 11.2306C11.538 10.8218 11.6565 10.3745 11.6565 9.88867H13.4327C13.4327 10.6944 13.2344 11.4379 12.8377 12.1192C12.441 12.8006 11.9022 13.3397 11.2213 13.7366C10.5404 14.1336 9.79732 14.332 8.99209 14.332C8.18686 14.332 7.44379 14.1336 6.7629 13.7366C6.082 13.3397 5.5432 12.8006 5.14651 12.1192C4.74981 11.4379 4.55147 10.6944 4.55147 9.88867ZM5.43959 8.11133C5.0725 8.11133 4.75869 7.98099 4.49818 7.72031C4.23766 7.45963 4.1074 7.14564 4.1074 6.77832C4.1074 6.411 4.23766 6.097 4.49818 5.83633C4.75869 5.57565 5.0725 5.44531 5.43959 5.44531C5.80668 5.44531 6.12049 5.57565 6.381 5.83633C6.64152 6.097 6.77178 6.411 6.77178 6.77832C6.77178 7.14564 6.64152 7.45963 6.381 7.72031C6.12049 7.98099 5.80668 8.11133 5.43959 8.11133ZM12.5446 8.11133C12.1775 8.11133 11.8637 7.98099 11.6032 7.72031C11.3427 7.45963 11.2124 7.14564 11.2124 6.77832C11.2124 6.411 11.3427 6.097 11.6032 5.83633C11.8637 5.57565 12.1775 5.44531 12.5446 5.44531C12.9117 5.44531 13.2255 5.57565 13.486 5.83633C13.7465 6.097 13.8768 6.411 13.8768 6.77832C13.8768 7.14564 13.7465 7.45963 13.486 7.72031C13.2255 7.98099 12.9117 8.11133 12.5446 8.11133Z" fill="#22C55E"/>
</svg>
