<svg width="9" height="18" viewBox="0 0 9 18" fill="none" xmlns="http://www.w3.org/2000/svg">
<path d="M5.96664 10.25H8.04945L8.88258 6.91671H5.96664V5.25004C5.96664 4.87226 5.9833 4.60004 6.01663 4.43337C6.08328 4.16671 6.22769 3.96115 6.44985 3.81671C6.71645 3.66115 7.1108 3.58337 7.63289 3.58337H8.88258V0.783375C8.69374 0.761153 8.39381 0.738931 7.9828 0.716708C7.47182 0.683375 6.9775 0.666708 6.49984 0.666708C5.73337 0.666708 5.05853 0.819486 4.47535 1.12504C3.89216 1.4306 3.44505 1.86671 3.13402 2.43337C2.80077 3.04449 2.63414 3.76115 2.63414 4.58337V6.91671H0.134766V10.25H2.63414V17.3334H5.96664V10.25Z" fill="white"/>
</svg>
