<svg width="9" height="10" viewBox="0 0 9 10" fill="none" xmlns="http://www.w3.org/2000/svg">
<path d="M4.60375 0.84375C4.68542 0.84375 4.76125 0.865625 4.83125 0.909375C4.90125 0.953125 4.95667 1.01292 4.9975 1.08875L5.3125 1.71875H7.9375C8.06 1.71875 8.16354 1.76104 8.24813 1.84562C8.33271 1.93021 8.375 2.03375 8.375 2.15625V6.96875C8.375 7.09125 8.33271 7.19479 8.24813 7.27937C8.16354 7.36396 8.06 7.40625 7.9375 7.40625H5.14625C5.06458 7.40625 4.98875 7.38437 4.91875 7.34063C4.84875 7.29688 4.79333 7.23708 4.7525 7.16125L4.4375 6.53125H1.375V9.15625H0.5V0.84375H4.60375ZM4.3325 1.71875H1.375V5.65625H4.98L5.4175 6.53125H7.5V2.59375H4.77L4.3325 1.71875Z" fill="#9CA3AF"/>
</svg>
