<svg width="19" height="18" viewBox="0 0 19 18" fill="none" xmlns="http://www.w3.org/2000/svg">
<path d="M1.72217 5.00098C2.20768 4.04121 2.85305 3.19105 3.65829 2.45049C4.46352 1.70993 5.37533 1.13822 6.39371 0.735352C7.43578 0.320637 8.52521 0.113281 9.66201 0.113281C10.8343 0.113281 11.9297 0.320637 12.9481 0.735352C13.9309 1.12637 14.8191 1.68919 15.6124 2.42383L13.0546 4.9832C12.5928 4.54479 12.0748 4.21302 11.5004 3.98789C10.9261 3.76276 10.3133 3.6502 9.66201 3.6502C8.90414 3.6502 8.1818 3.81016 7.49499 4.13008C6.84369 4.43815 6.27233 4.87064 5.78091 5.42754C5.28948 5.98444 4.92534 6.61243 4.68851 7.31152C4.51089 7.86842 4.42207 8.43125 4.42207 9C4.42207 9.56875 4.51089 10.1316 4.68851 10.6885C4.92534 11.3876 5.28948 12.0156 5.78091 12.5725C6.27233 13.1294 6.84369 13.5618 7.49499 13.8699C8.1818 14.1898 8.90414 14.3498 9.66201 14.3498C10.8225 14.3498 11.8231 14.0654 12.6639 13.4967C13.1375 13.1886 13.5254 12.8035 13.8273 12.3414C14.1293 11.8793 14.3335 11.3698 14.4401 10.8129H9.66201V7.38262H18.0281C18.1347 7.97506 18.188 8.57936 18.188 9.19551C18.188 10.5344 17.9601 11.7638 17.5042 12.8835C17.0483 14.0032 16.394 14.9541 15.5414 15.7361C14.7954 16.4234 13.9309 16.9507 12.9481 17.318C11.9415 17.6971 10.8462 17.8867 9.66201 17.8867C8.52521 17.8867 7.43578 17.6794 6.39371 17.2646C5.37533 16.8618 4.46352 16.2901 3.65829 15.5495C2.85305 14.809 2.20768 13.9588 1.72217 12.999C1.09457 11.743 0.780762 10.41 0.780762 9C0.780762 7.58997 1.09457 6.25697 1.72217 5.00098Z" fill="#374151"/>
</svg>
