<svg width="16" height="18" viewBox="0 0 16 18" fill="none" xmlns="http://www.w3.org/2000/svg">
<path d="M8.88809 15.5875H14.2168V7.5717L7.99996 2.73733L1.78309 7.5717V15.5875H7.11184V10.2555H8.88809V15.5875ZM15.9931 16.4762C15.9931 16.725 15.9072 16.9353 15.7355 17.1072C15.5638 17.279 15.3536 17.3649 15.105 17.3649H0.894961C0.646286 17.3649 0.436096 17.279 0.264392 17.1072C0.092688 16.9353 0.00683594 16.725 0.00683594 16.4762V7.14514C0.00683594 6.84892 0.119332 6.61194 0.344323 6.43421L7.44932 0.906666C7.61511 0.788176 7.79865 0.728931 7.99996 0.728931C8.20127 0.728931 8.38482 0.788176 8.5506 0.906666L15.6556 6.43421C15.8806 6.61194 15.9931 6.84892 15.9931 7.14514V16.4762Z" fill="#6B7280"/>
</svg>
