<svg width="11" height="10" viewBox="0 0 11 10" fill="none" xmlns="http://www.w3.org/2000/svg">
<path d="M5.25 10C4.57 10 3.92 9.87 3.3 9.61C2.70667 9.35667 2.17833 8.99833 1.715 8.535C1.25167 8.07167 0.893333 7.54333 0.64 6.95C0.38 6.33 0.25 5.68 0.25 5C0.25 4.32 0.38 3.67 0.64 3.05C0.893333 2.45667 1.25167 1.92833 1.715 1.465C2.17833 1.00167 2.70667 0.643333 3.3 0.39C3.92 0.13 4.57 0 5.25 0C5.93 0 6.58 0.13 7.2 0.39C7.79333 0.643333 8.32167 1.00167 8.785 1.465C9.24833 1.92833 9.60667 2.45667 9.86 3.05C10.12 3.67 10.25 4.32 10.25 5C10.25 5.68 10.12 6.33 9.86 6.95C9.60667 7.54333 9.24833 8.07167 8.785 8.535C8.32167 8.99833 7.79333 9.35667 7.2 9.61C6.58 9.87 5.93 10 5.25 10ZM5.25 9C5.97667 9 6.65 8.81667 7.27 8.45C7.87 8.09667 8.34667 7.62 8.7 7.02C9.06667 6.4 9.25 5.72667 9.25 5C9.25 4.27333 9.06667 3.6 8.7 2.98C8.34667 2.38 7.87 1.90333 7.27 1.55C6.65 1.18333 5.97667 1 5.25 1C4.52333 1 3.85 1.18333 3.23 1.55C2.63 1.90333 2.15333 2.38 1.8 2.98C1.43333 3.6 1.25 4.27333 1.25 5C1.25 5.72667 1.43333 6.4 1.8 7.02C2.15333 7.62 2.63 8.09667 3.23 8.45C3.85 8.81667 4.52333 9 5.25 9ZM4.75 2.5H5.75V3.5H4.75V2.5ZM4.75 4.5H5.75V7.5H4.75V4.5Z" fill="#4F46E5"/>
</svg>
