<svg width="19" height="18" viewBox="0 0 19 18" fill="none" xmlns="http://www.w3.org/2000/svg">
<path d="M9.49977 0.96672C10.6884 0.96672 11.8214 1.1445 12.8989 1.50005C13.9542 1.8445 14.8845 2.33061 15.6899 2.95839C16.4952 3.58616 17.1201 4.30561 17.5644 5.11672C18.0199 5.97227 18.2476 6.86116 18.2476 7.78339C18.2476 8.70561 18.0199 9.58894 17.5644 10.4334C17.1201 11.2445 16.4952 11.9667 15.6899 12.6001C14.8845 13.2334 13.9542 13.7223 12.8989 14.0667C11.8214 14.4223 10.6884 14.6001 9.49977 14.6001C9.02211 14.6001 8.54445 14.5667 8.06679 14.5001L4.38438 16.9167C4.17332 17.0278 4.03447 17.0612 3.96782 17.0167C3.90117 16.9723 3.91227 16.8223 4.00114 16.5667L4.73429 13.5001C3.51237 12.8778 2.5515 12.0723 1.85168 11.0834C1.11853 10.0612 0.751953 8.96116 0.751953 7.78339C0.751953 6.86116 0.979674 5.97227 1.43512 5.11672C1.87945 4.30561 2.50429 3.58616 3.30965 2.95839C4.115 2.33061 5.04532 1.8445 6.10062 1.50005C7.17812 1.1445 8.31117 0.96672 9.49977 0.96672ZM14.4152 7.66672L15.6482 6.48339C15.726 6.41672 15.7649 6.32783 15.7649 6.21672C15.7649 6.10561 15.7288 6.01116 15.6566 5.93339C15.5844 5.85561 15.4927 5.81672 15.3816 5.81672C15.2705 5.81672 15.1761 5.85005 15.0984 5.91672L13.4988 7.48339V6.20005C13.4988 6.08894 13.4599 5.9945 13.3821 5.91672C13.3044 5.83894 13.2099 5.80005 13.0989 5.80005C12.9878 5.80005 12.8934 5.83894 12.8156 5.91672C12.7378 5.9945 12.699 6.08894 12.699 6.20005V8.31672C12.6879 8.38339 12.6879 8.45005 12.699 8.51672V9.71672C12.699 9.81672 12.7378 9.90561 12.8156 9.98339C12.8934 10.0612 12.9878 10.1001 13.0989 10.1001C13.2099 10.1001 13.3044 10.0612 13.3821 9.98339C13.4599 9.90561 13.4988 9.81672 13.4988 9.71672V8.56672L13.8487 8.23339L15.0317 9.91672C15.1095 10.0278 15.2206 10.0834 15.365 10.0834C15.4427 10.0834 15.5149 10.0612 15.5816 10.0167C15.6704 9.95005 15.726 9.86394 15.7482 9.75839C15.7704 9.65283 15.7482 9.55561 15.6816 9.46672L14.4152 7.66672ZM11.9492 9.28339H10.7328V6.20005C10.7328 6.10005 10.6967 6.01116 10.6245 5.93339C10.5523 5.85561 10.4606 5.81672 10.3496 5.81672C10.2385 5.81672 10.144 5.85561 10.0663 5.93339C9.98853 6.01116 9.94965 6.10005 9.94965 6.20005V9.66672C9.94965 9.77783 9.98853 9.87228 10.0663 9.95005C10.144 10.0278 10.2385 10.0667 10.3496 10.0667H11.9492C12.0602 10.0667 12.1547 10.0278 12.2324 9.95005C12.3102 9.87228 12.3491 9.78061 12.3491 9.67505C12.3491 9.5695 12.3102 9.47783 12.2324 9.40005C12.1547 9.32228 12.0602 9.28339 11.9492 9.28339ZM7.0837 8.36672L7.65023 6.95005L8.18343 8.36672H7.0837ZM9.18318 8.78339C9.18318 8.77228 9.18318 8.76672 9.18318 8.76672C9.18318 8.66672 9.1443 8.57783 9.06654 8.50005L8.20009 6.16672C8.16677 6.0445 8.10012 5.94727 8.00014 5.87505C7.90017 5.80283 7.79186 5.76672 7.67522 5.76672C7.55858 5.76672 7.45305 5.80005 7.35863 5.86672C7.26421 5.93339 7.18923 6.02227 7.13369 6.13339L5.7507 9.53339C5.70627 9.63339 5.70627 9.73339 5.7507 9.83339C5.79514 9.93339 5.86734 10.0056 5.96732 10.0501C6.06729 10.0945 6.16727 10.0945 6.26724 10.0501C6.36722 10.0056 6.43942 9.93339 6.48385 9.83339L6.75045 9.15005H8.48335L8.73329 9.81672C8.75551 9.8945 8.80272 9.95839 8.87492 10.0084C8.94713 10.0584 9.02211 10.0834 9.09987 10.0834C9.1443 10.0834 9.18873 10.0723 9.23317 10.0501C9.33314 10.0167 9.40534 9.95005 9.44978 9.85005C9.49421 9.75005 9.49977 9.65005 9.46644 9.55005L9.18318 8.78339ZM6.4172 6.21672C6.4172 6.10561 6.37832 6.01116 6.30057 5.93339C6.22281 5.85561 6.12839 5.81672 6.0173 5.81672H3.31798C3.20689 5.81672 3.11247 5.85561 3.03472 5.93339C2.95696 6.01116 2.91808 6.10283 2.91808 6.20839C2.91808 6.31394 2.95696 6.40561 3.03472 6.48339C3.11247 6.56116 3.20689 6.60005 3.31798 6.60005H4.2844V9.71672C4.2844 9.82783 4.32328 9.92228 4.40104 10.0001C4.4788 10.0778 4.57044 10.1167 4.67597 10.1167C4.7815 10.1167 4.87314 10.0778 4.9509 10.0001C5.02866 9.92228 5.06754 9.82783 5.06754 9.71672V6.60005H6.0173C6.12839 6.60005 6.22281 6.56116 6.30057 6.48339C6.37832 6.40561 6.4172 6.31672 6.4172 6.21672Z" fill="black"/>
</svg>
