<svg width="20" height="18" viewBox="0 0 20 18" fill="none" xmlns="http://www.w3.org/2000/svg">
<path d="M10.1251 0.433233C11.3922 0.433233 12.6 0.622815 13.7487 1.00198C14.8736 1.3693 15.8654 1.88769 16.7239 2.55716C17.5824 3.22662 18.2485 3.99384 18.7222 4.85882C19.2077 5.77119 19.4504 6.71911 19.4504 7.70257C19.4504 8.68603 19.2077 9.62802 18.7222 10.5285C18.2485 11.3935 17.5824 12.1637 16.7239 12.8391C15.8654 13.5145 14.8736 14.0358 13.7487 14.4032C12.6 14.7823 11.3922 14.9719 10.1251 14.9719C9.61593 14.9719 9.10673 14.9364 8.59754 14.8653L4.67203 17.4424C4.44704 17.5609 4.29902 17.5964 4.22797 17.5491C4.15692 17.5017 4.16876 17.3417 4.26349 17.0692L5.04504 13.7989C3.74246 13.1353 2.71815 12.2763 1.97213 11.2217C1.19058 10.1316 0.799805 8.95856 0.799805 7.70257C0.799805 6.71911 1.04256 5.77119 1.52807 4.85882C2.00173 3.99384 2.66783 3.22662 3.52635 2.55716C4.38487 1.88769 5.37661 1.3693 6.50157 1.00198C7.65021 0.622815 8.85806 0.433233 10.1251 0.433233ZM15.3651 7.57815L16.6795 6.31624C16.7624 6.24515 16.8038 6.15035 16.8038 6.03187C16.8038 5.91338 16.7653 5.81266 16.6884 5.72972C16.6114 5.64677 16.5137 5.6053 16.3953 5.6053C16.2769 5.6053 16.1762 5.64085 16.0933 5.71194L14.3881 7.38265V6.01409C14.3881 5.8956 14.3467 5.79489 14.2638 5.71194C14.1809 5.629 14.0802 5.58753 13.9618 5.58753C13.8434 5.58753 13.7427 5.629 13.6599 5.71194C13.577 5.79489 13.5355 5.8956 13.5355 6.01409V8.27132C13.5237 8.34241 13.5237 8.41351 13.5355 8.4846V9.76429C13.5355 9.87093 13.577 9.96572 13.6599 10.0487C13.7427 10.1316 13.8434 10.1731 13.9618 10.1731C14.0802 10.1731 14.1809 10.1316 14.2638 10.0487C14.3467 9.96572 14.3881 9.87093 14.3881 9.76429V8.53792L14.7611 8.18245L16.0223 9.97757C16.1052 10.0961 16.2236 10.1553 16.3775 10.1553C16.4604 10.1553 16.5374 10.1316 16.6084 10.0842C16.7032 10.0131 16.7624 9.92129 16.7861 9.80872C16.8097 9.69616 16.7861 9.59248 16.715 9.49769L15.3651 7.57815ZM12.7362 9.30218H11.4395V6.01409C11.4395 5.90745 11.4011 5.81266 11.3241 5.72972C11.2471 5.64677 11.1494 5.6053 11.031 5.6053C10.9126 5.6053 10.8119 5.64677 10.729 5.72972C10.6462 5.81266 10.6047 5.90745 10.6047 6.01409V9.71097C10.6047 9.82946 10.6462 9.93017 10.729 10.0131C10.8119 10.0961 10.9126 10.1375 11.031 10.1375H12.7362C12.8546 10.1375 12.9553 10.0961 13.0382 10.0131C13.1211 9.93017 13.1625 9.83242 13.1625 9.71985C13.1625 9.60729 13.1211 9.50954 13.0382 9.42659C12.9553 9.34365 12.8546 9.30218 12.7362 9.30218ZM7.54955 8.32464L8.15348 6.8139L8.72188 8.32464H7.54955ZM9.78763 8.76898C9.78763 8.75713 9.78763 8.7512 9.78763 8.7512C9.78763 8.64456 9.74618 8.54977 9.66329 8.46683L8.73964 5.97855C8.70412 5.84821 8.63307 5.74453 8.52649 5.66751C8.41992 5.59049 8.30446 5.55198 8.18012 5.55198C8.05579 5.55198 7.94329 5.58753 7.84264 5.65862C7.74198 5.72972 7.66205 5.82451 7.60284 5.943L6.12855 9.56878C6.08119 9.67542 6.08119 9.78206 6.12855 9.8887C6.17592 9.99534 6.25289 10.0724 6.35947 10.1198C6.46604 10.1672 6.57262 10.1672 6.67919 10.1198C6.78577 10.0724 6.86274 9.99534 6.9101 9.8887L7.1943 9.15999H9.0416L9.30804 9.87093C9.33173 9.95387 9.38205 10.022 9.45902 10.0753C9.53599 10.1286 9.61593 10.1553 9.69882 10.1553C9.74618 10.1553 9.79355 10.1435 9.84092 10.1198C9.94749 10.0842 10.0245 10.0131 10.0718 9.90648C10.1192 9.79983 10.1251 9.69319 10.0896 9.58655L9.78763 8.76898ZM6.83906 6.03187C6.83906 5.91338 6.79761 5.81266 6.71472 5.72972C6.63183 5.64677 6.53117 5.6053 6.41276 5.6053H3.53523C3.41681 5.6053 3.31616 5.64677 3.23327 5.72972C3.15038 5.81266 3.10893 5.91041 3.10893 6.02298C3.10893 6.13554 3.15038 6.2333 3.23327 6.31624C3.31616 6.39918 3.41681 6.44065 3.53523 6.44065H4.56545V9.76429C4.56545 9.88278 4.6069 9.98349 4.68979 10.0664C4.77268 10.1494 4.87038 10.1909 4.98287 10.1909C5.09537 10.1909 5.19306 10.1494 5.27595 10.0664C5.35885 9.98349 5.40029 9.88278 5.40029 9.76429V6.44065H6.41276C6.53117 6.44065 6.63183 6.39918 6.71472 6.31624C6.79761 6.2333 6.83906 6.13851 6.83906 6.03187Z" fill="#3C1E1E"/>
</svg>
