<svg width="16" height="20" viewBox="0 0 16 20" fill="none" xmlns="http://www.w3.org/2000/svg">
<path d="M6.19819 14.8877H7.10408V10.4443H8.88033V14.8877H9.78622C9.84543 14.3782 10.0112 13.8805 10.2836 13.3947C10.5204 12.9563 10.8697 12.4824 11.3316 11.9729L11.5802 11.7062C11.9236 11.3508 12.1131 11.1553 12.1486 11.1197C12.5276 10.6458 12.8177 10.1244 13.019 9.55566C13.2203 8.98691 13.321 8.39447 13.321 7.77832C13.321 6.81855 13.0782 5.92396 12.5927 5.09453C12.119 4.2888 11.4796 3.64896 10.6743 3.175C9.84543 2.68919 8.95138 2.44629 7.99221 2.44629C7.03303 2.44629 6.13899 2.68919 5.31007 3.175C4.50484 3.64896 3.86539 4.2888 3.39172 5.09453C2.90621 5.92396 2.66346 6.81855 2.66346 7.77832C2.66346 8.39447 2.76411 8.98691 2.96542 9.55566C3.16673 10.1244 3.45685 10.6398 3.83578 11.102C3.87131 11.1493 4.06077 11.3508 4.40418 11.7062L4.65286 11.9729C5.11468 12.4824 5.46401 12.9563 5.70084 13.3947C5.9732 13.8805 6.13899 14.3782 6.19819 14.8877ZM6.21596 16.665V17.5537H9.76846V16.665H6.21596ZM2.45031 12.2217C1.95296 11.6055 1.5681 10.9242 1.29574 10.1777C1.02339 9.40755 0.887207 8.60775 0.887207 7.77832C0.887207 6.48678 1.21285 5.29004 1.86414 4.18809C2.49175 3.12168 3.33843 2.27448 4.40418 1.64648C5.50546 0.994791 6.70147 0.668945 7.99221 0.668945C9.28295 0.668945 10.479 0.994791 11.5802 1.64648C12.646 2.27448 13.4927 3.12168 14.1203 4.18809C14.7716 5.29004 15.0972 6.48678 15.0972 7.77832C15.0972 8.60775 14.961 9.40755 14.6887 10.1777C14.4163 10.9242 14.0315 11.6055 13.5341 12.2217C13.4512 12.3283 13.2854 12.5061 13.0368 12.7549C12.5749 13.2407 12.2493 13.6258 12.0598 13.9102C11.7164 14.4078 11.5447 14.8818 11.5447 15.332V17.5537C11.5447 17.8736 11.4648 18.1699 11.3049 18.4424C11.1451 18.7149 10.9289 18.9312 10.6566 19.0911C10.3842 19.2511 10.0882 19.3311 9.76846 19.3311H6.21596C5.89623 19.3311 5.60019 19.2511 5.32783 19.0911C5.05547 18.9312 4.83936 18.7149 4.6795 18.4424C4.51964 18.1699 4.43971 17.8736 4.43971 17.5537V15.332C4.43971 14.8818 4.268 14.4078 3.92459 13.9102C3.73513 13.6258 3.40948 13.2407 2.94766 12.7549C2.69898 12.5061 2.5332 12.3283 2.45031 12.2217Z" fill="#4F46E5"/>
</svg>
