<svg width="11" height="14" viewBox="0 0 11 14" fill="none" xmlns="http://www.w3.org/2000/svg">
<path d="M3.98222 10.6667H4.6618V7.33333H5.9943V10.6667H6.67387C6.71829 10.2844 6.84266 9.91111 7.04697 9.54667C7.22464 9.21778 7.4867 8.86222 7.83315 8.48L8.0197 8.28C8.27731 8.01333 8.41945 7.86667 8.4461 7.84C8.73036 7.48444 8.94801 7.09333 9.09902 6.66667C9.25004 6.24 9.32555 5.79556 9.32555 5.33333C9.32555 4.61333 9.14344 3.94222 8.77922 3.32C8.42389 2.71556 7.94419 2.23556 7.34012 1.88C6.71829 1.51556 6.0476 1.33333 5.32805 1.33333C4.6085 1.33333 3.93781 1.51556 3.31597 1.88C2.71191 2.23556 2.23221 2.71556 1.87687 3.32C1.51266 3.94222 1.33055 4.61333 1.33055 5.33333C1.33055 5.79556 1.40606 6.24 1.55707 6.66667C1.70809 7.09333 1.92573 7.48 2.21 7.82667C2.23665 7.86222 2.37878 8.01333 2.6364 8.28L2.82295 8.48C3.1694 8.86222 3.43146 9.21778 3.60912 9.54667C3.81344 9.91111 3.93781 10.2844 3.98222 10.6667ZM3.99555 12V12.6667H6.66055V12H3.99555ZM1.17065 8.66667C0.797547 8.20444 0.508839 7.69333 0.304522 7.13333C0.100205 6.55556 -0.00195312 5.95555 -0.00195312 5.33333C-0.00195312 4.36444 0.242339 3.46667 0.730922 2.64C1.20174 1.84 1.8369 1.20444 2.6364 0.733333C3.46255 0.244444 4.35976 0 5.32805 0C6.29633 0 7.19355 0.244444 8.0197 0.733333C8.8192 1.20444 9.45436 1.84 9.92517 2.64C10.4138 3.46667 10.658 4.36444 10.658 5.33333C10.658 5.95555 10.5559 6.55556 10.3516 7.13333C10.1473 7.69333 9.85855 8.20444 9.48545 8.66667C9.42326 8.74667 9.2989 8.88 9.11235 9.06667C8.7659 9.43111 8.52161 9.72 8.37947 9.93333C8.12186 10.3067 7.99305 10.6622 7.99305 11V12.6667C7.99305 12.9067 7.93308 13.1289 7.81316 13.3333C7.69323 13.5378 7.53111 13.7 7.3268 13.82C7.12248 13.94 6.9004 14 6.66055 14H3.99555C3.7557 14 3.53361 13.94 3.3293 13.82C3.12498 13.7 2.96286 13.5378 2.84293 13.3333C2.72301 13.1289 2.66305 12.9067 2.66305 12.6667V11C2.66305 10.6622 2.53424 10.3067 2.27662 9.93333C2.13449 9.72 1.8902 9.43111 1.54375 9.06667C1.3572 8.88 1.23283 8.74667 1.17065 8.66667Z" fill="#F59E0B"/>
</svg>
