<svg width="60" height="51" viewBox="0 0 60 51" fill="none" xmlns="http://www.w3.org/2000/svg">
<path d="M14.372 25.972C14.684 25.972 14.924 26.116 15.092 26.404C15.284 26.692 15.38 27.088 15.38 27.592C15.38 28.552 15.152 29.296 14.696 29.824C13.664 31.096 12.536 32.14 11.312 32.956C10.112 33.772 8.744 34.18 7.208 34.18C5.096 34.18 3.524 33.22 2.492 31.3C1.484 29.38 0.98 26.896 0.98 23.848C0.98 20.92 1.352 17.584 2.096 13.84C2.864 10.096 3.98 6.88 5.444 4.192C6.932 1.504 8.696 0.159998 10.736 0.159998C11.888 0.159998 12.788 0.699998 13.436 1.78C14.108 2.836 14.444 4.36 14.444 6.352C14.444 9.208 13.652 12.52 12.068 16.288C10.484 20.056 8.336 23.788 5.624 27.484C5.792 28.468 6.068 29.176 6.452 29.608C6.836 30.016 7.34 30.22 7.964 30.22C8.948 30.22 9.812 29.944 10.556 29.392C11.3 28.816 12.248 27.844 13.4 26.476C13.688 26.14 14.012 25.972 14.372 25.972ZM9.944 3.724C9.392 3.724 8.768 4.72 8.072 6.712C7.376 8.704 6.764 11.176 6.236 14.128C5.708 17.08 5.42 19.912 5.372 22.624C7.076 19.816 8.432 17.008 9.44 14.2C10.448 11.368 10.952 8.788 10.952 6.46C10.952 4.636 10.616 3.724 9.944 3.724ZM30.8302 22.948C31.1422 22.948 31.3822 23.104 31.5502 23.416C31.7182 23.728 31.8022 24.124 31.8022 24.604C31.8022 25.756 31.4542 26.44 30.7582 26.656C29.3182 27.16 27.7342 27.448 26.0062 27.52C25.5502 29.536 24.6502 31.156 23.3062 32.38C21.9622 33.58 20.4382 34.18 18.7342 34.18C17.2942 34.18 16.0582 33.832 15.0262 33.136C14.0182 32.44 13.2502 31.516 12.7222 30.364C12.1942 29.212 11.9302 27.964 11.9302 26.62C11.9302 24.796 12.2782 23.176 12.9742 21.76C13.6702 20.32 14.6302 19.204 15.8542 18.412C17.0782 17.596 18.4342 17.188 19.9222 17.188C21.7462 17.188 23.2102 17.824 24.3142 19.096C25.4422 20.344 26.1022 21.892 26.2942 23.74C27.4222 23.668 28.7662 23.428 30.3262 23.02C30.5182 22.972 30.6862 22.948 30.8302 22.948ZM19.0222 30.364C19.7902 30.364 20.4502 30.052 21.0022 29.428C21.5782 28.804 21.9622 27.904 22.1542 26.728C21.4102 26.224 20.8342 25.564 20.4262 24.748C20.0422 23.932 19.8502 23.068 19.8502 22.156C19.8502 21.772 19.8862 21.388 19.9582 21.004H19.7782C18.8182 21.004 18.0142 21.472 17.3662 22.408C16.7422 23.32 16.4302 24.616 16.4302 26.296C16.4302 27.616 16.6822 28.624 17.1862 29.32C17.7142 30.016 18.3262 30.364 19.0222 30.364ZM47.1444 26.044C47.4564 26.044 47.6964 26.2 47.8644 26.512C48.0564 26.8 48.1524 27.172 48.1524 27.628C48.1524 28.18 48.0684 28.612 47.9004 28.924C47.7324 29.236 47.4684 29.512 47.1084 29.752C45.0444 31.144 43.5324 32.176 42.5724 32.848L40.2684 34.396C39.3564 39.364 38.1564 43.264 36.6684 46.096C35.2044 48.952 33.3324 50.38 31.0524 50.38C29.8284 50.38 28.8324 49.996 28.0644 49.228C27.2964 48.484 26.9124 47.5 26.9124 46.276C26.9124 44.572 27.5844 42.736 28.9284 40.768C30.2724 38.824 32.7924 36.424 36.4884 33.568L36.7044 32.164C36.2964 32.812 35.7564 33.316 35.0844 33.676C34.4364 34.012 33.7884 34.18 33.1404 34.18C31.6524 34.18 30.4644 33.64 29.5764 32.56C28.6884 31.48 28.2444 30.064 28.2444 28.312C28.2444 26.392 28.6884 24.58 29.5764 22.876C30.4644 21.148 31.6404 19.768 33.1044 18.736C34.5924 17.68 36.1644 17.152 37.8204 17.152C38.3484 17.152 38.6964 17.26 38.8644 17.476C39.0564 17.668 39.2124 18.028 39.3324 18.556C39.7884 18.46 40.3164 18.412 40.9164 18.412C41.5164 18.412 41.9364 18.508 42.1764 18.7C42.4404 18.868 42.5724 19.216 42.5724 19.744C42.5724 20.032 42.5604 20.26 42.5364 20.428C42.4404 21.172 42.1404 23.056 41.6364 26.08C41.5404 26.656 41.4324 27.292 41.3124 27.988C41.2164 28.66 41.1084 29.38 40.9884 30.148C42.8364 28.708 44.6124 27.436 46.3164 26.332C46.6284 26.14 46.9044 26.044 47.1444 26.044ZM34.4364 30.544C34.9884 30.544 35.5164 30.208 36.0204 29.536C36.5244 28.864 36.8844 27.904 37.1004 26.656L38.2524 20.5C37.2684 20.524 36.3564 20.908 35.5164 21.652C34.6764 22.372 34.0044 23.332 33.5004 24.532C32.9964 25.732 32.7444 27.004 32.7444 28.348C32.7444 29.092 32.8884 29.644 33.1764 30.004C33.4884 30.364 33.9084 30.544 34.4364 30.544ZM31.4484 46.888C32.0484 46.888 32.7204 46.168 33.4644 44.728C34.2324 43.288 34.9644 40.996 35.6604 37.852C33.8124 39.436 32.4804 40.864 31.6644 42.136C30.8484 43.408 30.4404 44.524 30.4404 45.484C30.4404 45.892 30.5124 46.228 30.6564 46.492C30.8244 46.756 31.0884 46.888 31.4484 46.888ZM52.0229 34.18C50.6069 34.18 49.3949 33.832 48.3869 33.136C47.4029 32.416 46.6589 31.48 46.1549 30.328C45.6509 29.176 45.3989 27.94 45.3989 26.62C45.3989 24.796 45.7349 23.176 46.4069 21.76C47.1029 20.32 48.0389 19.204 49.2149 18.412C50.3909 17.596 51.7109 17.188 53.1749 17.188C54.5909 17.188 55.8029 17.548 56.8109 18.268C57.8189 18.964 58.5749 19.888 59.0789 21.04C59.5829 22.192 59.8349 23.428 59.8349 24.748C59.8349 26.572 59.4869 28.204 58.7909 29.644C58.0949 31.06 57.1469 32.176 55.9469 32.992C54.7709 33.784 53.4629 34.18 52.0229 34.18ZM52.4189 30.292C53.2349 30.292 53.9189 29.848 54.4709 28.96C55.0469 28.072 55.3349 26.776 55.3349 25.072C55.3349 23.752 55.0949 22.756 54.6149 22.084C54.1349 21.412 53.5589 21.076 52.8869 21.076C52.0229 21.076 51.3029 21.52 50.7269 22.408C50.1749 23.272 49.8989 24.568 49.8989 26.296C49.8989 27.664 50.1389 28.672 50.6189 29.32C51.0989 29.968 51.6989 30.292 52.4189 30.292Z" fill="#6366F1"/>
</svg>
