<svg width="18" height="16" viewBox="0 0 18 16" fill="none" xmlns="http://www.w3.org/2000/svg">
<path d="M0.11084 0.890624C0.11084 0.641796 0.196692 0.431478 0.368396 0.259667C0.5401 0.0878572 0.75029 0.00195217 0.998965 0.00195217H16.9852C17.2339 0.00195217 17.4441 0.0878572 17.6158 0.259667C17.7875 0.431478 17.8733 0.641796 17.8733 0.890624V15.1094C17.8733 15.3582 17.7875 15.5685 17.6158 15.7403C17.4441 15.9121 17.2339 15.998 16.9852 15.998H0.998965C0.75029 15.998 0.5401 15.9121 0.368396 15.7403C0.196692 15.5685 0.11084 15.3582 0.11084 15.1094V0.890624ZM1.88709 1.7793V14.2207H16.0971V1.7793H1.88709ZM7.76648 4.81855L12.1005 7.69785C12.1834 7.7571 12.2337 7.83411 12.2515 7.92891C12.2693 8.0237 12.2545 8.11256 12.2071 8.19551C12.1716 8.23105 12.1361 8.2666 12.1005 8.30215L7.76648 11.1814C7.68359 11.2407 7.59477 11.2614 7.50004 11.2437C7.40531 11.2259 7.32834 11.1755 7.26913 11.0926C7.2336 11.0333 7.21584 10.9682 7.21584 10.8971V5.10293C7.21584 5.00814 7.25137 4.92519 7.32242 4.8541C7.39347 4.78301 7.47636 4.74746 7.57109 4.74746C7.64214 4.74746 7.70727 4.77116 7.76648 4.81855Z" fill="#EF4444"/>
</svg>
