<svg width="18" height="18" viewBox="0 0 18 18" fill="none" xmlns="http://www.w3.org/2000/svg">
<path d="M9.1249 17.8867C7.91705 17.8867 6.76249 17.6557 5.66122 17.1936C4.60731 16.7433 3.66885 16.1064 2.84586 15.2829C2.02286 14.4594 1.38637 13.5204 0.93639 12.4658C0.474565 11.3639 0.243652 10.2086 0.243652 9C0.243652 7.79141 0.474565 6.63613 0.93639 5.53418C1.38637 4.47962 2.02286 3.54059 2.84586 2.71709C3.66885 1.89359 4.60731 1.2567 5.66122 0.806444C6.76249 0.344336 7.91705 0.113281 9.1249 0.113281C10.3328 0.113281 11.4873 0.344336 12.5886 0.806444C13.6425 1.2567 14.581 1.89359 15.4039 2.71709C16.2269 3.54059 16.8634 4.47962 17.3134 5.53418C17.7752 6.63613 18.0062 7.79141 18.0062 9C18.0062 10.2086 17.7752 11.3639 17.3134 12.4658C16.8634 13.5204 16.2269 14.4594 15.4039 15.2829C14.581 16.1064 13.6425 16.7433 12.5886 17.1936C11.4873 17.6557 10.3328 17.8867 9.1249 17.8867ZM9.1249 16.1094C10.4156 16.1094 11.6117 15.7835 12.7129 15.1318C13.7787 14.5038 14.6254 13.6566 15.253 12.5902C15.9043 11.4883 16.2299 10.2915 16.2299 9C16.2299 7.70846 15.9043 6.51172 15.253 5.40977C14.6254 4.34336 13.7787 3.49616 12.7129 2.86816C11.6117 2.21647 10.4156 1.89062 9.1249 1.89062C7.83416 1.89062 6.63815 2.21647 5.53688 2.86816C4.47113 3.49616 3.62445 4.34336 2.99684 5.40977C2.34555 6.51172 2.0199 7.70846 2.0199 9C2.0199 10.2915 2.34555 11.4883 2.99684 12.5902C3.62445 13.6566 4.47113 14.5038 5.53688 15.1318C6.63815 15.7835 7.83416 16.1094 9.1249 16.1094Z" fill="white"/>
</svg>
