<svg width="16" height="20" viewBox="0 0 16 20" fill="none" xmlns="http://www.w3.org/2000/svg">
<path d="M0.89502 19.3779C0.89502 18.0864 1.22067 16.8896 1.87196 15.7877C2.49957 14.7213 3.34624 13.8741 4.41199 13.2461C5.51327 12.5944 6.70928 12.2686 8.00002 12.2686C9.29076 12.2686 10.4868 12.5944 11.588 13.2461C12.6538 13.8741 13.5005 14.7213 14.1281 15.7877C14.7794 16.8896 15.105 18.0864 15.105 19.3779H13.3288C13.3288 18.4182 13.086 17.5236 12.6005 16.6941C12.1268 15.8884 11.4874 15.2486 10.6822 14.7746C9.85324 14.2888 8.9592 14.0459 8.00002 14.0459C7.04084 14.0459 6.1468 14.2888 5.31788 14.7746C4.51265 15.2486 3.8732 15.8884 3.39953 16.6941C2.91402 17.5236 2.67127 18.4182 2.67127 19.3779H0.89502ZM8.00002 11.3799C7.029 11.3799 6.13496 11.137 5.31788 10.6512C4.51265 10.1772 3.8732 9.53737 3.39953 8.73164C2.91402 7.91406 2.67127 7.01947 2.67127 6.04785C2.67127 5.07624 2.91402 4.18164 3.39953 3.36406C3.8732 2.55833 4.51265 1.91849 5.31788 1.44453C6.13496 0.958723 7.029 0.71582 8.00002 0.71582C8.97104 0.71582 9.86508 0.958723 10.6822 1.44453C11.4874 1.91849 12.1268 2.55833 12.6005 3.36406C13.086 4.18164 13.3288 5.07624 13.3288 6.04785C13.3288 7.01947 13.086 7.91406 12.6005 8.73164C12.1268 9.53737 11.4874 10.1772 10.6822 10.6512C9.86508 11.137 8.97104 11.3799 8.00002 11.3799ZM8.00002 9.60254C8.63947 9.60254 9.23155 9.44258 9.77627 9.12266C10.321 8.80273 10.7532 8.37025 11.0729 7.82519C11.3927 7.28014 11.5525 6.68769 11.5525 6.04785C11.5525 5.40801 11.3927 4.81556 11.0729 4.27051C10.7532 3.72546 10.321 3.29297 9.77627 2.97305C9.23155 2.65312 8.63947 2.49316 8.00002 2.49316C7.36057 2.49316 6.76849 2.65312 6.22377 2.97305C5.67905 3.29297 5.24683 3.72546 4.92711 4.27051C4.60738 4.81556 4.44752 5.40801 4.44752 6.04785C4.44752 6.68769 4.60738 7.28014 4.92711 7.82519C5.24683 8.37025 5.67905 8.80273 6.22377 9.12266C6.76849 9.44258 7.36057 9.60254 8.00002 9.60254Z" fill="#6B7280"/>
</svg>
