<svg width="20" height="17" viewBox="0 0 20 17" fill="none" xmlns="http://www.w3.org/2000/svg">
<path d="M10.8882 12.4369V14.2676H15.3288V16.0449H4.67134V14.2676H9.11196V12.4369C7.95148 12.2947 6.89757 11.8919 5.95024 11.2283C5.0029 10.5648 4.2628 9.72943 3.72993 8.72227C3.17337 7.67956 2.89509 6.56575 2.89509 5.38086V0.0488272H17.1051V5.38086C17.1051 6.56575 16.8268 7.67956 16.2703 8.72227C15.7374 9.72943 14.9973 10.5648 14.0499 11.2283C13.1026 11.8919 12.0487 12.2947 10.8882 12.4369ZM4.67134 1.82617V5.38086C4.67134 6.34062 4.91409 7.23522 5.3996 8.06465C5.87327 8.87038 6.51272 9.51022 7.31795 9.98418C8.14687 10.47 9.04091 10.7129 10.0001 10.7129C10.9593 10.7129 11.8533 10.47 12.6822 9.98418C13.4875 9.51022 14.1269 8.87038 14.6006 8.06465C15.0861 7.23522 15.3288 6.34062 15.3288 5.38086V1.82617H4.67134ZM0.230713 1.82617H2.00696V5.38086H0.230713V1.82617ZM17.9932 1.82617H19.7695V5.38086H17.9932V1.82617Z" fill="#6B7280"/>
</svg>
