<svg width="16" height="16" viewBox="0 0 16 16" fill="none" xmlns="http://www.w3.org/2000/svg">
<path d="M9.215 11.765L6.065 10.055C5.785 10.345 5.455 10.575 5.075 10.745C4.695 10.915 4.295 11 3.875 11C3.335 11 2.835 10.865 2.375 10.595C1.915 10.325 1.55 9.96 1.28 9.5C1.01 9.04 0.875 8.54 0.875 8C0.875 7.46 1.01 6.96 1.28 6.5C1.55 6.04 1.915 5.675 2.375 5.405C2.835 5.135 3.335 5 3.875 5C4.295 5 4.695 5.085 5.075 5.255C5.455 5.425 5.785 5.655 6.065 5.945L9.215 4.235C9.155 3.995 9.125 3.75 9.125 3.5C9.125 2.96 9.26 2.46 9.53 2C9.8 1.54 10.165 1.175 10.625 0.905C11.085 0.635 11.585 0.5 12.125 0.5C12.665 0.5 13.165 0.635 13.625 0.905C14.085 1.175 14.45 1.54 14.72 2C14.99 2.46 15.125 2.96 15.125 3.5C15.125 4.04 14.99 4.54 14.72 5C14.45 5.46 14.085 5.825 13.625 6.095C13.165 6.365 12.665 6.5 12.125 6.5C11.705 6.5 11.305 6.415 10.925 6.245C10.545 6.075 10.215 5.845 9.935 5.555L6.785 7.265C6.845 7.505 6.875 7.75 6.875 8C6.875 8.25 6.845 8.495 6.785 8.735L9.935 10.445C10.215 10.155 10.545 9.925 10.925 9.755C11.305 9.585 11.705 9.5 12.125 9.5C12.665 9.5 13.165 9.635 13.625 9.905C14.085 10.175 14.45 10.54 14.72 11C14.99 11.46 15.125 11.96 15.125 12.5C15.125 13.04 14.99 13.54 14.72 14C14.45 14.46 14.085 14.825 13.625 15.095C13.165 15.365 12.665 15.5 12.125 15.5C11.585 15.5 11.085 15.365 10.625 15.095C10.165 14.825 9.8 14.46 9.53 14C9.26 13.54 9.125 13.04 9.125 12.5C9.125 12.25 9.155 12.005 9.215 11.765ZM3.875 9.5C4.145 9.5 4.395 9.4325 4.625 9.2975C4.855 9.1625 5.0375 8.98 5.1725 8.75C5.3075 8.52 5.375 8.27 5.375 8C5.375 7.73 5.3075 7.48 5.1725 7.25C5.0375 7.02 4.855 6.8375 4.625 6.7025C4.395 6.5675 4.145 6.5 3.875 6.5C3.605 6.5 3.355 6.5675 3.125 6.7025C2.895 6.8375 2.7125 7.02 2.5775 7.25C2.4425 7.48 2.375 7.73 2.375 8C2.375 8.27 2.4425 8.52 2.5775 8.75C2.7125 8.98 2.895 9.1625 3.125 9.2975C3.355 9.4325 3.605 9.5 3.875 9.5ZM12.125 5C12.395 5 12.645 4.9325 12.875 4.7975C13.105 4.6625 13.2875 4.48 13.4225 4.25C13.5575 4.02 13.625 3.77 13.625 3.5C13.625 3.23 13.5575 2.98 13.4225 2.75C13.2875 2.52 13.105 2.3375 12.875 2.2025C12.645 2.0675 12.395 2 12.125 2C11.855 2 11.605 2.0675 11.375 2.2025C11.145 2.3375 10.9625 2.52 10.8275 2.75C10.6925 2.98 10.625 3.23 10.625 3.5C10.625 3.77 10.6925 4.02 10.8275 4.25C10.9625 4.48 11.145 4.6625 11.375 4.7975C11.605 4.9325 11.855 5 12.125 5ZM12.125 14C12.395 14 12.645 13.9325 12.875 13.7975C13.105 13.6625 13.2875 13.48 13.4225 13.25C13.5575 13.02 13.625 12.77 13.625 12.5C13.625 12.23 13.5575 11.98 13.4225 11.75C13.2875 11.52 13.105 11.3375 12.875 11.2025C12.645 11.0675 12.395 11 12.125 11C11.855 11 11.605 11.0675 11.375 11.2025C11.145 11.3375 10.9625 11.52 10.8275 11.75C10.6925 11.98 10.625 12.23 10.625 12.5C10.625 12.77 10.6925 13.02 10.8275 13.25C10.9625 13.48 11.145 13.6625 11.375 13.7975C11.605 13.9325 11.855 14 12.125 14Z" fill="#6247FF"/>
</svg>
