<svg width="18" height="18" viewBox="0 0 18 18" fill="none" xmlns="http://www.w3.org/2000/svg">
<path d="M8.99209 0.113281C10.1999 0.113281 11.3545 0.344336 12.4558 0.806444C13.5097 1.2567 14.4481 1.89359 15.2711 2.71709C16.0941 3.54059 16.7306 4.47962 17.1806 5.53418C17.6424 6.63613 17.8733 7.79141 17.8733 9C17.8733 10.2086 17.6424 11.3639 17.1806 12.4658C16.7306 13.5204 16.0941 14.4594 15.2711 15.2829C14.4481 16.1064 13.5097 16.7433 12.4558 17.1936C11.3545 17.6557 10.1999 17.8867 8.99209 17.8867C7.78424 17.8867 6.62968 17.6557 5.5284 17.1936C4.47449 16.7433 3.53604 16.1064 2.71305 15.2829C1.89005 14.4594 1.25356 13.5204 0.803577 12.4658C0.341752 11.3639 0.11084 10.2086 0.11084 9C0.11084 7.79141 0.341752 6.63613 0.803577 5.53418C1.25356 4.47962 1.89005 3.54059 2.71305 2.71709C3.53604 1.89359 4.47449 1.2567 5.5284 0.806444C6.62968 0.344336 7.78424 0.113281 8.99209 0.113281ZM10.4664 12.5547H7.50004L6.29219 14.2432L6.77178 15.7539C7.49412 15.9909 8.23422 16.1094 8.99209 16.1094C9.74996 16.1094 10.4901 15.9909 11.2124 15.7539L11.692 14.2432L10.4664 12.5547ZM3.04165 8.00469L1.88709 8.82227V9C1.88709 9.75833 1.99959 10.487 2.22458 11.1861C2.44957 11.8852 2.77521 12.531 3.20151 13.1234H4.90671L6.07904 11.5061L5.15539 8.68008L3.04165 8.00469ZM14.9425 8.00469L12.8288 8.68008L11.9051 11.5061L13.0775 13.1234H14.7827C15.209 12.531 15.5346 11.8852 15.7596 11.1861C15.9846 10.487 16.0971 9.75833 16.0971 9V8.82227L14.9425 8.00469ZM8.99209 6.81387L6.91388 8.32461L7.71319 10.7773H10.271L11.0703 8.32461L8.99209 6.81387ZM11.0348 2.19277L9.88022 3.02812V5.2498L12.2782 6.9916L14.2676 6.35176L14.7471 4.84101C14.2972 4.21302 13.7524 3.67093 13.113 3.21475C12.4735 2.75856 11.7808 2.4179 11.0348 2.19277ZM6.9494 2.19277C6.20338 2.4179 5.51064 2.75856 4.87119 3.21475C4.23174 3.67093 3.68702 4.21302 3.23704 4.84101L3.71663 6.35176L5.70603 6.9916L8.10397 5.2498V3.02812L6.9494 2.19277Z" fill="#22C55E"/>
</svg>
