<svg width="14" height="14" viewBox="0 0 14 14" fill="none" xmlns="http://www.w3.org/2000/svg">
<path d="M6.99209 13.6666C6.08599 13.6666 5.21986 13.4933 4.39371 13.1466C3.6031 12.8088 2.89909 12.3311 2.2817 11.7133C1.66431 11.0955 1.18683 10.3911 0.849265 9.59996C0.502815 8.77329 0.32959 7.90663 0.32959 6.99996C0.32959 6.09329 0.502815 5.22663 0.849265 4.39996C1.18683 3.60885 1.66431 2.9044 2.2817 2.28663C2.89909 1.66885 3.6031 1.19107 4.39371 0.853293C5.21986 0.506626 6.08599 0.333293 6.99209 0.333293C7.89819 0.333293 8.76431 0.506626 9.59046 0.853293C10.3811 1.19107 11.0851 1.66885 11.7025 2.28663C12.3199 2.9044 12.7973 3.60885 13.1349 4.39996C13.4814 5.22663 13.6546 6.09329 13.6546 6.99996C13.6546 7.90663 13.4814 8.77329 13.1349 9.59996C12.7973 10.3911 12.3199 11.0955 11.7025 11.7133C11.0851 12.3311 10.3811 12.8088 9.59046 13.1466C8.76431 13.4933 7.89819 13.6666 6.99209 13.6666ZM6.99209 12.3333C7.96037 12.3333 8.85759 12.0888 9.68374 11.6C10.4832 11.1288 11.1184 10.4933 11.5892 9.69329C12.0778 8.86663 12.3221 7.96885 12.3221 6.99996C12.3221 6.03107 12.0778 5.13329 11.5892 4.30663C11.1184 3.50663 10.4832 2.87107 9.68374 2.39996C8.85759 1.91107 7.96037 1.66663 6.99209 1.66663C6.02381 1.66663 5.12659 1.91107 4.30044 2.39996C3.50094 2.87107 2.86578 3.50663 2.39496 4.30663C1.90638 5.13329 1.66209 6.03107 1.66209 6.99996C1.66209 7.96885 1.90638 8.86663 2.39496 9.69329C2.86578 10.4933 3.50094 11.1288 4.30044 11.6C5.12659 12.0888 6.02381 12.3333 6.99209 12.3333ZM7.65834 6.99996H10.3233V8.33329H6.32584V3.66663H7.65834V6.99996Z" fill="#4F46E5"/>
</svg>
