<svg width="17" height="14" viewBox="0 0 17 14" fill="none" xmlns="http://www.w3.org/2000/svg">
<path d="M16.9977 1.73336C16.3534 2.01113 15.6869 2.19447 14.9982 2.28336C15.3537 2.06113 15.6647 1.78336 15.9313 1.45002C16.1979 1.11669 16.3923 0.750024 16.5145 0.350024C15.8258 0.761135 15.0926 1.04447 14.315 1.20002C13.9818 0.844468 13.593 0.572246 13.1487 0.383357C12.7043 0.194468 12.2433 0.100024 11.7657 0.100024C11.1325 0.100024 10.5493 0.255579 10.0161 0.56669C9.48292 0.877802 9.0608 1.30002 8.74977 1.83336C8.43873 2.36669 8.28322 2.95002 8.28322 3.58336C8.28322 3.85002 8.31099 4.11669 8.36653 4.38336C6.94466 4.30558 5.60055 3.94447 4.3342 3.30002C3.11229 2.66669 2.06255 1.81113 1.18499 0.733357C0.873957 1.2778 0.718441 1.86113 0.718441 2.48336C0.718441 3.08336 0.857295 3.63891 1.135 4.15002C1.41271 4.66114 1.79039 5.07225 2.26805 5.38336C1.71264 5.37225 1.18499 5.2278 0.685116 4.95002V5.00002C0.685116 5.55558 0.807307 6.07225 1.05169 6.55002C1.29607 7.0278 1.6321 7.43058 2.05977 7.75836C2.48744 8.08614 2.96232 8.30558 3.48442 8.41669C3.18449 8.49447 2.87901 8.53336 2.56798 8.53336C2.34581 8.53336 2.1292 8.51114 1.91814 8.46669C2.14031 9.16669 2.54854 9.74169 3.14283 10.1917C3.73713 10.6417 4.41196 10.8778 5.16733 10.9C4.54526 11.3778 3.86488 11.7445 3.12617 12C2.38747 12.2556 1.62377 12.3834 0.835078 12.3834C0.55737 12.3834 0.279661 12.3667 0.00195312 12.3334C0.801753 12.8445 1.65709 13.2334 2.56798 13.5C3.47886 13.7667 4.40641 13.9 5.35062 13.9C6.88357 13.9 8.29988 13.6 9.59955 13C10.7881 12.4445 11.8268 11.6667 12.7154 10.6667C13.5375 9.73336 14.1706 8.67225 14.615 7.48336C15.0482 6.3278 15.2648 5.16114 15.2648 3.98336C15.2648 3.83891 15.2592 3.68891 15.2481 3.53336C15.9369 3.03336 16.52 2.43336 16.9977 1.73336Z" fill="white"/>
</svg>
